<?xml version="1.0" encoding="utf-8"?>
<!-- Generator: Adobe Illustrator 16.0.0, SVG Export Plug-In . SVG Version: 6.00 Build 0)  -->
<!DOCTYPE svg PUBLIC "-//W3C//DTD SVG 1.1//EN" "http://www.w3.org/Graphics/SVG/1.1/DTD/svg11.dtd">
<svg version="1.1" id="Layer_1" xmlns="http://www.w3.org/2000/svg" xmlns:xlink="http://www.w3.org/1999/xlink" x="0px" y="0px"
	 width="512px" height="512px" viewBox="0 0 512 512" enable-background="new 0 0 512 512" xml:space="preserve">
<g>
	<path fill="#D9F1FF" d="M10,10h262.285l104.762,104.762v195.375H10V10z"/>
	<path fill="#4286F4" d="M272.285,10v104.762h104.762L272.285,10z"/>
	<g>
		<path fill="#4286F4" d="M193.523,221.254c16.223,0,29.457-13.234,29.457-29.457c0-16.227-13.234-29.457-29.457-29.457
			c-16.227,0-29.461,13.23-29.461,29.457C164.063,208.02,177.297,221.254,193.523,221.254z"/>
		<path fill="#4286F4" d="M75.91,250.969c16.227,0,29.457-13.234,29.457-29.457c0-16.227-13.23-29.461-29.457-29.461
			s-29.457,13.234-29.457,29.461C46.453,237.734,59.684,250.969,75.91,250.969z"/>
		<path fill="#4286F4" d="M311.133,250.969c16.227,0,29.461-13.234,29.461-29.457c0-16.227-13.234-29.461-29.461-29.461
			c-16.223,0-29.457,13.234-29.457,29.461C281.676,237.734,294.91,250.969,311.133,250.969z"/>
		<path fill="#4286F4" d="M193.523,502c16.223,0,29.457-13.234,29.457-29.461c0-16.223-13.234-29.457-29.457-29.457
			c-16.227,0-29.461,13.234-29.461,29.457C164.063,488.766,177.297,502,193.523,502z"/>
		<path fill="#4286F4" d="M312.871,502c16.227,0,29.457-13.234,29.457-29.461c0-16.223-13.23-29.457-29.457-29.457
			s-29.457,13.234-29.457,29.457C283.414,488.766,296.645,502,312.871,502z"/>
		<path fill="#4286F4" d="M74.172,502c16.227,0,29.461-13.234,29.461-29.461c0-16.223-13.234-29.457-29.461-29.457
			c-16.223,0-29.457,13.234-29.457,29.457C44.715,488.766,57.949,502,74.172,502z"/>
	</g>
	<path fill="#203C8C" d="M387.031,114.422c-0.004-0.113-0.012-0.223-0.02-0.328c-0.027-0.434-0.074-0.863-0.156-1.281
		c-0.086-0.426-0.207-0.84-0.348-1.25c-0.031-0.102-0.07-0.203-0.105-0.305c-0.148-0.387-0.309-0.77-0.5-1.137
		c-0.012-0.02-0.02-0.039-0.027-0.059c-0.203-0.383-0.441-0.746-0.691-1.102c-0.066-0.09-0.129-0.176-0.195-0.262
		c-0.27-0.352-0.555-0.691-0.871-1.008L279.355,2.93c-0.316-0.316-0.656-0.598-1.004-0.867c-0.09-0.066-0.18-0.137-0.273-0.199
		c-0.352-0.25-0.711-0.484-1.09-0.688c-0.027-0.016-0.059-0.023-0.086-0.039c-0.355-0.188-0.727-0.344-1.102-0.488
		c-0.109-0.039-0.215-0.078-0.324-0.113c-0.402-0.137-0.813-0.258-1.234-0.34c-0.012-0.004-0.023-0.004-0.035-0.008
		c-0.406-0.078-0.824-0.125-1.242-0.152c-0.113-0.008-0.23-0.012-0.348-0.016C272.504,0.012,272.395,0,272.285,0H10
		C4.477,0,0,4.477,0,10v300.137c0,5.523,4.477,10,10,10h113.848v53.617l-38,61.094c-3.691-1.148-7.609-1.766-11.672-1.766
		c-21.758,0-39.457,17.703-39.457,39.457c0,21.762,17.699,39.461,39.457,39.461s39.457-17.699,39.457-39.461
		c0-10.488-4.121-20.027-10.82-27.102l39.527-63.547c0.988-1.582,1.512-3.414,1.512-5.281v-56.473h39.672v15.102
		c0,5.523,4.477,10,10,10s10-4.477,10-10v-15.102h39.672v56.473c0,1.867,0.523,3.699,1.512,5.281l39.527,63.547
		c-6.699,7.074-10.82,16.613-10.82,27.102c0,21.758,17.699,39.461,39.457,39.461s39.457-17.703,39.457-39.461
		s-17.699-39.457-39.457-39.457c-4.059,0-7.98,0.617-11.672,1.762l-38.004-61.09v-53.617h113.852c5.523,0,10-4.477,10-10V114.762
		C387.047,114.645,387.035,114.535,387.031,114.422z M74.172,492c-10.727,0-19.457-8.73-19.457-19.461
		c0-10.727,8.73-19.457,19.457-19.457c10.73,0,19.461,8.73,19.461,19.457C93.633,483.27,84.902,492,74.172,492z M332.328,472.539
		c0,10.73-8.727,19.461-19.457,19.461c-10.727,0-19.457-8.73-19.457-19.461c0-10.727,8.73-19.457,19.457-19.457
		C323.602,453.082,332.328,461.813,332.328,472.539z M282.285,34.145l70.617,70.617h-70.617V34.145z M263.195,300.137v-29.375
		l23.715-18.137c6.691,5.223,15.098,8.344,24.227,8.344c21.758,0,39.457-17.699,39.457-39.457s-17.699-39.461-39.457-39.461
		s-39.461,17.703-39.461,39.461c0,5.398,1.094,10.551,3.066,15.242l-27.621,21.125c-2.473,1.891-3.922,4.828-3.922,7.941v34.316
		h-39.676v-70.168c16.93-4.441,29.457-19.871,29.457-38.172c0-21.758-17.699-39.457-39.457-39.457s-39.461,17.699-39.461,39.457
		c0,18.301,12.531,33.73,29.461,38.172v70.168h-39.676V265.82c0-3.113-1.449-6.051-3.926-7.941l-27.617-21.125
		c1.973-4.691,3.063-9.844,3.063-15.242c0-21.758-17.699-39.461-39.457-39.461s-39.457,17.703-39.457,39.461
		s17.699,39.457,39.457,39.457c9.125,0,17.531-3.121,24.223-8.344l23.715,18.137v29.375H20V20h242.285v94.762
		c0,5.523,4.477,10,10,10h94.762v175.375H263.195z M291.676,221.512c0-10.73,8.73-19.461,19.457-19.461
		c10.73,0,19.461,8.73,19.461,19.461c0,10.727-8.73,19.457-19.461,19.457S291.676,232.238,291.676,221.512z M193.523,211.254
		c-10.73,0-19.461-8.727-19.461-19.457s8.73-19.457,19.461-19.457s19.457,8.727,19.457,19.457S204.254,211.254,193.523,211.254z
		 M75.91,240.969c-10.727,0-19.457-8.73-19.457-19.457c0-10.73,8.73-19.461,19.457-19.461c10.73,0,19.457,8.73,19.457,19.461
		C95.367,232.238,86.641,240.969,75.91,240.969z"/>
	<path fill="#203C8C" d="M203.523,434.371v-19.133c0-5.52-4.477-10-10-10s-10,4.48-10,10v19.133
		c-16.93,4.438-29.461,19.867-29.461,38.168c0,21.762,17.703,39.461,39.461,39.461s39.457-17.699,39.457-39.461
		C232.98,454.238,220.453,438.809,203.523,434.371z M193.523,492c-10.73,0-19.461-8.73-19.461-19.461
		c0-10.727,8.73-19.457,19.461-19.457s19.457,8.73,19.457,19.457C212.98,483.27,204.254,492,193.523,492z"/>
	<path fill="#203C8C" d="M193.523,385.238c5.508,0,10-4.492,10-10s-4.492-10-10-10s-10,4.492-10,10S188.016,385.238,193.523,385.238
		z"/>
</g>
</svg>
