<?xml version="1.0" encoding="utf-8"?>
<!-- Generator: Adobe Illustrator 16.0.0, SVG Export Plug-In . SVG Version: 6.00 Build 0)  -->
<!DOCTYPE svg PUBLIC "-//W3C//DTD SVG 1.1//EN" "http://www.w3.org/Graphics/SVG/1.1/DTD/svg11.dtd">
<svg version="1.1" id="Layer_1" xmlns="http://www.w3.org/2000/svg" xmlns:xlink="http://www.w3.org/1999/xlink" x="0px" y="0px"
	 width="512px" height="512px" viewBox="0 0 512 512" enable-background="new 0 0 512 512" xml:space="preserve">
<path fill="#9BDCFF" d="M129.574,457.754H56.883v-92.141c0-9.043,7.332-16.375,16.375-16.375h39.941
	c9.047,0,16.375,7.332,16.375,16.375V457.754z"/>
<path fill="#D9F1FF" d="M238.09,457.754h-72.695V244.457c0-9.043,7.332-16.375,16.375-16.375h39.945
	c9.043,0,16.375,7.332,16.375,16.375V457.754z"/>
<path fill="#9BDCFF" d="M346.605,457.754H273.91V297.133c0-9.043,7.332-16.375,16.375-16.375h39.945
	c9.043,0,16.375,7.332,16.375,16.375V457.754z"/>
<path fill="#D9F1FF" d="M455.117,457.754h-72.691V178.086c0-9.047,7.328-16.375,16.375-16.375h39.941
	c9.043,0,16.375,7.328,16.375,16.375V457.754z"/>
<path fill="#4286F4" d="M92.703,238.082c18.293,0,33.176-14.883,33.176-33.18c0-4.113-0.758-8.051-2.133-11.691l58.797-46.238
	c13.16,8.996,31.016,7.402,42.387-4.23l52.055,26.281c-3.289,20.289,12.449,38.508,32.746,38.508
	c18.293,0,33.176-14.883,33.176-33.18c0-7.051-2.215-13.59-5.98-18.969l70.211-91.348c21.734,8.598,45.34-7.535,45.34-30.855
	c0-18.297-14.883-33.18-33.18-33.18c-26.438,0-42.16,29.535-27.691,51.422l-70.523,91.754c-12.145-4.438-25.859-1.414-35.063,8.004
	l-52.059-26.281c3.289-20.293-12.449-38.508-32.746-38.508c-23.195,0-39.199,23.285-31.043,44.867l-58.797,46.238
	c-21.844-14.93-51.852,0.727-51.852,27.406C59.523,223.199,74.406,238.082,92.703,238.082z M419.297,20
	c7.27,0,13.18,5.91,13.18,13.18c0,7.266-5.91,13.176-13.18,13.176c-7.266,0-13.176-5.91-13.176-13.176
	C406.121,25.91,412.031,20,419.297,20z M309.73,161.176c7.266,0,13.176,5.91,13.176,13.176s-5.91,13.18-13.176,13.18
	s-13.18-5.914-13.18-13.18S302.465,161.176,309.73,161.176z M201.215,106.391c7.266,0,13.18,5.91,13.18,13.176
	s-5.914,13.18-13.18,13.18s-13.176-5.914-13.176-13.18S193.949,106.391,201.215,106.391z M92.703,191.727
	c7.266,0,13.176,5.91,13.176,13.176c0,7.27-5.91,13.18-13.176,13.18s-13.18-5.91-13.18-13.18
	C79.523,197.637,85.438,191.727,92.703,191.727z"/>
<path fill="#203C8C" d="M502,447.754h-36.883V178.086c0-14.547-11.832-26.375-26.375-26.375h-39.941
	c-14.543,0-26.375,11.828-26.375,26.375v269.668h-15.82V297.133c0-14.543-11.832-26.375-26.375-26.375h-39.945
	c-14.543,0-26.375,11.832-26.375,26.375v150.621h-15.82V340.875c0-5.523-4.477-10-10-10s-10,4.477-10,10v106.879h-52.691V244.457
	c0-3.516,2.859-6.375,6.375-6.375h39.941c3.516,0,6.375,2.859,6.375,6.375v16.418c0,5.523,4.477,10,10,10s10-4.477,10-10v-16.418
	c0-14.543-11.832-26.375-26.375-26.375h-39.941c-14.543,0-26.375,11.832-26.375,26.375v203.297h-15.82v-82.141
	c0-14.543-11.832-26.375-26.375-26.375H73.258c-14.543,0-26.375,11.832-26.375,26.375v82.141H10c-5.523,0-10,4.477-10,10
	c0,5.52,4.477,10,10,10h492c5.523,0,10-4.48,10-10C512,452.23,507.523,447.754,502,447.754z M66.883,447.754v-82.141
	c0-3.516,2.859-6.375,6.375-6.375h39.941c3.516,0,6.375,2.859,6.375,6.375v82.141H66.883z M283.91,447.754V297.133
	c0-3.516,2.859-6.375,6.375-6.375h39.941c3.516,0,6.375,2.859,6.375,6.375v150.621H283.91z M392.426,447.754V178.086
	c0-3.516,2.855-6.375,6.375-6.375h39.941c3.516,0,6.375,2.859,6.375,6.375v269.668H392.426z"/>
<path fill="#203C8C" d="M245.16,293.805c-2.32-2.32-5.77-3.391-9.02-2.73c-4.359,0.82-8.051,4.777-8.051,9.801
	c0,8.863,10.793,13.348,17.07,7.07C249.188,303.918,248.934,297.578,245.16,293.805z"/>
</svg>
