<?xml version="1.0" encoding="utf-8"?>
<!-- Generator: Adobe Illustrator 16.0.0, SVG Export Plug-In . SVG Version: 6.00 Build 0)  -->
<!DOCTYPE svg PUBLIC "-//W3C//DTD SVG 1.1//EN" "http://www.w3.org/Graphics/SVG/1.1/DTD/svg11.dtd">
<svg version="1.1" id="Layer_1" xmlns="http://www.w3.org/2000/svg" xmlns:xlink="http://www.w3.org/1999/xlink" x="0px" y="0px"
	 width="512px" height="512px" viewBox="0 0 512 512" enable-background="new 0 0 512 512" xml:space="preserve">
<g id="XMLID_1315_">
	<g id="XMLID_1756_">
		<path id="XMLID_1901_" fill="#FFFFFF" d="M383.989,69.993c0-11.045-8.953-19.998-19.998-19.998H30.024
			c-11.045,0-19.998,8.953-19.998,19.998v309.97c0,11.045,8.953,19.998,19.998,19.998h332.634c11.781,0,21.331-9.55,21.331-21.331
			V69.993z"/>
		<path id="XMLID_2007_" fill="#D9F1FF" d="M363.991,49.995H30.024c-11.045,0-19.998,8.953-19.998,19.998v76.993h373.963V69.993
			C383.989,58.948,375.036,49.995,363.991,49.995z"/>
		<g id="XMLID_1860_">
			<g id="XMLID_1867_">
				<path id="XMLID_1869_" fill="#FFFFFF" d="M142.077,46.996V33.997c0-13.253-10.744-23.998-23.998-23.998l0,0
					c-13.254,0-23.998,10.744-23.998,23.998v42.496c0,13.253,10.744,23.998,23.998,23.998l0,0c13.253,0,23.998-10.744,23.998-23.998
					V46.996z"/>
			</g>
			<g id="XMLID_1864_">
				<path id="XMLID_1866_" fill="#FFFFFF" d="M299.935,46.996V33.997c0-13.253-10.743-23.998-23.997-23.998l0,0
					c-13.254,0-23.998,10.744-23.998,23.998v42.496c0,13.253,10.744,23.998,23.998,23.998l0,0c13.254,0,23.997-10.744,23.997-23.998
					V46.996z"/>
			</g>
		</g>
		<g id="XMLID_1085_">
			<circle id="XMLID_1166_" fill="#4286F4" cx="384.045" cy="384.072" r="117.988"/>
		</g>
	</g>
	<g id="XMLID_1295_">
		<g id="XMLID_1296_">
			<g id="XMLID_1297_">
				<path id="XMLID_1314_" fill="#4286F4" d="M233.212,304.971h-24.371v-92.111c0-4.044-2.437-7.69-6.173-9.238
					c-3.736-1.548-8.037-0.691-10.896,2.167l-26.142,26.141c-3.905,3.905-3.905,10.236,0,14.142c3.905,3.905,10.236,3.905,14.142,0
					l9.071-9.072v67.972h-24.372c-5.522,0-9.999,4.477-9.999,9.998c0,5.523,4.477,10,9.999,10h68.74c5.522,0,9.999-4.477,9.999-10
					C243.211,309.447,238.735,304.971,233.212,304.971z"/>
				<path id="XMLID_1313_" fill="#203C8C" d="M226.006,389.957c-2.63,0-5.209,1.069-7.069,2.93c-1.86,1.859-2.93,4.439-2.93,7.079
					c0,2.63,1.07,5.199,2.93,7.069c1.86,1.86,4.439,2.92,7.069,2.92s5.209-1.06,7.069-2.92c1.86-1.87,2.93-4.439,2.93-7.069
					c0-2.64-1.07-5.22-2.93-7.079C231.215,391.026,228.636,389.957,226.006,389.957z"/>
				<path id="XMLID_1311_" fill="#203C8C" d="M351.173,154.06c1.859-1.87,2.93-4.44,2.93-7.08c0-2.629-1.07-5.199-2.93-7.069
					c-1.86-1.859-4.439-2.93-7.069-2.93s-5.209,1.07-7.069,2.93c-1.86,1.86-2.93,4.44-2.93,7.069c0,2.64,1.069,5.22,2.93,7.08
					s4.439,2.919,7.069,2.919S349.313,155.92,351.173,154.06z"/>
				<path id="XMLID_1303_" fill="#203C8C" d="M474.547,293.572c-22.426-22.426-51.172-34.767-80.558-37.036V69.993
					c0-16.541-13.456-29.997-29.997-29.997h-54.058v-6C309.935,15.25,294.684,0,275.938,0s-33.996,15.25-33.996,33.997v6h-89.864v-6
					C152.077,15.25,136.827,0,118.081,0S84.084,15.25,84.084,33.997v6H30.025c-16.54,0-29.997,13.457-29.997,29.997v309.97
					c0,16.54,13.457,29.997,29.997,29.997H186.01c5.522,0,9.999-4.477,9.999-9.999s-4.477-9.999-9.999-9.999H30.025
					c-5.513,0-9.999-4.485-9.999-9.999V156.985h284.082c5.522,0,9.999-4.477,9.999-9.999s-4.477-9.999-9.999-9.999H20.026V69.993
					c0-5.514,4.486-9.999,9.999-9.999h54.058v16.499c0,18.746,15.25,33.997,33.997,33.997s33.997-15.25,33.997-33.997V59.994h89.864
					v16.499c0,18.746,15.251,33.997,33.997,33.997s33.996-15.25,33.996-33.997V59.994h54.058c5.514,0,9.999,4.485,9.999,9.999
					v186.552c-29.347,2.292-58.049,14.629-80.447,37.027c-24.174,24.174-37.486,56.314-37.486,90.501s13.312,66.327,37.486,90.501
					c24.952,24.952,57.727,37.427,90.502,37.427c32.774,0,65.549-12.476,90.501-37.427
					C524.448,424.672,524.448,343.475,474.547,293.572z M132.078,76.493c0,7.719-6.279,13.999-13.999,13.999
					s-13.999-6.279-13.999-13.999V33.997c0-7.719,6.279-13.999,13.999-13.999s13.999,6.279,13.999,13.999V76.493z M289.936,76.493
					c0,7.719-6.279,13.999-13.998,13.999c-7.72,0-13.999-6.279-13.999-13.999V33.997c0-7.719,6.279-13.999,13.999-13.999
					c7.719,0,13.998,6.279,13.998,13.999V76.493z M460.405,460.433c-42.104,42.105-110.615,42.106-152.72,0
					c-42.105-42.104-42.105-110.614,0-152.719c21.051-21.053,48.705-31.579,76.359-31.579s55.308,10.526,76.36,31.579
					C502.51,349.817,502.51,418.328,460.405,460.433z"/>
				<path id="XMLID_1302_" fill="#FFFFFF" d="M383.951,450.029c-5.523,0-10,4.477-10,9.999v7.206c0,5.522,4.477,9.999,10,9.999
					c5.521,0,9.998-4.477,9.998-9.999v-7.206C393.949,454.506,389.473,450.029,383.951,450.029z"/>
				<path id="XMLID_1301_" fill="#FFFFFF" d="M383.951,318.116c5.521,0,9.998-4.477,9.998-9.999v-7.207
					c0-5.521-4.477-9.998-9.998-9.998c-5.523,0-10,4.477-10,9.998v7.207C373.951,313.64,378.428,318.116,383.951,318.116z"/>
				<path id="XMLID_1300_" fill="#FFFFFF" d="M308.09,373.979h-7.206c-5.522,0-9.999,4.477-9.999,9.999s4.477,9.999,9.999,9.999
					h7.206c5.522,0,9.999-4.477,9.999-9.999S313.612,373.979,308.09,373.979z"/>
				<path id="XMLID_1299_" fill="#FFFFFF" d="M467.206,374.17H460c-5.522,0-9.999,4.477-9.999,9.999s4.477,9.999,9.999,9.999h7.206
					c5.522,0,9.999-4.477,9.999-9.999S472.729,374.17,467.206,374.17z"/>
				<path id="XMLID_1298_" fill="#FFFFFF" d="M429.99,323.822l-45.863,46.006l-18.402-19.27c-3.813-3.993-10.144-4.141-14.137-0.325
					c-3.994,3.814-4.14,10.144-0.325,14.137l25.413,26.607c1.887,1.977,4.499,3.093,7.229,3.093h0.14
					c2.658,0,5.206-1.058,7.082-2.939l53.025-53.19c3.899-3.911,3.889-10.242-0.021-14.141
					C440.22,319.901,433.889,319.911,429.99,323.822z"/>
			</g>
		</g>
	</g>
</g>
</svg>
