<?xml version="1.0" encoding="utf-8"?>
<!-- Generator: Adobe Illustrator 16.0.0, SVG Export Plug-In . SVG Version: 6.00 Build 0)  -->
<!DOCTYPE svg PUBLIC "-//W3C//DTD SVG 1.1//EN" "http://www.w3.org/Graphics/SVG/1.1/DTD/svg11.dtd">
<svg version="1.1" id="Capa_1" xmlns="http://www.w3.org/2000/svg" xmlns:xlink="http://www.w3.org/1999/xlink" x="0px" y="0px"
	 width="877px" height="877px" viewBox="181.501 0 877 877" enable-background="new 181.501 0 877 877" xml:space="preserve">
<g>
	<path fill="#D9F1FF" d="M934.941,259.13h-315.4l-59.85,132.197H304.141v396.6h487.251c-4.638-12.247-7.18-25.522-7.18-39.394
		c0-61.48,49.857-111.337,111.338-111.337c13.871,0,27.146,2.545,39.393,7.179L934.941,259.13L934.941,259.13z"/>
	<polygon fill="#4286F4" points="235.268,219.768 436.677,20.28 436.677,219.768 	"/>
	<path fill="#4286F4" d="M895.548,859.871c61.323,0,111.338-50.018,111.338-111.338c0-61.322-50.015-111.337-111.338-111.337
		c-61.322,0-111.337,50.015-111.337,111.337C784.211,809.854,834.227,859.871,895.548,859.871z"/>
</g>
<path fill="#203C8C" d="M856.962,388.136h0.877c9.459,0,17.129-7.668,17.129-17.129c0-9.458-7.67-17.129-17.129-17.129h-0.877
	c-9.459,0-17.129,7.671-17.129,17.129C839.833,380.466,847.503,388.136,856.962,388.136z"/>
<path fill="#203C8C" d="M820.58,371.007c0-9.458-7.668-17.129-17.129-17.129H693.793c-9.461,0-17.129,7.671-17.129,17.129
	c0,9.461,7.668,17.129,17.129,17.129h109.658C812.91,388.136,820.58,380.466,820.58,371.007z"/>
<path fill="#203C8C" d="M616.307,122.703h109.661c9.458,0,17.129-7.67,17.129-17.129s-7.671-17.129-17.129-17.129H616.307
	c-9.46,0-17.129,7.67-17.129,17.129S606.847,122.703,616.307,122.703z"/>
<path fill="#203C8C" d="M779.478,122.703h0.874c9.459,0,17.129-7.67,17.129-17.129s-7.67-17.129-17.129-17.129h-0.874
	c-9.458,0-17.128,7.67-17.128,17.129S770.018,122.703,779.478,122.703z"/>
<path fill="#203C8C" d="M533.323,195.961H782.04c9.461,0,17.129-7.67,17.129-17.129s-7.668-17.129-17.129-17.129H533.323
	c-9.461,0-17.129,7.67-17.129,17.129C516.194,188.292,523.862,195.961,533.323,195.961z"/>
<path fill="#203C8C" d="M952.07,633.203V259.13c0-9.46-7.671-17.129-17.129-17.129h-66.88V17.129C868.062,7.67,860.394,0,850.933,0
	H439.857c-4.515,0-8.847,1.781-12.054,4.96L221.063,209.726c-3.248,3.217-5.075,7.598-5.075,12.168v460.225
	c0,9.459,7.668,17.129,17.129,17.129h53.896v88.68c0,9.458,7.669,17.129,17.129,17.129h476.077
	C801.167,847.627,844.985,877,895.548,877c70.837,0,128.467-57.628,128.467-128.467C1024.015,697.97,994.642,654.152,952.07,633.203
	z M419.548,61.354v141.284H276.904L419.548,61.354z M250.247,664.991V236.897h186.432c9.46,0,17.129-7.67,17.129-17.129V34.258
	h379.998v207.744H619.541c-6.727,0-12.829,3.936-15.604,10.065l-55.294,122.132H304.141c-9.46,0-17.129,7.669-17.129,17.129v273.664
	H250.247z M321.27,770.798V408.456h238.42c6.727,0,12.829-3.937,15.604-10.065l55.293-122.132h287.226v345.778
	c-7.239-1.27-14.668-1.97-22.265-1.97c-70.836,0-128.466,57.63-128.466,128.466c0,7.597,0.7,15.027,1.97,22.265H321.27
	L321.27,770.798z M895.548,842.742c-51.946,0-94.208-42.262-94.208-94.209c0-51.946,42.262-94.208,94.208-94.208
	c51.947,0,94.209,42.262,94.209,94.208C989.757,800.48,947.497,842.742,895.548,842.742z"/>
<path fill="#FFFFFF" d="M945.358,706.83c-7.229-6.104-18.036-5.19-24.138,2.04l-37.759,44.73l-16.248-12.468
	c-7.504-5.761-18.26-4.346-24.017,3.161c-5.759,7.506-4.344,18.258,3.162,24.019l29.22,22.422c3.105,2.382,6.773,3.538,10.418,3.538
	c4.882,0,9.721-2.077,13.099-6.08l48.305-57.225C953.5,723.739,952.587,712.933,945.358,706.83z"/>
</svg>
