<?xml version="1.0" encoding="utf-8"?>
<!-- Generator: Adobe Illustrator 16.0.0, SVG Export Plug-In . SVG Version: 6.00 Build 0)  -->
<!DOCTYPE svg PUBLIC "-//W3C//DTD SVG 1.1//EN" "http://www.w3.org/Graphics/SVG/1.1/DTD/svg11.dtd">
<svg version="1.1" id="Layer_1" xmlns="http://www.w3.org/2000/svg" xmlns:xlink="http://www.w3.org/1999/xlink" x="0px" y="0px"
	 width="512px" height="512px" viewBox="0 0 512 512" enable-background="new 0 0 512 512" xml:space="preserve">
<g>
	<path fill="#D9F1FF" d="M76,10h260.426l104.02,104.02V502H76V10z"/>
	<path fill="#4286F4" d="M336.426,10v104.02h104.02L336.426,10z"/>
	<path fill="#4286F4" d="M131.078,316.871l43.488-43.484l48.527,48.523l118.785-118.789l43.488,43.488L223.094,408.883
		l-43.488-43.484L131.078,316.871z"/>
	<path fill="#203C8C" d="M440.445,214.02c-5.52,0-10,4.477-10,10V492H86v-20.004c0-5.52-4.477-10-10-10s-10,4.48-10,10V502
		c0,5.523,4.477,10,10,10h364.445c5.523,0,10-4.477,10-10V224.02C450.445,218.496,445.969,214.02,440.445,214.02z"/>
	<path fill="#203C8C" d="M450.43,113.676c-0.004-0.109-0.008-0.215-0.016-0.328c-0.031-0.43-0.074-0.859-0.16-1.277
		c-0.086-0.426-0.207-0.84-0.344-1.25c-0.035-0.102-0.07-0.203-0.109-0.305c-0.145-0.387-0.309-0.77-0.5-1.133
		c-0.008-0.02-0.016-0.043-0.027-0.063c-0.203-0.383-0.438-0.746-0.691-1.102c-0.063-0.086-0.129-0.176-0.195-0.262
		c-0.27-0.352-0.551-0.695-0.867-1.012L343.496,2.93c-0.313-0.316-0.652-0.598-1.004-0.867c-0.09-0.07-0.18-0.137-0.273-0.203
		c-0.352-0.25-0.711-0.48-1.086-0.684c-0.031-0.02-0.066-0.027-0.098-0.043c-0.352-0.188-0.719-0.344-1.094-0.484
		c-0.105-0.039-0.215-0.078-0.328-0.117c-0.398-0.137-0.809-0.254-1.227-0.34c-0.016,0-0.031,0-0.043-0.004
		c-0.406-0.082-0.82-0.125-1.238-0.156c-0.113-0.008-0.23-0.012-0.348-0.016C336.648,0.012,336.539,0,336.426,0H76
		c-5.523,0-10,4.477-10,10v381.996c0,5.523,4.477,10,10,10s10-4.477,10-10V20h240.426v94.02c0,5.523,4.48,10,10,10h94.02v20
		c0,5.523,4.48,10,10,10c5.523,0,10-4.477,10-10v-30C450.445,113.902,450.434,113.789,450.43,113.676z M346.426,34.145
		l69.879,69.875h-69.879V34.145z"/>
	<path fill="#203C8C" d="M223.094,418.883c2.559,0,5.117-0.977,7.07-2.93L392.438,253.68c3.906-3.906,3.906-10.234,0-14.141
		l-43.488-43.488c-1.875-1.875-4.418-2.93-7.07-2.93s-5.195,1.055-7.07,2.93L223.094,307.77l-41.457-41.457
		c-3.906-3.902-10.234-3.906-14.145,0l-43.484,43.488c-3.906,3.902-3.906,10.234,0,14.141l92.012,92.012
		C217.973,417.906,220.531,418.883,223.094,418.883z M174.566,287.527l41.453,41.453c3.906,3.906,10.238,3.906,14.145,0
		l111.715-111.715l29.348,29.344L223.094,394.742l-77.871-77.871L174.566,287.527z"/>
	<path fill="#203C8C" d="M76,441.996c5.508,0,10-4.488,10-10c0-5.508-4.492-10-10-10s-10,4.492-10,10
		C66,437.508,70.492,441.996,76,441.996z"/>
	<path fill="#203C8C" d="M440.445,174.02c-5.508,0-10,4.492-10,10s4.492,10,10,10s10-4.492,10-10S445.953,174.02,440.445,174.02z"/>
</g>
</svg>
