<?xml version="1.0" encoding="utf-8"?>
<!-- Generator: Adobe Illustrator 16.0.0, SVG Export Plug-In . SVG Version: 6.00 Build 0)  -->
<!DOCTYPE svg PUBLIC "-//W3C//DTD SVG 1.1//EN" "http://www.w3.org/Graphics/SVG/1.1/DTD/svg11.dtd">
<svg version="1.1" id="Layer_1" xmlns="http://www.w3.org/2000/svg" xmlns:xlink="http://www.w3.org/1999/xlink" x="0px" y="0px"
	 width="512px" height="512px" viewBox="0 0 512 512" enable-background="new 0 0 512 512" xml:space="preserve">
<g id="XMLID_1691_">
	<g id="XMLID_1690_">
		<path id="XMLID_1687_" fill="#D9F1FF" d="M123.767,61.527H30c-11.046,0-20,8.954-20,20v361.301c0,11.046,8.954,20,20,20h93.767
			c11.046,0,20-8.954,20-20V81.527C143.767,70.481,134.813,61.527,123.767,61.527z"/>
		<path id="XMLID_1686_" fill="#D9F1FF" d="M257.534,61.527h-93.767c-11.046,0-20,8.954-20,20v361.301c0,11.046,8.954,20,20,20
			h93.767c11.046,0,20-8.954,20-20V81.527C277.534,70.481,268.58,61.527,257.534,61.527z"/>
		<path id="XMLID_1685_" fill="#4286F4" d="M383.311,49.869l-90.571,24.269c-10.669,2.859-17.001,13.826-14.142,24.495
			l93.512,348.99c2.858,10.669,13.826,17.001,24.494,14.142l90.572-24.269c10.669-2.859,17.001-13.826,14.143-24.495l-93.512-348.99
			C404.947,53.342,393.98,47.01,383.311,49.869z"/>
		<circle id="XMLID_1742_" fill="#FFFFFF" cx="76.883" cy="366.58" r="29.363"/>
		<circle id="XMLID_1741_" fill="#FFFFFF" cx="210.754" cy="366.58" r="29.363"/>
		<circle id="XMLID_1740_" fill="#FFFFFF" cx="417.178" cy="356.609" r="29.363"/>
	</g>
	<g id="XMLID_61_">
		<path id="XMLID_96_" fill="#203C8C" d="M510.976,410.413l-93.511-348.99c-2.074-7.74-7.038-14.209-13.978-18.216
			c-6.94-4.007-15.025-5.071-22.765-2.997L290.15,64.479c-2.265,0.607-4.394,1.466-6.377,2.527
			c-5.125-9.222-14.963-15.479-26.24-15.479h-93.767c-7.678,0-14.688,2.902-20,7.663c-5.312-4.761-12.322-7.663-20-7.663H30
			c-16.542,0-30,13.458-30,30v361.301c0,16.542,13.458,30,30,30h93.767c7.678,0,14.688-2.902,20-7.663
			c5.312,4.761,12.322,7.663,20,7.663h93.767c16.542,0,30-13.458,30-30V337.315c0-5.523-4.478-10-10-10c-5.523,0-10,4.477-10,10
			v105.513c0,5.514-4.486,10-10,10h-93.767c-5.514,0-10-4.486-10-10V81.527c0-5.514,4.486-10,10-10h93.767c5.514,0,10,4.486,10,10
			v174.605c0,5.522,4.477,10,10,10c5.522,0,10-4.478,10-10v-85.508l74.915,279.588c3.587,13.388,15.738,22.239,28.984,22.239
			c2.563,0,5.168-0.332,7.758-1.026l90.572-24.269C505.741,442.874,515.258,426.391,510.976,410.413z M123.767,452.827H30
			c-5.514,0-10-4.486-10-10v-361.3c0-5.514,4.486-10,10-10h93.767c5.514,0,10,4.486,10,10v361.301
			C133.767,448.342,129.281,452.827,123.767,452.827z M490.659,423.178c-1.335,2.313-3.492,3.969-6.072,4.659l-90.571,24.27
			c-5.324,1.428-10.82-1.745-12.248-7.071l-93.512-348.99c-1.427-5.326,1.745-10.82,7.071-12.248l90.571-24.269
			c0.861-0.231,1.736-0.345,2.604-0.345c1.731,0,3.443,0.455,4.984,1.344c2.313,1.335,3.968,3.492,4.659,6.072l93.511,348.99
			C492.349,418.17,491.994,420.864,490.659,423.178z"/>
		<path id="XMLID_103_" fill="#203C8C" d="M76.883,327.217c-21.705,0-39.363,17.658-39.363,39.363s17.658,39.364,39.363,39.364
			c21.705,0,39.364-17.659,39.364-39.364S98.588,327.217,76.883,327.217z M76.883,385.944c-10.677,0-19.363-8.688-19.363-19.364
			s8.687-19.363,19.363-19.363c10.677,0,19.364,8.688,19.364,19.363C96.247,377.258,87.561,385.944,76.883,385.944z"/>
		<path id="XMLID_104_" fill="#203C8C" d="M50.767,245.381H103c5.523,0,10-4.477,10-10s-4.477-10-10-10H50.767
			c-5.523,0-10,4.477-10,10S45.244,245.381,50.767,245.381z"/>
		<path id="XMLID_105_" fill="#203C8C" d="M50.767,206.23H103c5.523,0,10-4.477,10-10s-4.477-10-10-10H50.767
			c-5.523,0-10,4.477-10,10S45.244,206.23,50.767,206.23z"/>
		<path id="XMLID_1176_" fill="#203C8C" d="M50.767,167.079H103c5.523,0,10-4.477,10-10s-4.477-10-10-10H50.767
			c-5.523,0-10,4.477-10,10S45.244,167.079,50.767,167.079z"/>
		<path id="XMLID_1180_" fill="#203C8C" d="M50.767,127.927H103c5.523,0,10-4.477,10-10c0-5.523-4.477-10-10-10H50.767
			c-5.523,0-10,4.477-10,10C40.767,123.45,45.244,127.927,50.767,127.927z"/>
		<path id="XMLID_1189_" fill="#203C8C" d="M210.754,405.944c21.705,0,39.363-17.659,39.363-39.364s-17.658-39.363-39.363-39.363
			s-39.363,17.658-39.363,39.363S189.049,405.944,210.754,405.944z M210.754,347.217c10.677,0,19.363,8.688,19.363,19.363
			c0,10.677-8.687,19.364-19.363,19.364c-10.676,0-19.363-8.688-19.363-19.364C191.391,355.904,200.077,347.217,210.754,347.217z"/>
		<path id="XMLID_1190_" fill="#203C8C" d="M184.008,245.381H237.5c5.523,0,10-4.477,10-10s-4.477-10-10-10h-53.492
			c-5.523,0-10,4.477-10,10S178.485,245.381,184.008,245.381z"/>
		<path id="XMLID_1191_" fill="#203C8C" d="M184.008,206.23H237.5c5.523,0,10-4.477,10-10s-4.477-10-10-10h-53.492
			c-5.523,0-10,4.477-10,10S178.485,206.23,184.008,206.23z"/>
		<path id="XMLID_1231_" fill="#203C8C" d="M184.008,167.079H237.5c5.523,0,10-4.477,10-10s-4.477-10-10-10h-53.492
			c-5.523,0-10,4.477-10,10S178.485,167.079,184.008,167.079z"/>
		<path id="XMLID_1232_" fill="#203C8C" d="M184.008,127.927H237.5c5.523,0,10-4.477,10-10c0-5.523-4.477-10-10-10h-53.492
			c-5.523,0-10,4.477-10,10C174.008,123.45,178.485,127.927,184.008,127.927z"/>
		<path id="XMLID_1402_" fill="#203C8C" d="M406.99,318.587c-20.965,5.618-33.452,27.245-27.834,48.21
			c4.707,17.566,20.652,29.18,38.031,29.18c3.361,0,6.779-0.435,10.179-1.346c20.965-5.618,33.452-27.245,27.834-48.21
			C449.583,325.457,427.96,312.971,406.99,318.587z M422.19,375.313c-10.313,2.766-20.952-3.379-23.716-13.691
			c-2.763-10.313,3.379-20.952,13.692-23.715c1.672-0.448,3.353-0.662,5.007-0.662c8.549,0,16.394,5.713,18.708,14.354
			C438.646,361.911,432.503,372.55,422.19,375.313z"/>
		<path id="XMLID_1427_" fill="#203C8C" d="M418.786,220.352c-1.431-5.335-6.914-8.502-12.247-7.071l-51.811,13.882
			c-5.336,1.429-8.502,6.913-7.071,12.247c1.196,4.468,5.237,7.415,9.653,7.415c0.855,0,1.728-0.111,2.594-0.343l51.811-13.882
			C417.05,231.17,420.216,225.686,418.786,220.352z"/>
		<path id="XMLID_1561_" fill="#203C8C" d="M401.582,194.781c5.335-1.429,8.501-6.913,7.07-12.248
			c-1.43-5.334-6.909-8.502-12.247-7.071l-51.81,13.882c-5.336,1.429-8.502,6.913-7.072,12.248c1.197,4.468,5.237,7.414,9.653,7.414
			c0.856,0,1.729-0.111,2.595-0.343L401.582,194.781z"/>
		<path id="XMLID_2019_" fill="#203C8C" d="M391.449,156.964c5.334-1.429,8.5-6.913,7.07-12.248
			c-1.43-5.334-6.912-8.502-12.248-7.071l-51.811,13.883c-5.334,1.429-8.5,6.913-7.07,12.248c1.196,4.468,5.236,7.414,9.652,7.414
			c0.855,0,1.729-0.111,2.596-0.343L391.449,156.964z"/>
		<path id="XMLID_2022_" fill="#203C8C" d="M381.316,119.147c5.334-1.429,8.5-6.913,7.07-12.248
			c-1.43-5.334-6.914-8.502-12.248-7.071l-51.811,13.883c-5.334,1.429-8.5,6.913-7.071,12.248c1.197,4.468,5.237,7.414,9.653,7.414
			c0.855,0,1.729-0.111,2.595-0.343L381.316,119.147z"/>
		<path id="XMLID_2204_" fill="#203C8C" d="M277.529,287.314c-2.629,0-5.209,1.07-7.069,2.931s-2.931,4.44-2.931,7.069
			c0,2.631,1.07,5.211,2.931,7.07c1.86,1.86,4.44,2.931,7.069,2.931c2.641,0,5.211-1.07,7.07-2.931
			c1.871-1.859,2.93-4.439,2.93-7.07c0-2.629-1.059-5.209-2.93-7.069C282.74,288.385,280.17,287.314,277.529,287.314z"/>
	</g>
</g>
</svg>
