<?xml version="1.0" encoding="utf-8"?>
<!-- Generator: Adobe Illustrator 16.0.0, SVG Export Plug-In . SVG Version: 6.00 Build 0)  -->
<!DOCTYPE svg PUBLIC "-//W3C//DTD SVG 1.1//EN" "http://www.w3.org/Graphics/SVG/1.1/DTD/svg11.dtd">
<svg version="1.1" id="Layer_1" xmlns="http://www.w3.org/2000/svg" xmlns:xlink="http://www.w3.org/1999/xlink" x="0px" y="0px"
	 width="511px" height="511px" viewBox="0 0 511 511" enable-background="new 0 0 511 511" xml:space="preserve">
<path fill="#4286F4" d="M176.716,172.078c10.437,0,18.897-8.46,18.897-18.897V87.836c0-3.825,3.103-6.928,6.928-6.928h13.341
	c11.255,0,17.287-13.24,9.899-21.731l-38.717-44.483c-5.466-6.285-15.228-6.285-20.698,0l-38.713,44.483
	c-7.388,8.491-1.36,21.731,9.895,21.731h13.345c3.825,0,6.924,3.104,6.924,6.928v65.345
	C157.82,163.618,166.28,172.078,176.716,172.078z"/>
<path fill="#4286F4" d="M306.236,167.365l25.49-29.287l13.224-15.197c7.388-8.491,1.356-21.731-9.898-21.731h-13.341
	c-3.825,0-6.928-3.103-6.928-6.928V28.877c0-10.437-8.461-18.896-18.897-18.896s-18.896,8.46-18.896,18.896v65.345
	c0,3.825-3.104,6.928-6.928,6.928h-13.341c-11.256,0-17.287,13.24-9.899,21.731c5.438,6.246,34.577,39.731,38.717,44.484
	C291.005,173.649,300.768,173.649,306.236,167.365z"/>
<path fill="#D9F1FF" d="M411.168,266.725H235.769c-8.425,0-15.255-6.83-15.255-15.251v-17.462c0-15.863-12.858-28.725-28.725-28.725
	c-9.996,0-77.173,0-91.205,0c-15.864,0-28.725,12.862-28.725,28.725v238.284c0,15.864,12.857,28.726,28.725,28.726h310.584
	c15.864,0,28.726-12.861,28.726-28.726V295.45C439.894,279.587,427.032,266.725,411.168,266.725z"/>
<path fill="#203C8C" d="M411.168,256.744h-6.592V161.7c0-18.53-15.076-33.602-33.606-33.602h-17.407
	c5.088-6.768,6.074-15.583,2.515-23.4c-3.802-8.343-11.856-13.528-21.021-13.528h-10.292V28.877C324.764,12.955,311.813,0,295.886,0
	c-15.922,0-28.881,12.955-28.881,28.877v62.292h-10.284c-9.17,0-17.225,5.182-21.026,13.524c-3.559,7.821-2.573,16.632,2.519,23.404
	h-32.62V90.889h10.288c9.17,0,17.225-5.181,21.021-13.524c3.801-8.343,2.421-17.824-3.598-24.736L194.592,8.141
	C190.093,2.967,183.574,0,176.716,0c-6.857,0-13.376,2.967-17.879,8.141l-38.713,44.483c-6.02,6.916-7.4,16.394-3.599,24.74
	c3.801,8.343,11.855,13.524,21.021,13.524h10.289v37.205h-18.831c-18.53,0-33.603,15.076-33.603,33.606v33.965
	c-18.9,2.538-33.524,18.76-33.524,38.347v238.284c0,21.342,17.361,38.702,38.706,38.702h310.584
	c21.342,0,38.706-17.36,38.706-38.702V295.45C449.874,274.109,432.51,256.744,411.168,256.744z M253.863,112.967
	c0.382-0.838,1.185-1.836,2.858-1.836h13.341c9.321,0,16.904-7.587,16.904-16.909V28.877c0-4.916,4.004-8.916,8.92-8.916
	c4.917,0,8.917,4,8.917,8.916v65.345c0,9.322,7.586,16.909,16.908,16.909h13.341c1.673,0,2.476,0.998,2.857,1.836
	c0.382,0.838,0.608,2.105-0.487,3.365l-13.225,15.193l-25.492,29.291c-0.971,1.115-2.184,1.283-2.819,1.283
	s-1.848-0.168-2.818-1.283l-38.717-44.483C253.254,115.072,253.48,113.805,253.863,112.967z M137.547,70.928
	c-1.669,0-2.472-0.998-2.854-1.836c-0.382-0.838-0.608-2.102,0.487-3.361l38.713-44.487c0.975-1.115,2.188-1.283,2.823-1.283
	c0.636,0,1.848,0.168,2.819,1.283l38.717,44.487c1.096,1.259,0.87,2.522,0.487,3.361c-0.382,0.838-1.189,1.836-2.858,1.836h-13.341
	c-9.322,0-16.909,7.587-16.909,16.909v65.345c0,4.917-4,8.917-8.916,8.917c-4.92,0-8.92-4-8.92-8.917V87.836
	c0-9.322-7.583-16.909-16.905-16.909H137.547z M429.913,472.296c0,10.336-8.409,18.745-18.745,18.745H100.584
	c-10.335,0-18.745-8.409-18.745-18.745V234.012c0-10.335,8.409-18.745,18.745-18.745h91.205c10.339,0,18.745,8.409,18.745,18.745
	v17.462c0,13.911,11.322,25.231,25.236,25.231h52.377c5.51,0,9.981-4.467,9.981-9.98c0-5.512-4.472-9.98-9.981-9.98h-52.377
	c-2.908,0-5.275-2.362-5.275-5.271v-17.462c0-21.341-17.36-38.706-38.706-38.706h-76.425V161.7c0-7.524,6.121-13.641,13.642-13.641
	h18.831v5.123c0,1.493,0.113,2.959,0.335,4.39c0.952,6.207,3.883,11.77,8.133,16.02c5.232,5.232,12.452,8.468,20.413,8.468
	c14.429,0,26.421-10.64,28.546-24.487c0.218-1.431,0.332-2.897,0.332-4.39v-5.123h49.91l22.507,25.859
	c4.503,5.174,11.018,8.141,17.875,8.141c6.858,0,13.372-2.967,17.88-8.141l22.506-25.859h34.698c7.524,0,13.646,6.117,13.646,13.641
	v95.044h-16.624c-5.513,0-9.98,4.469-9.98,9.98c0,5.514,4.468,9.98,9.98,9.98h43.177c10.336,0,18.745,8.41,18.745,18.745V472.296z"
	/>
<path fill="#203C8C" d="M328.093,276.705c5.513,0,9.98-4.467,9.98-9.98c0-5.512-4.468-9.98-9.98-9.98h-0.023
	c-5.513,0-9.969,4.469-9.969,9.98C318.101,272.238,322.58,276.705,328.093,276.705z"/>
</svg>
