<?xml version="1.0" encoding="utf-8"?>
<!-- Generator: Adobe Illustrator 16.0.0, SVG Export Plug-In . SVG Version: 6.00 Build 0)  -->
<!DOCTYPE svg PUBLIC "-//W3C//DTD SVG 1.1//EN" "http://www.w3.org/Graphics/SVG/1.1/DTD/svg11.dtd">
<svg version="1.1" id="Capa_1" xmlns="http://www.w3.org/2000/svg" xmlns:xlink="http://www.w3.org/1999/xlink" x="0px" y="0px"
	 width="877px" height="877px" viewBox="181.5 0 877 877" enable-background="new 181.5 0 877 877" xml:space="preserve">
<path fill="#FFFFFF" d="M198.629,311.691v479.609c0,37.84,30.676,68.516,68.516,68.516h705.711c37.84,0,68.516-30.676,68.516-68.516
	V311.691L662.313,31.25c-25.144-18.602-59.485-18.602-84.629,0L198.629,311.691z"/>
<path fill="#D9F1FF" d="M744.139,608.924H495.861L198.629,311.691v479.609c0,37.84,30.676,68.516,68.516,68.516h705.711
	c37.84,0,68.516-30.676,68.516-68.516V311.691L744.139,608.924z"/>
<path fill="#4286F4" d="M707.312,572.097c-48.22-48.22-126.401-48.22-174.621,0L247.769,857.02
	c6.146,1.809,12.645,2.797,19.376,2.797h705.711c6.731,0,13.23-0.988,19.376-2.797L707.312,572.097z"/>
<path fill="#203C8C" d="M690.931,784.449c4.522,0,8.924-1.833,12.11-5.019c3.186-3.187,5.019-7.605,5.019-12.11
	s-1.833-8.924-5.019-12.11c-3.187-3.186-7.588-5.019-12.11-5.019c-4.505,0-8.924,1.833-12.11,5.019
	c-3.186,3.187-5.019,7.605-5.019,12.11s1.833,8.924,5.019,12.11C682.007,782.616,686.426,784.449,690.931,784.449z"/>
<path fill="#203C8C" d="M715.583,455.574H620c-81.122,0-147.122-65.998-147.122-147.122v-1.99
	c0-81.123,65.998-147.122,147.122-147.122s147.122,65.998,147.122,147.122v31.557c0,30.064-24.459,54.522-54.523,54.522
	s-54.522-24.458-54.522-54.522v-35.646c0-24.225-19.709-43.932-43.933-43.932c-26.397,0-47.872,21.476-47.872,47.872
	s21.477,47.872,47.872,47.872h24.496c9.46,0,17.129,7.669,17.129,17.129s-7.669,17.129-17.129,17.129h-24.498
	c-45.287,0-82.129-36.843-82.129-82.13c0-45.287,36.842-82.129,82.129-82.129c43.113,0,78.19,35.077,78.19,78.19v35.646
	c0,11.173,9.092,20.265,20.265,20.265c11.174,0,20.266-9.092,20.266-20.265v-31.557c0-62.233-50.631-112.864-112.864-112.864
	c-62.232,0-112.864,50.631-112.864,112.864v1.99c0,62.232,50.632,112.864,112.864,112.864h95.583c9.46,0,17.129,7.669,17.129,17.129
	S725.043,455.574,715.583,455.574z"/>
<path fill="#203C8C" d="M959.152,664.701c-4.505,0-8.924-1.833-12.11-5.019c-3.186-3.187-5.019-7.605-5.019-12.11
	s1.833-8.925,5.019-12.11c3.187-3.186,7.605-5.019,12.11-5.019s8.924,1.833,12.11,5.019c3.186,3.186,5.019,7.605,5.019,12.11
	s-1.833,8.924-5.019,12.11C968.076,662.868,963.657,664.701,959.152,664.701z"/>
<path fill="#203C8C" d="M1051.56,297.921L672.502,17.48c-31.404-23.233-73.602-23.233-105.004,0L188.44,297.921
	c-4.366,3.231-6.94,8.34-6.94,13.77v479.609c0,47.225,38.42,85.645,85.645,85.645h705.711c47.225,0,85.645-38.42,85.645-85.645
	V311.691C1058.5,306.262,1055.926,301.152,1051.56,297.921z M587.875,45.02c19.215-14.217,45.037-14.217,64.252,0l363.074,268.616
	L744.137,584.7l-24.716-24.715c-54.82-54.821-144.022-54.821-198.844,0L495.861,584.7L224.798,313.637L587.875,45.02z
	 M244.848,835.714c-0.413,0.413-0.798,0.842-1.16,1.285c-16.567-8.541-27.93-25.812-27.93-45.698V353.046l255.88,255.88
	L244.848,835.714z M286.324,842.688l58.238-58.238h280.577c9.46,0,17.129-7.669,17.129-17.129c0-9.461-7.669-17.129-17.129-17.129
	H378.82l47.96-47.961h126.713c9.461,0,17.129-7.669,17.129-17.129c0-9.461-7.668-17.129-17.129-17.129h-92.455l46.929-46.928
	c0.002-0.002,0.005-0.006,0.007-0.008c0.002-0.001,0.005-0.005,0.007-0.006l36.82-36.82c41.466-41.466,108.933-41.466,150.398,0
	l36.82,36.82c0.002,0.001,0.004,0.005,0.007,0.006c0.004,0.002,0.005,0.006,0.007,0.008l221.644,221.643H286.324z M1024.242,791.301
	c0,19.887-11.363,37.157-27.931,45.696c-0.361-0.441-0.748-0.872-1.159-1.284l-226.79-226.787l173.661-173.661V577.48
	c0,9.46,7.669,17.129,17.129,17.129s17.129-7.669,17.129-17.129V401.007l47.961-47.961V791.301z"/>
</svg>
