<?xml version="1.0" encoding="utf-8"?>
<!-- Generator: Adobe Illustrator 16.0.0, SVG Export Plug-In . SVG Version: 6.00 Build 0)  -->
<!DOCTYPE svg PUBLIC "-//W3C//DTD SVG 1.1//EN" "http://www.w3.org/Graphics/SVG/1.1/DTD/svg11.dtd">
<svg version="1.1" id="Layer_1" xmlns="http://www.w3.org/2000/svg" xmlns:xlink="http://www.w3.org/1999/xlink" x="0px" y="0px"
	 width="755px" height="755px" viewBox="233.73 43.46 755 755" enable-background="new 233.73 43.46 755 755" xml:space="preserve">
<path id="surface1" fill="#203C8C" d="M620,70.16c-96.681,0-175.4,78.719-175.4,175.4c0,57.707,28.644,108.327,71.81,140.32
	l-86.613,143.057c-0.684-0.193-1.438-0.351-2.192-0.544c-17.962-4.809-37.101-2.245-53.164,7.121
	c-33.532,19.43-45.05,62.311-25.766,95.927c12.548,21.733,35.75,35.11,60.846,35.079c11.927,0,24.047-2.946,35.08-9.313
	c16.206-9.322,28.038-24.707,32.888-42.763c4.841-17.959,2.275-37.11-7.121-53.163c-2.946-5.087-6.998-9.595-10.963-13.699
	l95.365-156.772l9.331-15.348l-15.347-8.77c-42.849-25.299-69.121-71.373-69.073-121.131c0-77.702,62.618-140.32,140.32-140.32
	s140.32,62.618,140.32,140.32c0,14.453-1.982,28.029-6.034,41.114l33.449,10.401c5.068-16.365,7.665-33.572,7.665-51.515
	C795.4,148.879,716.681,70.16,620,70.16z M620,175.4c-38.711,0-70.16,31.449-70.16,70.16s31.449,70.16,70.16,70.16
	c5.823,0,11.576-0.824,16.996-2.192l84.402,152.932l8.227,15.348l15.892-8.227c20.61-11.502,43.82-17.54,67.424-17.54
	c77.702,0,140.319,62.618,140.319,140.32S890.643,736.68,812.94,736.68c-36.411-0.009-71.396-14.158-97.575-39.465l-24.118,25.223
	c32.646,31.58,76.271,49.262,121.693,49.322c96.68,0,175.399-78.719,175.399-175.399s-78.72-175.4-175.399-175.4
	c-24.328,0-46.867,6.367-67.968,15.348l-77.281-139.776c14.266-13.117,22.41-31.592,22.469-50.971
	C690.16,206.849,658.711,175.4,620,175.4z M366.757,425.889C290.371,444.938,234.12,514.343,234.12,596.36
	c0,96.681,78.719,175.399,175.4,175.399c90.436,0,162.859-69.809,172.12-157.859h163.877c7.822,30.221,34.816,52.619,67.424,52.619
	c38.71,0,70.159-31.449,70.159-70.159c0-38.711-31.449-70.16-70.159-70.16c-32.625,0-59.602,22.398-67.424,52.62H549.84v17.54
	c0,77.702-62.618,140.319-140.32,140.319c-77.702,0-140.32-62.617-140.32-140.319c0-65.916,45.358-120.729,106.345-135.936
	L366.757,425.889z"/>
</svg>
