<?xml version="1.0" encoding="utf-8"?>
<!-- Generator: Adobe Illustrator 16.0.0, SVG Export Plug-In . SVG Version: 6.00 Build 0)  -->
<!DOCTYPE svg PUBLIC "-//W3C//DTD SVG 1.1//EN" "http://www.w3.org/Graphics/SVG/1.1/DTD/svg11.dtd">
<svg version="1.1" id="Layer_1" xmlns="http://www.w3.org/2000/svg" xmlns:xlink="http://www.w3.org/1999/xlink" x="0px" y="0px"
	 width="512px" height="512px" viewBox="0 0 512 512" enable-background="new 0 0 512 512" xml:space="preserve">
<g>
	<path fill="#D9F1FF" d="M346.828,10l149.609,149.605v119.512L273.555,502L64.191,292.637L346.828,10z"/>
	<path fill="#4286F4" d="M496.438,159.605l-59.758,59.758l59.758,59.754V159.605z"/>
	<path fill="#203C8C" d="M504.23,285.375c0.184-0.227,0.359-0.461,0.523-0.707c0.008-0.012,0.012-0.02,0.02-0.031
		c0.156-0.234,0.297-0.477,0.434-0.723c0.039-0.074,0.078-0.152,0.117-0.23c0.102-0.195,0.195-0.395,0.285-0.598
		c0.031-0.074,0.063-0.145,0.094-0.223c0.109-0.27,0.211-0.547,0.301-0.832c0.004-0.012,0.004-0.023,0.008-0.039
		c0.082-0.266,0.148-0.539,0.207-0.816c0.016-0.082,0.031-0.168,0.047-0.25c0.039-0.219,0.074-0.438,0.098-0.656
		c0.012-0.086,0.023-0.172,0.027-0.254c0.027-0.297,0.047-0.598,0.047-0.898V159.605c0-0.301-0.02-0.598-0.047-0.895
		c-0.004-0.086-0.02-0.172-0.027-0.254c-0.023-0.223-0.059-0.441-0.098-0.66c-0.016-0.082-0.031-0.164-0.047-0.25
		c-0.059-0.277-0.125-0.551-0.207-0.82c-0.004-0.012-0.004-0.023-0.008-0.035c-0.09-0.281-0.191-0.559-0.301-0.832
		c-0.027-0.074-0.063-0.148-0.094-0.223c-0.09-0.203-0.184-0.402-0.285-0.602c-0.039-0.074-0.078-0.152-0.117-0.227
		c-0.137-0.246-0.277-0.484-0.43-0.719c-0.012-0.012-0.016-0.023-0.023-0.039c-0.164-0.242-0.34-0.477-0.523-0.703
		c-0.051-0.066-0.109-0.133-0.164-0.199c-0.145-0.172-0.297-0.336-0.453-0.5c-0.035-0.035-0.066-0.078-0.105-0.117L353.902,2.93
		C352.027,1.055,349.484,0,346.828,0c-2.648,0-5.191,1.055-7.07,2.93L164.285,178.402h-60.703c-5.523,0-10,4.477-10,10
		s4.477,10,10,10h40.703L89.02,253.668H32.281c-5.523,0-10,4.477-10,10s4.477,10,10,10H69.02l-11.898,11.898
		c-3.906,3.906-3.906,10.238,0,14.141l29.227,29.227H50c-5.523,0-10,4.477-10,10s4.477,10,10,10h56.348l55.266,55.266h-58.031
		c-5.52,0-10,4.48-10,10c0,5.523,4.48,10,10,10h78.031l84.867,84.871c1.879,1.875,4.422,2.93,7.074,2.93
		c2.648,0,5.191-1.055,7.07-2.93l222.883-222.883c0.035-0.035,0.066-0.074,0.102-0.113c0.16-0.164,0.313-0.332,0.457-0.504
		C504.121,285.504,504.176,285.441,504.23,285.375z M450.82,219.363l35.613-35.613v71.227L450.82,219.363z M273.555,487.859
		l-63.656-63.66h30.43c5.523,0,10-4.477,10-10c0-5.52-4.477-10-10-10h-50.43l-55.27-55.266h25.398c5.523,0,10-4.477,10-10
		s-4.477-10-10-10h-45.398l-36.297-36.297l18.973-18.969h107.289c5.52,0,10-4.477,10-10s-4.48-10-10-10h-87.289l55.266-55.266
		h119.664c5.52,0,10-4.477,10-10s-4.48-10-10-10H192.57L346.832,24.141l135.465,135.465l-52.688,52.684
		c-3.906,3.906-3.906,10.238,0,14.145l52.688,52.684L273.555,487.859z"/>
	<path fill="#203C8C" d="M142.945,123.137h49.02c5.523,0,10-4.48,10-10c0-5.523-4.477-10-10-10h-49.02c-5.52,0-10,4.477-10,10
		C132.945,118.656,137.426,123.137,142.945,123.137z"/>
	<path fill="#203C8C" d="M63.582,198.402c5.508,0,10-4.492,10-10s-4.492-10-10-10s-10,4.492-10,10S58.074,198.402,63.582,198.402z"
		/>
	<path fill="#203C8C" d="M10,328.934c-5.508,0-10,4.492-10,10s4.492,10,10,10s10-4.492,10-10S15.508,328.934,10,328.934z"/>
</g>
</svg>
