<?xml version="1.0" encoding="utf-8"?>
<!-- Generator: Adobe Illustrator 24.1.0, SVG Export Plug-In . SVG Version: 6.00 Build 0)  -->
<svg version="1.1" xmlns="http://www.w3.org/2000/svg" xmlns:xlink="http://www.w3.org/1999/xlink" x="0px" y="0px"
	 viewBox="0 0 3713 2963" style="enable-background:new 0 0 3713 2963;" xml:space="preserve">
<g id="Shadows">
	<path id="Shadow_1_" style="fill:#E0E0E0;" d="M2357.99,2370.19c0.46-13.76-4.3-29.3-12.17-42.79c0,0,0,0,0,0
		c-1.61-2.77-3.36-5.44-5.23-8c-0.09-0.12-0.18-0.25-0.27-0.37c-1.81-2.46-3.71-4.8-5.72-7.01c-0.18-0.19-0.36-0.38-0.54-0.57
		c-1.98-2.14-4.03-4.15-6.17-5.97c-0.19-0.16-0.38-0.3-0.57-0.46c-2.2-1.84-4.45-3.53-6.77-4.97c-1.33-0.83-2.64-1.56-3.94-2.22
		c-0.6-0.3-1.19-0.52-1.79-0.79c-0.68-0.31-1.38-0.65-2.05-0.91c-0.99-0.38-1.96-0.66-2.92-0.94c-0.26-0.07-0.53-0.19-0.79-0.25
		c-1.15-0.3-2.27-0.51-3.38-0.66c-0.07-0.01-0.14-0.03-0.2-0.04c-4.67-0.61-8.93,0.08-12.57,1.92c0,0-0.01,0-0.01,0v0
		c-0.02,0.01-0.05,0.02-0.08,0.03l-0.01-0.02c-34.81,17.47-235.47,145.13-327.81,202.68l-45.76,27.78c-1.34,0.72-2.43,1.86-3.38,3.2
		c-0.12,0.16-0.23,0.33-0.34,0.5c-0.39,0.61-0.74,1.25-1.04,1.96c-0.19,0.43-0.33,0.91-0.49,1.38c-0.19,0.58-0.39,1.14-0.53,1.78
		c-0.08,0.38-0.13,0.8-0.19,1.2c-2.11,1.13-4.67,2.53-7.56,4.14l-6.76,3.65c-14.45-13.98-31.9-26.97-52.19-38.68
		c-63.29-36.54-147.16-56.66-236.15-56.66c-89,0-172.87,20.13-236.15,56.66c-65.57,37.86-101.68,88.98-101.68,143.95
		c0,54.97,36.11,106.08,101.67,143.94c63.29,36.54,147.16,56.66,236.15,56.66c89,0,172.87-20.13,236.16-56.66
		c65.57-37.86,101.68-88.97,101.68-143.94c0-24.78-7.4-48.77-21.47-71.13l6.04-3.26c4.97,2.74,9.54,3.1,12.96,1.27l0.28-0.15
		c31.34-17.26,336.77-147.42,399.22-180.91c0.01,0,0.01-0.01,0.02-0.01c0.01-0.01,0.02-0.01,0.04-0.02l0,0
		C2352.84,2391.58,2357.57,2382.83,2357.99,2370.19z M1817.91,2743.66c-54.66,31.56-128.28,48.94-207.29,48.94
		c-79.02,0-152.64-17.38-207.29-48.94c-46.95-27.1-72.81-60.47-72.81-93.94c0-33.48,25.85-66.85,72.81-93.95
		c54.65-31.56,128.26-48.93,207.29-48.93c79.03,0,152.64,17.38,207.29,48.93c46.95,27.1,72.81,60.47,72.81,93.95
		C1890.72,2683.19,1864.87,2716.56,1817.91,2743.66z"/>
	<path id="Shadow" style="fill:#E0E0E0;" d="M2384.89,1675.93l-309.82-179.25c-15.74-9.09-41.26-9.09-57.01,0L444.26,2405.31
		c-15.74,9.09-15.74,23.82,0,32.91l309.81,179.25c15.74,9.09,41.26,9.09,57.01,0l589.78-340.51l90.66,52.7
		c48.01,27.72,125.84,27.72,173.85,0.02l270.26-154.89c48.01-27.7,48.02-72.63,0.01-100.35l-90.59-52.67l539.84-312.93
		C2400.63,1699.75,2400.63,1685.02,2384.89,1675.93z"/>
</g>
<g id="Plant">
	<g id="Plants_1_">
		<g id="XMLID_203_">
			<g id="XMLID_208_">
				<path id="XMLID_209_" style="fill:#27DEBF;" d="M3077.19,2150.97c0.05-41.12-8.17-116.91,26.64-188
					c25.22-51.5,70.34-101.54,112.31-96.56c39.09,4.63,42.63,64.72,5.25,105.86c-37.38,41.14-84.95,98.04-95.32,188.99l-26.92,67.5
					L3077.19,2150.97z"/>
			</g>
			<g id="XMLID_206_">
				<path id="XMLID_207_" style="fill:#4286F4;" d="M3077.19,2150.97c0.05-41.12-8.17-116.91,26.64-188
					c25.22-51.5,70.34-101.54,112.31-96.56c39.09,4.63,42.63,64.72,5.25,105.86c-37.38,41.14-84.95,98.04-95.32,188.99l-26.92,67.5
					L3077.19,2150.97z"/>
			</g>
			<g id="XMLID_204_">
				<path id="XMLID_205_" style="fill:#FFFFFF;" d="M3091.2,2179.86c1.39-0.24,2.42-1.48,2.36-2.93
					c-4.74-116.93,33.32-213.99,110.05-280.7c1.19-1.04,1.31-2.84,0.28-4.03c-1.04-1.2-2.85-1.3-4.03-0.28
					c-78.09,67.89-116.82,166.52-112.01,285.24c0.07,1.58,1.4,2.8,2.97,2.74C3090.96,2179.9,3091.08,2179.88,3091.2,2179.86z"/>
			</g>
		</g>
		<g id="XMLID_199_">
			<path id="XMLID_202_" style="fill:#4286F4;" d="M3069.75,2297.99c0,0,28.31,19.07,72.31,20.12c44,1.05,60.25-22.11,60.25-22.11
				s-22.38-38.14-48.37-46.19c0,0,42.62,2.9,78.89,20.65c0,0,26.36-3.13,31.45-44.69c0,0-18.83-22.08-72.88-28.12
				c0,0,30.75-12.27,78.17-6.72c3.62,0.91,11.32-52.98,12.54-77.52c1.22-24.55-8.37-23.01-27.71-25.49
				c-19.34-2.48-83.35,2.9-93.66,14.74c-10.31,11.84-11.55,47.75-11.55,47.75s-13.84-18.37-13.54-36.47c0,0-19.6-3.85-39.6,6.27
				c-20,10.12-26.43,18.23-27.41,33.6c-0.99,15.37-2.29,38.34,3.88,56.18c0,0-18.23-29.38-17.29-54.95c0,0-10.01,16.55-18.6,38.93
				C3028.03,2216.35,3038.23,2270.53,3069.75,2297.99z"/>
			<g id="XMLID_200_">
				<path id="XMLID_201_" style="fill:#FFFFFF;" d="M3070.49,2300.75c0.9-0.24,1.66-0.92,1.97-1.87
					c25.05-76.8,142.9-177.92,187.94-193.11c1.49-0.51,2.3-2.13,1.79-3.62c-0.5-1.49-2.01-2.37-3.62-1.79
					c-45.91,15.48-166.03,118.52-191.54,196.75c-0.49,1.5,0.33,3.11,1.83,3.6C3069.41,2300.88,3069.97,2300.89,3070.49,2300.75z"/>
			</g>
		</g>
	</g>
</g>
<g id="Device">
	<g id="Device_1_">
		<g id="Monitor_2_">
			<g id="XMLID_403_">
				<g id="XMLID_412_">
					<path id="XMLID_413_" style="fill:#37474F;" d="M1665.4,2303.54l232.85-134.64c24-13.86,36-32.02,36.01-50.18
						c0-18.17,0.1-32.39,0.1-32.39l-219.11-124.36c-12.8-7.39-23.18-25.37-23.18-40.15v-287.09l-406.71,235.02l-0.01,287.08
						c0,14.78,10.38,32.76,23.18,40.15l183.03,106.56C1539.56,2331.25,1617.39,2331.25,1665.4,2303.54z"/>
				</g>
				<path id="XMLID_411_" style="fill:#263238;" d="M1383,2207.67v32.25l-74.54-42.96c-12.71-7.36-23.15-25.29-23.15-40.15v-287.06
					l77.49-44.7c1.6,19.67,3.34,40.02,4.95,59.82l-54.33,31.45v224.29c0,14.85,10.3,32.79,23.15,40.15L1383,2207.67z"/>
				<path id="XMLID_410_" style="fill:#455A64;" d="M1313.4,2140.68c0,14.78,10.38,32.76,23.18,40.15l154.94,90.33
					c48,27.72,125.84,27.72,173.85,0.02l232.97-134.62c48.01-27.7,48.02-72.63,0.01-100.35l-155.06-90.41
					c-12.8-7.39-23.18-25.36-23.18-40.15l0-224.32l-406.72,235.01V2140.68z"/>
				<path id="XMLID_407_" style="opacity:0.15;" d="M1790.51,1973.09v-0.03l-47.21-27.26c-12.8-7.39-23.18-25.37-23.18-40.15
					v-224.32l-406.72,235.01v224.33c0,14.78,10.38,32.76,23.18,40.15l46.4,26.79L1790.51,1973.09z"/>
				<path id="XMLID_405_" style="fill:#37474F;" d="M1934.31,2086.36c0,0,0,14.18,0,32.38c0,18.2-12.04,36.27-36,50.19
					l-232.89,134.56c-23.02,13.38-52.86,20.07-82.97,20.61v-32.25c30.11-0.4,59.95-7.36,82.97-20.61l232.89-134.69
					C1922.26,2122.76,1934.31,2104.56,1934.31,2086.36z"/>
			</g>
			<path id="XMLID_401_" style="fill:#455A64;" d="M660.37,2450.39c15.01,8.67,40.15,8.2,56.16-1.04
				c199.95-115.44,1372.96-792.66,1572.88-908.08c16-9.24,28.97-31.7,28.97-50.18V114.36c0-18.48-12.17-40.48-27.18-49.15
				c-15.01-8.67-40.15-8.2-56.15,1.04L662.18,974.34c-16,9.24-28.97,31.71-28.97,50.18l-0.02,1376.72
				C633.19,2419.72,645.36,2441.72,660.37,2450.39z"/>
			<path id="XMLID_398_" style="fill:#37474F;" d="M716.53,2449.31l1572.88-908.08c16-9.24,28.97-31.71,28.97-50.19V114.32
				c0-18.48-12.97-25.97-28.97-16.73L716.55,1005.68c-16,9.24-28.98,31.71-28.98,50.19l-0.02,1376.72
				C687.56,2451.06,700.53,2458.55,716.53,2449.31z"/>
			<path id="XMLID_346_" style="fill:#27DEBF;" d="M741.9,2250.72l0.01-1176.82c0-11.09,7.78-24.57,17.38-30.11l1487.3-858.7
				c9.6-5.54,17.39-1.05,17.39,10.04l0.05,1176.84c0,11.09-7.78,24.57-17.38,30.11L759.29,2260.76
				C749.69,2266.3,741.9,2261.81,741.9,2250.72z"/>
			<path id="XMLID_313_" style="fill:#5E9CF7;" d="M741.9,2250.72l0.01-1176.82c0-11.09,7.78-24.57,17.38-30.11l1487.3-858.7
				c9.6-5.54,17.39-1.05,17.39,10.04l0.05,1176.84c0,11.09-7.78,24.57-17.38,30.11L759.29,2260.76
				C749.69,2266.3,741.9,2261.81,741.9,2250.72z"/>
			<path style="fill:#27DEBF;" d="M1499.99,1939.56c-3.16,0-6.1-0.75-8.72-2.27c-6.2-3.57-9.61-10.84-9.61-20.45
				c0-18.67,12.66-40.6,28.83-49.94l0,0c8.33-4.81,16.33-5.47,22.51-1.91c6.2,3.58,9.61,10.84,9.61,20.45
				c0,18.67-12.66,40.6-28.83,49.94C1508.99,1938.16,1504.3,1939.56,1499.99,1939.56z M1524.27,1869.33
				c-3.14,0-6.71,1.11-10.48,3.28l0,0c-14.08,8.13-25.54,27.97-25.54,44.24c0,7.16,2.24,12.39,6.32,14.75
				c4.07,2.34,9.73,1.67,15.94-1.91c14.08-8.13,25.54-27.98,25.54-44.24c0-7.16-2.25-12.4-6.32-14.75
				C1528.13,1869.78,1526.29,1869.33,1524.27,1869.33z"/>
		</g>
	</g>
</g>
<g id="Window">
	<g id="Window_1_">
		<g>
			<g>
				<path style="fill:#F0F0F0;" d="M2522.36,406.55L990.54,1289.91l0.01,1128.99c-0.01,15.03,16.27,24.49,29.28,16.97l27.3-15.76
					l1446.67-834.14c15.73-9.08,28.56-31.18,28.56-49.45V406.55z"/>
				<path style="fill:#E0E0E0;" d="M2515.78,417.95v1118.57c0,15.8-11.57,35.84-25.27,43.74L1043.84,2414.4l-27.3,15.76
					c-2.01,1.16-4.17,1.75-6.4,1.75c-3.32,0-6.62-1.35-9.07-3.69c-2.54-2.44-3.94-5.75-3.94-9.33l-0.01-1125.18L2515.78,417.95
					 M2522.36,406.55L990.54,1289.91l0.01,1128.99c-0.01,11.41,9.37,19.61,19.59,19.61c3.24,0,6.56-0.82,9.7-2.63l27.3-15.76
					l1446.67-834.14c15.73-9.08,28.56-31.18,28.56-49.45V406.55L2522.36,406.55z"/>
			</g>
			<polygon style="opacity:0.8;fill:#455A64;" points="2486.02,385.58 954.11,1268.87 990.54,1289.91 2522.36,406.55 			"/>
			<path style="fill:#EBEBEB;" d="M1000.8,2436.13c0,0-10.26-5.02-10.26-17.24l-0.01-1096.47c0-8.99,0-32.52,0-32.52l-36.43-21.03
				l-0.04,1122.75c0,1.39,0.09,2.78,0.28,4.17c1.3,9.25,6.76,17.49,14.9,22.12l30.08,17.4L1000.8,2436.13L1000.8,2436.13z"/>
		</g>
		<g>
			<g>
				<path style="fill:#2B7AED;" d="M954.11,1269.37v-76.17c0-9.09,6.36-20.17,14.21-24.76l1503.5-866.73
					c7.85-4.59,20.59-4.62,28.46-0.07l7.83,4.52c7.87,4.54,14.25,15.6,14.25,24.68l0,76.3L990.54,1290.39L954.11,1269.37z"/>
				<path style="opacity:0.3;fill:#2B7AED;" d="M954.11,1269.37v-76.17c0-9.09,6.36-20.17,14.21-24.76l1503.5-866.73
					c7.85-4.59,20.59-4.62,28.46-0.07l7.83,4.52c7.87,4.54,14.25,15.6,14.25,24.68l0,76.3L990.54,1290.39L954.11,1269.37z"/>
				<path style="fill:#2B7AED;" d="M990.54,1214.23c0-9.09,6.36-20.17,14.21-24.76l1503.4-866.79c7.85-4.59,14.21-0.94,14.21,8.15
					l0,76.3L990.54,1290.39L990.54,1214.23z"/>
				<path style="opacity:0.4;fill:#2B7AED;" d="M990.54,1214.23c0-9.09,6.36-20.17,14.21-24.76l1503.4-866.79
					c7.85-4.59,14.21-0.94,14.21,8.15l0,76.3L990.54,1290.39L990.54,1214.23z"/>
				<path style="fill:#2B7AED;" d="M994.69,1200.14c-2.57,4.48-4.15,9.54-4.15,14.09v76.16l-36.4-21v-76.23
					c0-4.54,1.58-9.54,4.15-14.02L994.69,1200.14z"/>
				<path style="opacity:0.5;fill:#2B7AED;" d="M994.69,1200.14c-2.57,4.48-4.15,9.54-4.15,14.09v76.16l-36.4-21v-76.23
					c0-4.54,1.58-9.54,4.15-14.02L994.69,1200.14z"/>
			</g>
			<g>
				<path style="fill:#4286F4;" d="M2455.51,403.68c0,8.53,5.99,11.98,13.37,7.72c7.38-4.26,13.37-14.63,13.37-23.16
					s-5.99-11.98-13.37-7.72C2461.5,384.79,2455.51,395.16,2455.51,403.68z"/>
				<path style="fill:#4286F4;" d="M2402.03,434.56c0,8.53,5.99,11.98,13.37,7.72c7.38-4.26,13.37-14.63,13.37-23.16
					s-5.99-11.98-13.37-7.72C2408.02,415.67,2402.03,426.03,2402.03,434.56z"/>
				<path style="fill:#4286F4;" d="M2348.56,465.43c0,8.53,5.99,11.98,13.37,7.72c7.38-4.26,13.37-14.63,13.37-23.16
					s-5.99-11.98-13.37-7.72C2354.54,446.54,2348.56,456.91,2348.56,465.43z"/>
			</g>
		</g>
		<g>
			<path style="fill:#FAFAFA;" d="M990.54,1290.41l0.01,1128.48c-0.01,15.02,16.27,24.49,29.28,16.97l27.3-15.76l334.75-193.01
				V1064.74l-391.34,225.65L990.54,1290.41z"/>
			<polygon style="fill:#FAFAFA;" points="1408.62,1083.8 1408.62,2179.86 2490.24,1555.39 2490.24,459.33 			"/>
			<g>
				<path style="fill:#27DEBF;" d="M1292.3,1197.18l-249.65,144.26c-4.62,2.67-8.37,9.15-8.37,14.49l0,25.99
					c0,5.33,3.74,7.5,8.36,4.83l249.65-144.26c4.62-2.67,8.37-9.15,8.37-14.49l0-25.99
					C1300.67,1196.67,1296.92,1194.51,1292.3,1197.18z"/>
				<path style="fill:#5E9CF7;" d="M1292.3,1197.18l-249.65,144.26c-4.62,2.67-8.37,9.15-8.37,14.49l0,25.99
					c0,5.33,3.74,7.5,8.36,4.83l249.65-144.26c4.62-2.67,8.37-9.15,8.37-14.49l0-25.99
					C1300.67,1196.67,1296.92,1194.51,1292.3,1197.18z"/>
				<path style="fill:#455A64;" d="M1347.88,1207.49l-7.36-7.08c1.45-3.72,2.34-7.8,2.34-11.76c0-6.01-2.01-10.61-5.5-12.63
					c-2.66-1.54-5.86-1.4-8.96,0.39c-6.48,3.75-11.56,14.25-11.56,23.91c0,6.01,2.01,10.61,5.5,12.63c1.22,0.71,2.56,1.06,3.95,1.06
					c1.63,0,3.34-0.49,5.01-1.46c2.44-1.41,4.68-3.78,6.53-6.7l6.03,5.81c0.56,0.54,1.28,0.81,2.01,0.81c0.76,0,1.52-0.3,2.09-0.89
					C1349.08,1210.43,1349.04,1208.6,1347.88,1207.49z M1328.41,1207.54c-1.28,0.74-2.35,0.87-3.16,0.4c-1.2-0.69-2.6-3.1-2.6-7.61
					c0-7.53,3.97-16.18,8.66-18.89c0.78-0.45,1.47-0.67,2.09-0.67c0.39,0,0.75,0.09,1.07,0.28c1.2,0.69,2.6,3.1,2.6,7.61
					C1337.07,1196.18,1333.1,1204.83,1328.41,1207.54z"/>
			</g>
			<g>
				<g>
					<g>
						<g>
							<path style="fill:#455A64;" d="M1040.36,1463.01l-5.6,3.23c-0.33,0.19-0.6-0.01-0.6-0.45v-15.16c0-0.44,0.27-0.95,0.6-1.14
								l5.6-3.23c0.33-0.19,0.6,0.01,0.6,0.45v15.16C1040.96,1462.31,1040.69,1462.82,1040.36,1463.01z"/>
						</g>
						<g>
							<path style="fill:#455A64;" d="M1048.76,1458.17l-5.6,3.23c-0.33,0.19-0.6-0.01-0.6-0.45v-15.16c0-0.44,0.27-0.95,0.6-1.14
								l5.6-3.23c0.33-0.19,0.6,0.01,0.6,0.45v15.16C1049.35,1457.47,1049.09,1457.98,1048.76,1458.17z"/>
						</g>
						<g>
							<path style="fill:#455A64;" d="M1057.15,1453.32l-5.6,3.23c-0.33,0.19-0.6-0.01-0.6-0.45v-15.16c0-0.44,0.27-0.95,0.6-1.14
								l5.6-3.23c0.33-0.19,0.6,0.01,0.6,0.45v15.16C1057.74,1452.62,1057.48,1453.13,1057.15,1453.32z"/>
						</g>
						<g>
							<path style="fill:#455A64;" d="M1040.36,1482.56l-5.6,3.23c-0.33,0.19-0.6-0.01-0.6-0.45v-15.16c0-0.44,0.27-0.95,0.6-1.14
								l5.6-3.23c0.33-0.19,0.6,0.01,0.6,0.45v15.16C1040.96,1481.86,1040.69,1482.37,1040.36,1482.56z"/>
						</g>
						<g>
							<path style="fill:#455A64;" d="M1048.76,1477.72l-5.6,3.23c-0.33,0.19-0.6-0.01-0.6-0.45v-15.16c0-0.44,0.27-0.95,0.6-1.14
								l5.6-3.23c0.33-0.19,0.6,0.01,0.6,0.45v15.16C1049.35,1477.02,1049.09,1477.53,1048.76,1477.72z"/>
						</g>
						<g>
							<path style="fill:#455A64;" d="M1057.15,1472.87l-5.6,3.23c-0.33,0.19-0.6-0.01-0.6-0.45v-15.16c0-0.44,0.27-0.95,0.6-1.14
								l5.6-3.23c0.33-0.19,0.6,0.01,0.6,0.45v15.16C1057.74,1472.17,1057.48,1472.68,1057.15,1472.87z"/>
						</g>
					</g>
					<g>
						<g>
							<path style="fill:#455A64;" d="M1041.25,1534.21l-6.89-4.2c-0.26-0.16-0.26-0.77,0-1.23l6.89-12.16
								c0.33-0.59,0.82-0.5,0.82,0.15v16.36C1042.07,1533.77,1041.59,1534.41,1041.25,1534.21z"/>
						</g>
						<g>
							<path style="fill:#455A64;" d="M1038.36,1524.93l9.08-5.24v4.31l-9.08,5.24c-0.77,0.45-1.4-0.16-1.4-1.35
								C1036.95,1526.71,1037.59,1525.38,1038.36,1524.93z"/>
							<polygon style="fill:#455A64;" points="1049.13,1518.71 1052.22,1516.93 1052.22,1521.24 1049.13,1523.02 							"/>
							<path style="fill:#455A64;" d="M1060.57,1514.26v15.87c0,1.21-0.63,2.52-1.4,2.97c-0.77,0.44-1.4-0.14-1.4-1.35v-13.71
								l-3.84,2.22v-4.31l5.24-3.02C1059.94,1512.47,1060.57,1513.08,1060.57,1514.26z"/>
						</g>
					</g>
					<g>
						<g>
							<path style="fill:#455A64;" d="M1043.93,1569.78c-6.43,4.42-10.79,16.64-9.56,25.67c1.13,8.27,6.04,7.95,6.57,11.78
								c0.06,0.42,0.33,0.57,0.63,0.4l6.14-3.49c0.3-0.17,0.57-0.63,0.63-1.12c0.64-5.05,6.9-11.16,6.95-23.46
								C1055.32,1570.11,1050.16,1565.49,1043.93,1569.78z"/>
						</g>
						<path style="fill:#455A64;" d="M1047.6,1614.03l-5.93,3.42c-0.41,0.23-0.73-0.01-0.73-0.56v-5.45c0-0.54,0.33-1.17,0.73-1.4
							l5.93-3.42c0.41-0.23,0.73,0.01,0.73,0.55v5.45C1048.34,1613.17,1048.01,1613.79,1047.6,1614.03z"/>
					</g>
					<path style="fill:#455A64;" d="M1045.36,1441.74c-5.46,4.49-9.85,13.81-10.74,22.72c-0.52,5.19,0.14,9.42,1.57,12.42
						l-1.99,10.36c-0.16,0.85,0.3,1.3,0.8,0.77l5.97-6.51c2.49,0.79,5.49,0.08,8.68-2.55c5.47-4.51,9.88-13.83,10.75-22.75
						C1061.81,1441.7,1054.25,1434.43,1045.36,1441.74z M1047.51,1475.67c-5.49,3.17-9.96-1.13-9.96-9.58
						c0-8.46,4.47-17.91,9.96-21.08c5.49-3.17,9.96,1.13,9.96,9.58C1057.47,1463.04,1053,1472.5,1047.51,1475.67z"/>
					<path style="fill:#455A64;" d="M1045.36,1641.5c-5.46,4.49-9.85,13.81-10.74,22.72c-0.52,5.19,0.14,9.42,1.57,12.42
						l-1.99,10.36c-0.16,0.85,0.3,1.3,0.8,0.77l5.97-6.51c2.49,0.79,5.49,0.08,8.68-2.55c5.47-4.51,9.88-13.83,10.75-22.75
						C1061.81,1641.47,1054.25,1634.2,1045.36,1641.5z M1047.51,1675.44c-5.49,3.17-9.96-1.13-9.96-9.58
						c0-8.45,4.47-17.91,9.96-21.08c5.49-3.17,9.96,1.13,9.96,9.58C1057.47,1662.81,1053,1672.27,1047.51,1675.44z"/>
					<g>
						<path style="fill:#455A64;" d="M1053.79,1714.7c0,4.47-2.35,9.45-5.26,11.13c-2.9,1.68-5.26-0.59-5.26-5.06
							s2.35-9.45,5.26-11.13C1051.43,1707.97,1053.79,1710.23,1053.79,1714.7z"/>
						<path style="fill:#455A64;" d="M1062.81,1716.29c0,2.98-1.57,6.29-3.5,7.41c-1.93,1.12-3.5-0.39-3.5-3.37
							c0-2.98,1.57-6.29,3.5-7.41C1061.25,1711.81,1062.81,1713.32,1062.81,1716.29z"/>
						<path style="fill:#455A64;" d="M1054.73,1746.58l-12.41,7.17v-15.71c0-3.31,2.01-7.15,4.49-8.58l3.42-1.98
							c2.48-1.43,4.49,0.09,4.49,3.4V1746.58z"/>
						<path style="fill:#455A64;" d="M1059.86,1725.52l-3.42,1.97v18.11l6.44-3.72v-14.07
							C1062.89,1725.58,1061.54,1724.55,1059.86,1725.52z"/>
						<path style="fill:#455A64;" d="M1034.25,1732.78c0,2.98,1.57,4.48,3.5,3.37c1.93-1.12,3.5-4.43,3.5-7.41
							c0-2.98-1.57-4.48-3.5-3.37C1035.81,1726.49,1034.25,1729.81,1034.25,1732.78z"/>
						<path style="fill:#455A64;" d="M1037.2,1738.6l3.42-1.97v18.11l-6.44,3.72v-14.07
							C1034.17,1742.16,1035.52,1739.57,1037.2,1738.6z"/>
					</g>
				</g>
				<g>
					<path style="fill:#E0E0E0;" d="M1094.89,1427.49l146.18-84.4c3.93-2.27,7.13-0.66,7.13,3.61c0,4.26-3.19,9.56-7.12,11.83
						l-146.18,84.4c-3.94,2.27-7.13,0.66-7.13-3.61C1087.76,1435.06,1090.95,1429.77,1094.89,1427.49z"/>
					<path style="fill:#E0E0E0;" d="M1094.89,1496.3l146.18-84.4c3.93-2.27,7.13-0.66,7.13,3.61c0,4.26-3.19,9.56-7.12,11.83
						l-146.18,84.4c-3.94,2.27-7.13,0.66-7.13-3.61C1087.76,1503.87,1090.95,1498.57,1094.89,1496.3z"/>
					<path style="fill:#E0E0E0;" d="M1094.89,1565.11l146.18-84.4c3.93-2.27,7.13-0.66,7.13,3.61c0,4.26-3.19,9.56-7.12,11.83
						l-146.18,84.4c-3.94,2.27-7.13,0.66-7.13-3.61C1087.76,1572.68,1090.95,1567.38,1094.89,1565.11z"/>
					<path style="fill:#E0E0E0;" d="M1094.89,1633.91l146.18-84.4c3.93-2.27,7.13-0.66,7.13,3.61c0,4.26-3.19,9.56-7.12,11.83
						l-146.18,84.4c-3.94,2.27-7.13,0.66-7.13-3.61C1087.76,1641.48,1090.95,1636.18,1094.89,1633.91z"/>
					<path style="fill:#E0E0E0;" d="M1094.89,1702.72l146.18-84.4c3.93-2.27,7.13-0.66,7.13,3.61c0,4.26-3.19,9.56-7.12,11.83
						l-146.18,84.4c-3.94,2.27-7.13,0.66-7.13-3.61S1090.95,1704.99,1094.89,1702.72z"/>
					<path style="fill:#455A64;" d="M1121.63,1758.9l146.18-84.4c3.94-2.27,7.13-0.66,7.13,3.61c0,4.26-3.19,9.56-7.13,11.83
						l-146.18,84.4c-3.94,2.27-7.13,0.66-7.13-3.61C1114.5,1766.47,1117.69,1761.17,1121.63,1758.9z"/>
					<path style="fill:#E0E0E0;" d="M1121.63,1805.38l146.18-84.4c3.94-2.27,7.13-0.66,7.13,3.61c0,4.26-3.19,9.56-7.13,11.83
						l-146.18,84.4c-3.94,2.27-7.13,0.66-7.13-3.61C1114.5,1812.95,1117.69,1807.65,1121.63,1805.38z"/>
					<path style="fill:#E0E0E0;" d="M1121.63,1851.86l146.18-84.4c3.94-2.27,7.13-0.66,7.13,3.61c0,4.26-3.19,9.56-7.13,11.83
						l-146.18,84.4c-3.94,2.27-7.13,0.66-7.13-3.61C1114.5,1859.43,1117.69,1854.13,1121.63,1851.86z"/>
					<path style="fill:#E0E0E0;" d="M1150.08,1881.4l146.18-84.4c3.94-2.27,7.13-0.66,7.13,3.61c0,4.26-3.19,9.56-7.12,11.83
						l-146.18,84.4c-3.94,2.27-7.13,0.66-7.13-3.61C1142.95,1888.97,1146.14,1883.68,1150.08,1881.4z"/>
					<g>
						<path style="fill:#455A64;" d="M1115.91,1921.39l11.87-20.95c0.45-0.8,0.45-1.85,0-2.13l-11.87-7.24
							c-0.57-0.35-1.41,0.76-1.41,1.88v28.18C1114.5,1922.26,1115.34,1922.41,1115.91,1921.39z"/>
					</g>
					<path style="fill:#E0E0E0;" d="M1150.08,1927.72l146.18-84.4c3.94-2.27,7.13-0.66,7.13,3.61c0,4.26-3.19,9.56-7.12,11.83
						l-146.18,84.4c-3.94,2.27-7.13,0.66-7.13-3.61C1142.95,1935.29,1146.14,1929.99,1150.08,1927.72z"/>
					<g>
						<path style="fill:#455A64;" d="M1115.91,1967.71l11.87-20.95c0.45-0.8,0.45-1.85,0-2.13l-11.87-7.24
							c-0.57-0.35-1.41,0.76-1.41,1.88v28.18C1114.5,1968.57,1115.34,1968.72,1115.91,1967.71z"/>
					</g>
					<path style="fill:#E0E0E0;" d="M1150.08,1974.04l146.18-84.4c3.94-2.27,7.13-0.66,7.13,3.61c0,4.26-3.19,9.56-7.12,11.83
						l-146.18,84.4c-3.94,2.27-7.13,0.66-7.13-3.61C1142.95,1981.61,1146.14,1976.31,1150.08,1974.04z"/>
					<g>
						<path style="fill:#455A64;" d="M1115.91,2014.03l11.87-20.95c0.45-0.8,0.45-1.85,0-2.13l-11.87-7.24
							c-0.57-0.35-1.41,0.76-1.41,1.88v28.18C1114.5,2014.89,1115.34,2015.04,1115.91,2014.03z"/>
					</g>
					<path style="fill:#E0E0E0;" d="M1150.08,2020.36l146.18-84.4c3.94-2.27,7.13-0.66,7.13,3.61c0,4.26-3.19,9.56-7.12,11.83
						l-146.18,84.4c-3.94,2.27-7.13,0.66-7.13-3.61C1142.95,2027.93,1146.14,2022.63,1150.08,2020.36z"/>
					<g>
						<path style="fill:#455A64;" d="M1115.91,2060.35l11.87-20.95c0.45-0.8,0.45-1.85,0-2.13l-11.87-7.24
							c-0.57-0.35-1.41,0.76-1.41,1.88v28.18C1114.5,2061.21,1115.34,2061.36,1115.91,2060.35z"/>
					</g>
					<path style="fill:#E0E0E0;" d="M1150.08,2066.68l146.18-84.4c3.94-2.27,7.13-0.66,7.13,3.61c0,4.26-3.19,9.56-7.12,11.83
						l-146.18,84.4c-3.94,2.27-7.13,0.66-7.13-3.61C1142.95,2074.25,1146.14,2068.95,1150.08,2066.68z"/>
					<g>
						<path style="fill:#455A64;" d="M1115.91,2106.66l11.87-20.94c0.45-0.8,0.45-1.85,0-2.13l-11.87-7.24
							c-0.57-0.35-1.41,0.76-1.41,1.88v28.18C1114.5,2107.53,1115.34,2107.68,1115.91,2106.66z"/>
					</g>
					<path style="fill:#E0E0E0;" d="M1150.08,2112.99l146.18-84.4c3.94-2.27,7.13-0.66,7.13,3.6c0,4.26-3.19,9.56-7.12,11.83
						l-146.18,84.4c-3.94,2.27-7.13,0.66-7.13-3.61C1142.95,2120.56,1146.14,2115.26,1150.08,2112.99z"/>
					<g>
						<path style="fill:#455A64;" d="M1115.91,2152.98l11.87-20.95c0.45-0.8,0.45-1.85,0-2.13l-11.87-7.24
							c-0.57-0.35-1.41,0.76-1.41,1.88v28.18C1114.5,2153.85,1115.34,2153.99,1115.91,2152.98z"/>
					</g>
					<path style="fill:#E0E0E0;" d="M1150.08,2159.31l146.18-84.4c3.94-2.27,7.13-0.66,7.13,3.61c0,4.26-3.19,9.56-7.12,11.83
						l-146.18,84.4c-3.94,2.27-7.13,0.66-7.13-3.61C1142.95,2166.88,1146.14,2161.58,1150.08,2159.31z"/>
					<g>
						<path style="fill:#455A64;" d="M1115.91,2199.3l11.87-20.95c0.45-0.8,0.45-1.85,0-2.13l-11.87-7.24
							c-0.57-0.35-1.41,0.76-1.41,1.87v28.18C1114.5,2200.16,1115.34,2200.31,1115.91,2199.3z"/>
					</g>
					<path style="fill:#E0E0E0;" d="M1150.08,2205.63l146.18-84.4c3.94-2.27,7.13-0.66,7.13,3.61c0,4.26-3.19,9.56-7.12,11.83
						l-146.18,84.4c-3.94,2.27-7.13,0.66-7.13-3.61C1142.95,2213.2,1146.14,2207.9,1150.08,2205.63z"/>
					<g>
						<path style="fill:#455A64;" d="M1115.91,2245.62l11.87-20.95c0.45-0.8,0.45-1.85,0-2.13l-11.87-7.24
							c-0.57-0.35-1.41,0.76-1.41,1.87v28.18C1114.5,2246.48,1115.34,2246.63,1115.91,2245.62z"/>
					</g>
				</g>
			</g>
			<g>
				<g>
					<path style="fill:#F0F0F0;" d="M1442.49,1234.12l480.46-277.39c3.94-2.27,7.13-7.8,7.13-12.34V821.9
						c0-4.54-3.19-6.39-7.13-4.11l-480.46,277.34c-3.94,2.27-7.13,7.8-7.13,12.34V1230
						C1435.36,1234.55,1438.55,1236.39,1442.49,1234.12z"/>
					<g id="XMLID_143_">
						<g id="XMLID_149_">
							<path style="fill:#455A64;" d="M1484.38,1147.68c0-0.06,0.01-0.16,0.04-0.3l3.16-13.16l-4.36,2.51
								c-0.1,0.06-0.2,0.06-0.28-0.02c-0.08-0.08-0.12-0.2-0.12-0.36v-2.38c0-0.17,0.04-0.33,0.12-0.5
								c0.08-0.17,0.17-0.28,0.28-0.34l6.98-4.03c0.11-0.06,0.2-0.06,0.28,0.02c0.08,0.08,0.12,0.2,0.12,0.36v2.09
								c0,0.24-0.08,0.67-0.24,1.28l-3.16,13.19c-0.04,0.16-0.1,0.31-0.16,0.46c-0.06,0.14-0.15,0.26-0.26,0.32l-2.05,1.18
								c-0.1,0.05-0.18,0.05-0.24-0.01C1484.41,1147.93,1484.38,1147.82,1484.38,1147.68z"/>
							<path style="fill:#455A64;" d="M1496.04,1125.52c0.73-0.42,1.36-0.62,1.88-0.59c0.53,0.02,0.96,0.22,1.3,0.58
								c0.35,0.35,0.6,0.85,0.78,1.49c0.17,0.65,0.26,1.36,0.3,2.15c0.02,0.64,0.03,1.3,0.03,2.01c0,0.71-0.01,1.37-0.03,2
								c-0.03,0.83-0.12,1.66-0.3,2.5c-0.17,0.84-0.43,1.64-0.78,2.39c-0.34,0.75-0.78,1.45-1.3,2.08
								c-0.53,0.63-1.16,1.16-1.88,1.58c-0.73,0.42-1.36,0.62-1.89,0.6c-0.52-0.03-0.96-0.22-1.31-0.57
								c-0.35-0.36-0.6-0.86-0.77-1.5c-0.17-0.64-0.27-1.36-0.3-2.15c-0.02-0.61-0.03-1.26-0.03-1.96c0-0.71,0.01-1.38,0.03-2.04
								c0.03-0.83,0.14-1.66,0.3-2.5c0.17-0.84,0.42-1.64,0.77-2.39c0.35-0.76,0.78-1.46,1.31-2.09
								C1494.68,1126.47,1495.3,1125.94,1496.04,1125.52z M1497.6,1134.6c0.04-1.3,0.04-2.56,0-3.77c-0.02-0.37-0.06-0.69-0.11-0.97
								c-0.06-0.28-0.14-0.51-0.26-0.68c-0.12-0.16-0.27-0.26-0.47-0.28c-0.19-0.02-0.44,0.05-0.73,0.22
								c-0.3,0.17-0.54,0.38-0.73,0.62c-0.2,0.25-0.35,0.52-0.47,0.82c-0.12,0.3-0.2,0.62-0.26,0.97c-0.05,0.35-0.09,0.71-0.1,1.09
								c-0.05,1.27-0.05,2.53,0,3.77c0.01,0.37,0.04,0.7,0.09,0.98c0.05,0.29,0.14,0.51,0.26,0.67c0.12,0.16,0.28,0.26,0.48,0.28
								c0.19,0.02,0.44-0.06,0.73-0.23c0.29-0.17,0.53-0.37,0.73-0.62c0.2-0.25,0.35-0.52,0.48-0.83c0.12-0.3,0.21-0.63,0.26-0.97
								C1497.55,1135.34,1497.59,1134.98,1497.6,1134.6z"/>
							<path style="fill:#455A64;" d="M1506.14,1122.99c0.03,0.59,0.03,1.15,0,1.71c-0.02,0.46-0.07,0.91-0.17,1.34
								c-0.1,0.44-0.23,0.86-0.42,1.26c-0.19,0.4-0.43,0.77-0.71,1.1c-0.28,0.32-0.62,0.6-1,0.82c-0.38,0.22-0.71,0.33-0.99,0.33
								c-0.28,0-0.52-0.1-0.7-0.28c-0.19-0.19-0.33-0.44-0.42-0.77c-0.1-0.32-0.15-0.71-0.18-1.14c-0.01-0.29-0.03-0.56-0.03-0.83
								c0-0.26,0.01-0.56,0.03-0.88c0.03-0.46,0.08-0.91,0.18-1.35c0.1-0.43,0.24-0.86,0.42-1.25c0.18-0.4,0.42-0.76,0.7-1.09
								c0.28-0.33,0.61-0.6,0.99-0.82c0.38-0.22,0.71-0.33,1-0.33c0.28,0.01,0.51,0.1,0.69,0.29c0.19,0.18,0.33,0.44,0.43,0.76
								C1506.06,1122.17,1506.12,1122.55,1506.14,1122.99z M1509.79,1118.23c0.06-0.17,0.14-0.33,0.21-0.44
								c0.07-0.12,0.18-0.22,0.31-0.3l1.2-0.69c0.11-0.06,0.19-0.06,0.26-0.03c0.06,0.05,0.1,0.14,0.1,0.27
								c0,0.03-0.01,0.07-0.02,0.13c-0.01,0.05-0.02,0.1-0.04,0.16l-7.22,18.78c-0.06,0.17-0.14,0.32-0.21,0.44
								c-0.07,0.11-0.17,0.21-0.32,0.29l-1.2,0.69c-0.11,0.06-0.19,0.07-0.26,0.03c-0.06-0.05-0.1-0.14-0.1-0.27
								c0-0.03,0.01-0.07,0.02-0.12c0.01-0.05,0.02-0.1,0.04-0.16L1509.79,1118.23z M1503.25,1126.26c0.02,0.38,0.07,0.64,0.15,0.79
								c0.08,0.15,0.23,0.16,0.44,0.04c0.22-0.13,0.36-0.31,0.44-0.55c0.08-0.24,0.13-0.57,0.16-0.96c0.03-0.51,0.03-1.01,0-1.48
								c-0.03-0.38-0.08-0.64-0.16-0.79c-0.08-0.14-0.23-0.16-0.44-0.03c-0.21,0.12-0.36,0.31-0.44,0.55
								c-0.08,0.25-0.13,0.57-0.15,0.97C1503.22,1125.29,1503.22,1125.78,1503.25,1126.26z M1512.92,1126.95
								c0.03,0.58,0.03,1.15,0,1.71c-0.03,0.46-0.08,0.91-0.17,1.35c-0.09,0.43-0.24,0.86-0.42,1.25c-0.19,0.4-0.42,0.76-0.71,1.1
								c-0.28,0.33-0.61,0.6-0.99,0.82c-0.39,0.22-0.71,0.33-1,0.33c-0.28,0-0.52-0.09-0.7-0.28c-0.19-0.18-0.32-0.44-0.42-0.76
								c-0.1-0.33-0.15-0.71-0.17-1.15c-0.02-0.29-0.03-0.57-0.03-0.82c0-0.26,0.01-0.56,0.03-0.89c0.02-0.46,0.08-0.91,0.17-1.35
								c0.1-0.44,0.24-0.86,0.42-1.26c0.18-0.4,0.42-0.76,0.7-1.09c0.28-0.33,0.61-0.6,1-0.83c0.38-0.22,0.71-0.32,0.99-0.32
								c0.28,0,0.52,0.09,0.7,0.28c0.19,0.19,0.33,0.44,0.42,0.77C1512.84,1126.13,1512.9,1126.51,1512.92,1126.95z
								 M1510.02,1130.21c0.02,0.38,0.08,0.64,0.16,0.79c0.08,0.15,0.23,0.16,0.44,0.03c0.21-0.12,0.36-0.31,0.44-0.55
								c0.08-0.24,0.13-0.57,0.15-0.97c0.03-0.51,0.03-1.01,0-1.48c-0.02-0.38-0.08-0.64-0.15-0.79c-0.08-0.14-0.23-0.16-0.44-0.04
								c-0.22,0.13-0.37,0.32-0.44,0.55c-0.08,0.24-0.14,0.57-0.16,0.96C1510,1129.24,1510,1129.73,1510.02,1130.21z"/>
						</g>
						<g id="XMLID_144_">
							<path id="XMLID_148_" style="fill:#2B7AED;" d="M1484.31,1109.94l-4.82-7.44c-5.29,8.99-9.33,19.74-11.4,30.72l7.8-0.6
								C1477.4,1124.5,1480.4,1116.58,1484.31,1109.94z"/>
							<path id="XMLID_147_" style="fill:#2B7AED;" d="M1497.92,1095.23v-12.61c-6.89,3.98-13.26,11.08-18.43,19.87l4.82,7.44
								C1488.13,1103.44,1492.82,1098.17,1497.92,1095.23z"/>
							<path id="XMLID_146_" style="fill:#2B7AED;" d="M1474.74,1144.3c0-3.85,0.41-7.79,1.14-11.68l-7.8,0.6
								c-0.99,5.27-1.53,10.6-1.53,15.81c0,5.21,0.54,9.91,1.53,14.04l7.8-8.4C1475.15,1151.62,1474.74,1148.15,1474.74,1144.3z"/>
							<path id="XMLID_145_" style="fill:#5E9CF7;" d="M1527.75,1098.77c-2.06-8.6-6.11-14.68-11.4-17.56
								c-5.18-2.81-11.54-2.56-18.44,1.41v12.61c5.09-2.94,9.79-3.09,13.61-1.01c3.91,2.12,6.9,6.6,8.43,12.95
								c0.73,3.05,1.14,6.52,1.14,10.37c0,3.85-0.41,7.79-1.14,11.68c-1.53,8.12-4.52,16.04-8.43,22.68
								c-3.82,6.49-8.52,11.76-13.61,14.7c-5.09,2.94-9.79,3.09-13.61,1.01c-3.91-2.12-6.9-6.6-8.43-12.95l-7.8,8.4
								c2.07,8.6,6.11,14.68,11.4,17.56c5.18,2.81,11.54,2.56,18.43-1.41c6.89-3.98,13.26-11.08,18.44-19.87
								c5.29-8.99,9.33-19.74,11.4-30.72c0.99-5.27,1.53-10.6,1.53-15.81C1529.28,1107.6,1528.74,1102.9,1527.75,1098.77z"/>
						</g>
					</g>
					<path style="fill:#455A64;" d="M1576.18,1064.25l146.18-84.4c3.94-2.27,7.13-0.66,7.13,3.61c0,4.26-3.19,9.56-7.13,11.83
						l-146.18,84.4c-3.94,2.27-7.13,0.66-7.12-3.61C1569.05,1071.82,1572.24,1066.52,1576.18,1064.25z"/>
					<path style="fill:#E0E0E0;" d="M1576.18,1095.37l253.13-146.1c3.94-2.27,7.13-0.66,7.13,3.61c0,4.26-3.19,9.56-7.13,11.83
						l-253.14,146.1c-3.94,2.27-7.13,0.66-7.12-3.61C1569.05,1102.94,1572.24,1097.64,1576.18,1095.37z"/>
				</g>
				<g>
					<path style="fill:#F0F0F0;" d="M1963.84,933.06l480.46-277.39c3.94-2.27,7.13-7.8,7.13-12.34V520.84
						c0-4.54-3.19-6.39-7.13-4.11l-480.46,277.34c-3.94,2.27-7.13,7.8-7.13,12.34v122.53
						C1956.71,933.49,1959.9,935.33,1963.84,933.06z"/>
					<g id="XMLID_138_">
						<g id="XMLID_142_">
							<path style="fill:#455A64;" d="M2008.09,835.39c0-0.87,0.12-1.72,0.36-2.55c0.24-0.84,0.55-1.61,0.96-2.32
								c0.4-0.71,0.86-1.34,1.38-1.89c0.51-0.56,1.04-0.99,1.59-1.31c0.55-0.31,1.07-0.49,1.59-0.53c0.51-0.05,0.97,0.05,1.37,0.31
								c0.4,0.25,0.72,0.65,0.96,1.22c0.24,0.56,0.36,1.27,0.36,2.14c0,0.44-0.03,0.86-0.1,1.26c-0.06,0.41-0.15,0.8-0.25,1.18
								c-0.1,0.39-0.21,0.76-0.34,1.12c-0.12,0.36-0.25,0.72-0.38,1.06l-2.77,7.51c-0.05,0.11-0.11,0.23-0.16,0.38
								c-0.06,0.14-0.16,0.26-0.3,0.34l-2.33,1.34c-0.08,0.05-0.15,0.04-0.21-0.03c-0.06-0.06-0.08-0.17-0.08-0.3
								c0-0.08,0.01-0.14,0.03-0.19c0.01-0.05,0.03-0.1,0.05-0.14l1.87-5.13c-0.48,0.17-0.94,0.24-1.37,0.19
								c-0.44-0.04-0.82-0.21-1.15-0.48c-0.33-0.29-0.59-0.68-0.78-1.2S2008.09,836.19,2008.09,835.39z M2013.95,832.01
								c0-0.3-0.05-0.55-0.13-0.74c-0.08-0.2-0.21-0.34-0.35-0.43c-0.15-0.09-0.32-0.13-0.51-0.11c-0.19,0.01-0.39,0.07-0.59,0.19
								c-0.21,0.12-0.4,0.28-0.59,0.49c-0.19,0.21-0.36,0.44-0.5,0.7c-0.15,0.25-0.26,0.53-0.35,0.83c-0.09,0.3-0.13,0.6-0.13,0.89
								c0,0.3,0.04,0.55,0.13,0.75c0.09,0.19,0.21,0.34,0.35,0.43c0.14,0.09,0.31,0.13,0.5,0.11c0.19-0.01,0.39-0.07,0.59-0.19
								c0.21-0.12,0.4-0.28,0.59-0.49c0.19-0.21,0.35-0.44,0.51-0.7c0.14-0.26,0.26-0.54,0.35-0.83
								C2013.9,832.61,2013.95,832.31,2013.95,832.01z"/>
							<path style="fill:#455A64;" d="M2022.15,821.67c0.73-0.42,1.36-0.62,1.88-0.59c0.53,0.02,0.96,0.22,1.3,0.58
								c0.35,0.35,0.6,0.85,0.78,1.49c0.17,0.65,0.26,1.36,0.3,2.15c0.02,0.64,0.03,1.3,0.03,2.01c0,0.71-0.01,1.37-0.03,2
								c-0.03,0.83-0.13,1.66-0.3,2.5c-0.17,0.84-0.43,1.64-0.78,2.39c-0.35,0.75-0.78,1.45-1.3,2.08
								c-0.53,0.63-1.16,1.16-1.88,1.58c-0.73,0.42-1.36,0.62-1.89,0.59c-0.52-0.03-0.96-0.22-1.3-0.57
								c-0.35-0.36-0.6-0.86-0.78-1.5c-0.17-0.64-0.26-1.36-0.3-2.15c-0.02-0.61-0.03-1.26-0.03-1.96c0-0.71,0.01-1.38,0.03-2.04
								c0.03-0.83,0.13-1.66,0.3-2.5c0.17-0.84,0.43-1.64,0.78-2.39c0.35-0.76,0.78-1.46,1.3-2.09
								C2020.79,822.63,2021.41,822.1,2022.15,821.67z M2023.7,830.76c0.04-1.3,0.04-2.56,0-3.77c-0.01-0.37-0.05-0.69-0.1-0.97
								c-0.06-0.28-0.14-0.51-0.26-0.67c-0.12-0.16-0.27-0.26-0.47-0.28c-0.19-0.02-0.44,0.05-0.73,0.22
								c-0.3,0.17-0.54,0.38-0.73,0.62c-0.2,0.25-0.35,0.52-0.47,0.82c-0.12,0.3-0.2,0.62-0.26,0.97c-0.05,0.35-0.09,0.71-0.1,1.09
								c-0.05,1.27-0.05,2.53,0,3.77c0.01,0.37,0.04,0.7,0.09,0.98c0.05,0.29,0.14,0.51,0.26,0.67c0.12,0.16,0.28,0.26,0.48,0.28
								c0.19,0.02,0.44-0.05,0.73-0.23c0.29-0.17,0.53-0.37,0.73-0.62c0.2-0.25,0.35-0.52,0.48-0.83c0.12-0.3,0.21-0.63,0.26-0.97
								C2023.66,831.5,2023.7,831.14,2023.7,830.76z"/>
							<path style="fill:#455A64;" d="M2032.25,819.15c0.03,0.59,0.03,1.15,0,1.71c-0.02,0.46-0.07,0.91-0.17,1.34
								c-0.1,0.44-0.24,0.86-0.42,1.26c-0.19,0.4-0.43,0.77-0.71,1.1c-0.28,0.32-0.62,0.6-1,0.82c-0.38,0.22-0.71,0.33-0.99,0.33
								c-0.28,0-0.52-0.1-0.7-0.28c-0.19-0.19-0.33-0.44-0.42-0.77c-0.1-0.32-0.15-0.71-0.18-1.14c-0.01-0.29-0.03-0.56-0.03-0.83
								c0-0.26,0.01-0.56,0.03-0.88c0.03-0.46,0.08-0.91,0.18-1.35c0.1-0.43,0.24-0.86,0.42-1.25c0.18-0.4,0.42-0.76,0.7-1.09
								c0.28-0.33,0.61-0.6,0.99-0.82c0.38-0.22,0.71-0.33,1-0.33c0.28,0.01,0.51,0.1,0.69,0.29c0.19,0.18,0.33,0.44,0.43,0.76
								C2032.18,818.33,2032.23,818.7,2032.25,819.15z M2035.9,814.39c0.06-0.17,0.14-0.32,0.21-0.44c0.07-0.12,0.18-0.22,0.31-0.3
								l1.2-0.69c0.11-0.06,0.19-0.06,0.26-0.03c0.06,0.05,0.1,0.14,0.1,0.27c0,0.03-0.01,0.07-0.02,0.13
								c-0.01,0.05-0.02,0.1-0.04,0.16l-7.21,18.78c-0.06,0.17-0.14,0.32-0.21,0.44c-0.07,0.11-0.18,0.21-0.31,0.29l-1.2,0.69
								c-0.11,0.06-0.19,0.07-0.26,0.03c-0.06-0.05-0.1-0.14-0.1-0.27c0-0.03,0.01-0.07,0.02-0.12c0.01-0.05,0.02-0.1,0.04-0.16
								L2035.9,814.39z M2029.36,822.41c0.02,0.38,0.07,0.64,0.15,0.79c0.08,0.15,0.23,0.16,0.44,0.04
								c0.22-0.13,0.36-0.31,0.44-0.55c0.08-0.24,0.14-0.57,0.16-0.96c0.03-0.51,0.03-1.01,0-1.49c-0.03-0.38-0.08-0.64-0.16-0.79
								c-0.08-0.14-0.23-0.16-0.44-0.03c-0.21,0.12-0.36,0.31-0.44,0.55c-0.08,0.25-0.13,0.57-0.15,0.97
								C2029.33,821.44,2029.33,821.94,2029.36,822.41z M2039.03,823.11c0.03,0.58,0.03,1.15,0,1.71c-0.03,0.46-0.08,0.91-0.17,1.35
								c-0.09,0.43-0.24,0.86-0.42,1.25c-0.19,0.4-0.42,0.76-0.71,1.1c-0.28,0.33-0.61,0.6-0.99,0.82c-0.39,0.22-0.71,0.33-1,0.33
								c-0.28,0-0.52-0.09-0.7-0.28c-0.19-0.18-0.33-0.44-0.42-0.76c-0.1-0.33-0.15-0.71-0.17-1.15c-0.02-0.29-0.03-0.57-0.03-0.82
								c0-0.26,0.01-0.56,0.03-0.89c0.02-0.46,0.08-0.91,0.17-1.35c0.1-0.44,0.24-0.86,0.42-1.26c0.18-0.39,0.42-0.76,0.7-1.09
								c0.28-0.33,0.61-0.6,1-0.83c0.38-0.22,0.71-0.32,0.99-0.32c0.28,0,0.51,0.09,0.7,0.28c0.19,0.19,0.33,0.44,0.42,0.77
								C2038.95,822.29,2039.01,822.67,2039.03,823.11z M2036.14,826.37c0.02,0.38,0.08,0.64,0.16,0.79
								c0.08,0.15,0.22,0.16,0.44,0.03c0.21-0.12,0.36-0.31,0.44-0.55c0.08-0.24,0.13-0.57,0.15-0.97c0.03-0.51,0.03-1.01,0-1.49
								c-0.01-0.38-0.07-0.64-0.15-0.79c-0.08-0.14-0.23-0.16-0.44-0.04c-0.22,0.13-0.37,0.32-0.44,0.55
								c-0.08,0.24-0.14,0.57-0.16,0.96C2036.11,825.4,2036.11,825.89,2036.14,826.37z"/>
						</g>
						<g id="XMLID_139_">
							<path id="XMLID_141_" style="fill:#2B7AED;" d="M2023.6,791.64v-12.61c-6.89,3.98-13.26,11.09-18.43,19.87l4.82,7.44
								C2013.82,799.85,2018.51,794.58,2023.6,791.64z"/>
							<path id="XMLID_140_" style="fill:#5E9CF7;" d="M2053.44,795.18c-2.06-8.6-6.11-14.68-11.4-17.56
								c-5.18-2.81-11.54-2.57-18.43,1.41v12.61c5.09-2.94,9.79-3.09,13.61-1.01c3.91,2.12,6.9,6.6,8.43,12.95
								c0.73,3.05,1.14,6.52,1.14,10.37c0,3.85-0.41,7.79-1.14,11.68c-1.52,8.11-4.51,16.02-8.41,22.66
								c-3.82,6.48-8.54,11.79-13.63,14.73c-5.09,2.94-9.79,3.09-13.61,1.01c-3.91-2.12-6.9-6.6-8.43-12.95
								c-0.73-3.05-1.14-6.52-1.14-10.37c0-3.85,0.41-7.79,1.14-11.68c1.53-8.12,4.52-16.04,8.43-22.68l-4.82-7.44
								c-5.29,8.99-9.33,19.74-11.4,30.72c-0.99,5.27-1.53,10.6-1.53,15.81c0,5.21,0.54,9.91,1.53,14.04
								c2.06,8.6,6.11,14.68,11.4,17.56c5.18,2.81,11.54,2.57,18.43-1.41c6.89-3.98,13.26-11.09,18.43-19.87l-0.01-0.02l0.01,0.02
								c5.29-8.99,9.33-19.74,11.4-30.72c0.99-5.27,1.53-10.6,1.53-15.81C2054.97,804,2054.43,799.3,2053.44,795.18z"/>
						</g>
					</g>
					<path style="fill:#455A64;" d="M2101.74,760.65l146.18-84.4c3.94-2.27,7.13-0.66,7.13,3.61s-3.19,9.56-7.13,11.83l-146.18,84.4
						c-3.94,2.27-7.13,0.66-7.12-3.61S2097.81,762.93,2101.74,760.65z"/>
					<path style="fill:#E0E0E0;" d="M2101.74,791.77l253.13-146.1c3.93-2.27,7.13-0.66,7.13,3.61s-3.19,9.56-7.13,11.83
						l-253.14,146.1c-3.94,2.27-7.13,0.66-7.12-3.61C2094.62,799.34,2097.81,794.04,2101.74,791.77z"/>
				</g>
			</g>
			<g>
				<path style="fill:#455A64;" d="M1491.43,1267.7l102.53-59.37c3.94-2.27,7.13-0.66,7.13,3.61c0,4.26-3.19,9.56-7.13,11.83
					l-102.53,59.37c-3.93,2.27-7.12,0.66-7.12-3.61C1484.31,1275.27,1487.5,1269.98,1491.43,1267.7z"/>
				<path style="fill:#E0E0E0;" d="M2447.86,753.86h0.03H2447.86 M2444.84,755.6l0,783.09c0,2.19-1.94,5.55-3.83,6.64
					l-999.06,576.78l0-783.09c0-2.19,1.94-5.55,3.83-6.64l12.49-7.21c5.94-3.43,10.42-11.19,10.42-18.04v-45.29
					c0-2.19,1.93-5.55,3.83-6.64l143.43-82.79v42.1c0,7.66,5.3,11.67,10.53,11.67c2.16,0,4.34-0.62,6.47-1.85L2444.84,755.6
					 M1618.97,1170.67h0.03H1618.97 M2447.48,747.32c-0.96,0-2.04,0.31-3.18,0.97l-814.64,470.33c-1.14,0.66-2.22,0.97-3.18,0.97
					c-2.34,0-3.94-1.86-3.94-5.09v-45.29c0-3.22-1.61-5.09-3.94-5.09c-0.96,0-2.04,0.31-3.18,0.97l-146.18,84.4
					c-3.94,2.27-7.13,7.8-7.13,12.34v45.29c0,4.54-3.19,10.07-7.13,12.34l-12.49,7.21c-3.94,2.27-7.13,7.8-7.13,12.34l0,786.29
					c0,3.22,1.61,5.09,3.94,5.09c0.96,0,2.04-0.31,3.18-0.97l1001.81-578.39c3.94-2.27,7.13-7.8,7.13-12.34l0-786.29
					C2451.42,749.18,2449.81,747.32,2447.48,747.32L2447.48,747.32z"/>
				<g>
					<path style="fill:#E0E0E0;" d="M1499.78,1373.21c-1.25,0-2.44-0.3-3.49-0.91c-2.37-1.37-3.73-4.09-3.73-7.46v-29.86
						c0-5.68,3.85-12.35,8.77-15.19l79.45-45.81c2.93-1.69,5.96-1.86,8.33-0.49c2.37,1.37,3.73,4.09,3.73,7.46v29.86
						c0,5.68-3.85,12.35-8.78,15.19l-79.44,45.81C1503,1372.74,1501.34,1373.21,1499.78,1373.21z M1504.62,1325.49
						c-2.92,1.68-5.48,6.12-5.48,9.49v29.86c0,1.13,0.31,1.68,0.44,1.76c0.14,0.07,0.77,0.06,1.75-0.5l79.45-45.81
						c2.92-1.68,5.48-6.12,5.48-9.49v-29.86c0-1.13-0.31-1.68-0.44-1.76c-0.13-0.08-0.77-0.06-1.75,0.49L1504.62,1325.49z"/>
					<path style="fill:#E0E0E0;" d="M1509.34,1337.79l51.78-30.05c2.62-1.51,4.75-0.44,4.75,2.4c0,2.84-2.13,6.37-4.75,7.89
						l-51.78,30.05c-2.62,1.51-4.75,0.44-4.75-2.4C1504.59,1342.83,1506.72,1339.3,1509.34,1337.79z"/>
					<g>
						<path style="fill:#455A64;" d="M1573.16,1302.82l4.29,6.09c0.16,0.23,0.48,0.05,0.65-0.37l4.29-11.05
							c0.21-0.53,0.02-1.02-0.32-0.83l-8.58,4.96C1573.15,1301.81,1572.95,1302.52,1573.16,1302.82z"/>
					</g>
				</g>
				<g>
					<g>
						<g>
							<path style="fill:#5E9CF7;" d="M1488.84,1662.49c3.79-2.19,6.87-0.41,6.87,3.97s-3.08,9.71-6.87,11.9
								c-3.79,2.19-6.87,0.41-6.87-3.97C1481.97,1670.01,1485.05,1664.68,1488.84,1662.49z"/>
						</g>
						<g>
							<path style="fill:#5E9CF7;" d="M1542.32,1600.74c3.79-2.19,6.87-0.41,6.87,3.97s-3.08,9.71-6.87,11.9s-6.87,0.41-6.87-3.97
								S1538.52,1602.93,1542.32,1600.74z"/>
						</g>
						<g>
							<path style="fill:#5E9CF7;" d="M1595.79,1569.87c3.79-2.19,6.87-0.41,6.87,3.97c0,4.38-3.08,9.71-6.87,11.9
								s-6.87,0.41-6.87-3.97S1592,1572.06,1595.79,1569.87z"/>
						</g>
						<g>
							<path style="fill:#5E9CF7;" d="M1649.27,1552.55c3.79-2.19,6.87-0.41,6.87,3.97s-3.08,9.71-6.87,11.9s-6.87,0.41-6.87-3.97
								S1645.48,1554.74,1649.27,1552.55z"/>
						</g>
						<g>
							<path style="fill:#5E9CF7;" d="M1702.81,1496.95c3.79-2.19,6.87-0.41,6.87,3.97c0,4.38-3.08,9.71-6.87,11.9
								c-3.79,2.19-6.87,0.41-6.87-3.97C1695.94,1504.47,1699.01,1499.14,1702.81,1496.95z"/>
						</g>
						<g>
							<path style="fill:#5E9CF7;" d="M1756.22,1477.24c3.79-2.19,6.87-0.41,6.87,3.97s-3.08,9.71-6.87,11.9s-6.87,0.41-6.87-3.97
								S1752.43,1479.43,1756.22,1477.24z"/>
						</g>
						<g>
							<path style="fill:#5E9CF7;" d="M1809.69,1415.49c3.79-2.19,6.87-0.41,6.87,3.97c0,4.38-3.08,9.71-6.87,11.9
								c-3.79,2.19-6.87,0.41-6.87-3.97C1802.82,1423,1805.9,1417.68,1809.69,1415.49z"/>
						</g>
						<g>
							<path style="fill:#5E9CF7;" d="M1863.18,1400.05c3.79-2.19,6.87-0.41,6.87,3.97c0,4.38-3.08,9.71-6.87,11.9
								s-6.87,0.41-6.87-3.97S1859.38,1402.24,1863.18,1400.05z"/>
						</g>
						<g>
							<path style="fill:#5E9CF7;" d="M1916.65,1230.24c3.79-2.19,6.87-0.41,6.87,3.97c0,4.38-3.08,9.71-6.87,11.9
								s-6.87,0.41-6.87-3.97S1912.86,1232.43,1916.65,1230.24z"/>
						</g>
						<g>
							<path style="fill:#5E9CF7;" d="M1970.13,1322.87c3.79-2.19,6.87-0.41,6.87,3.97s-3.08,9.71-6.87,11.9
								c-3.79,2.19-6.87,0.41-6.87-3.97C1963.26,1330.38,1966.34,1325.06,1970.13,1322.87z"/>
						</g>
						<g>
							<path style="fill:#5E9CF7;" d="M2023.61,1322.87c3.79-2.19,6.87-0.41,6.87,3.97s-3.08,9.71-6.87,11.9
								c-3.79,2.19-6.87,0.41-6.87-3.97C2016.74,1330.38,2019.81,1325.06,2023.61,1322.87z"/>
						</g>
						<g>
							<path style="fill:#5E9CF7;" d="M2077.08,1322.87c3.79-2.19,6.87-0.41,6.87,3.97s-3.08,9.71-6.87,11.9
								c-3.79,2.19-6.87,0.41-6.87-3.97S2073.29,1325.06,2077.08,1322.87z"/>
						</g>
						<g>
							<path style="fill:#5E9CF7;" d="M2130.56,1230.24c3.79-2.19,6.87-0.41,6.87,3.97s-3.08,9.71-6.87,11.9
								c-3.79,2.19-6.87,0.41-6.87-3.97S2126.76,1232.43,2130.56,1230.24z"/>
						</g>
						<g>
							<path style="fill:#5E9CF7;" d="M2184.04,1212.5c3.79-2.19,6.87-0.41,6.87,3.97s-3.08,9.71-6.87,11.9
								c-3.79,2.19-6.87,0.41-6.87-3.97S2180.24,1214.69,2184.04,1212.5z"/>
						</g>
						<g>
							<path style="fill:#5E9CF7;" d="M2237.7,1137.62c3.79-2.19,6.87-0.41,6.87,3.97c0,4.38-3.08,9.71-6.87,11.9
								c-3.79,2.19-6.87,0.41-6.87-3.97S2233.9,1139.81,2237.7,1137.62z"/>
						</g>
						<g>
							
								<ellipse transform="matrix(0.5 -0.8661 0.8661 0.5 153.4941 2556.9456)" style="fill:#5E9CF7;" cx="2290.99" cy="1145.55" rx="9.72" ry="5.61"/>
						</g>
						<g>
							
								<ellipse transform="matrix(0.5 -0.8661 0.8661 0.5 180.2347 2603.2588)" style="fill:#5E9CF7;" cx="2344.47" cy="1145.55" rx="9.72" ry="5.61"/>
						</g>
						<g>
							<path style="fill:#5E9CF7;" d="M2397.94,1106.74c3.79-2.19,6.87-0.41,6.87,3.97s-3.08,9.71-6.87,11.9s-6.87,0.41-6.87-3.97
								S2394.15,1108.93,2397.94,1106.74z"/>
						</g>
					</g>
					<g>
						<path style="fill:#5E9CF7;" d="M1488.7,1672.15c-0.39,0-0.77-0.13-1.08-0.4c-0.69-0.6-0.76-1.63-0.16-2.32l54-62.05
							c0.12-0.14,0.26-0.26,0.42-0.35l53.09-30.65l53.4-17.33l53.19-55.31c0.17-0.18,0.39-0.32,0.62-0.4l53.08-19.56l53.21-61.44
							c0.21-0.24,0.48-0.41,0.79-0.5l52.62-15.19l53.21-168.97c0.19-0.62,0.74-1.07,1.39-1.14c0.6-0.07,1.28,0.24,1.61,0.81
							l52.99,91.8l52.66-0.07l52.4,0.07l53-91.8c0.21-0.35,0.53-0.61,0.91-0.74l52.97-17.58l53.17-74.44
							c0.31-0.43,0.8-0.69,1.34-0.69l106.51,0l53.1-30.66c0.76-0.46,1.78-0.19,2.25,0.6c0.45,0.79,0.18,1.79-0.6,2.25l-53.48,30.88
							c-0.25,0.14-0.53,0.22-0.82,0.22l-106.1,0l-52.99,74.19c-0.2,0.28-0.49,0.49-0.82,0.6l-52.89,17.55l-53.16,92.08
							c-0.3,0.51-0.84,0.82-1.43,0.82l0,0l-53.35-0.07l-53.61,0.07l0,0c-0.58,0-1.13-0.32-1.43-0.82l-51.6-89.38l-52.35,166.24
							c-0.17,0.52-0.58,0.93-1.11,1.09l-53,15.3l-53.17,61.39c-0.19,0.21-0.42,0.37-0.67,0.47l-53.12,19.58l-53.21,55.33
							c-0.19,0.2-0.42,0.34-0.68,0.42l-53.48,17.32l-52.54,30.37l-53.82,61.85C1489.61,1671.96,1489.16,1672.15,1488.7,1672.15z"/>
					</g>
				</g>
				<g>
					<path style="fill:#E0E0E0;" d="M1488.84,1704.59c-1.14,0-2.24-0.59-2.85-1.65c-0.91-1.57-0.37-3.59,1.21-4.5l909.11-524.87
						c1.57-0.9,3.59-0.38,4.49,1.21c0.91,1.58,0.37,3.59-1.2,4.5l-909.11,524.87C1489.97,1704.45,1489.4,1704.59,1488.84,1704.59z"
						/>
					<g>
						<g>
							<g>
								<g>
									<path style="fill:#2B7AED;" d="M1488.84,1631.61c3.79-2.19,6.87-0.41,6.87,3.97c0,4.38-3.08,9.71-6.87,11.9
										s-6.87,0.41-6.87-3.97S1485.05,1633.81,1488.84,1631.61z"/>
								</g>
								<g>
									<path style="fill:#2B7AED;" d="M1542.31,1538.99c3.79-2.19,6.87-0.41,6.87,3.97s-3.08,9.71-6.87,11.9
										c-3.79,2.19-6.87,0.41-6.87-3.97C1535.44,1546.51,1538.52,1541.18,1542.31,1538.99z"/>
								</g>
								<g>
									
										<ellipse transform="matrix(0.5 -0.8661 0.8661 0.5 -531.7354 2149.7927)" style="fill:#2B7AED;" cx="1595.79" cy="1535.36" rx="9.72" ry="5.61"/>
								</g>
								<g>
									<path style="fill:#2B7AED;" d="M1649.27,1415.49c3.79-2.19,6.87-0.41,6.87,3.97c0,4.38-3.08,9.71-6.87,11.9
										c-3.79,2.19-6.87,0.41-6.87-3.97C1642.4,1423,1645.47,1417.68,1649.27,1415.49z"/>
								</g>
								<g>
									<path style="fill:#2B7AED;" d="M1702.81,1446.37c3.79-2.19,6.87-0.41,6.87,3.97c0,4.38-3.08,9.71-6.87,11.9
										c-3.79,2.19-6.87,0.41-6.87-3.97S1699.01,1448.56,1702.81,1446.37z"/>
								</g>
								<g>
									<path style="fill:#2B7AED;" d="M1756.23,1430.93c3.79-2.19,6.87-0.41,6.87,3.97c0,4.38-3.08,9.71-6.87,11.9
										c-3.79,2.19-6.87,0.41-6.87-3.97C1749.36,1438.45,1752.44,1433.12,1756.23,1430.93z"/>
								</g>
								<g>
									<path style="fill:#2B7AED;" d="M1809.69,1384.62c3.79-2.19,6.87-0.41,6.87,3.97s-3.08,9.71-6.87,11.9
										c-3.79,2.19-6.87,0.41-6.87-3.97S1805.9,1386.81,1809.69,1384.62z"/>
								</g>
								<g>
									<path style="fill:#2B7AED;" d="M1863.17,1322.87c3.79-2.19,6.87-0.41,6.87,3.97s-3.08,9.71-6.87,11.9
										c-3.79,2.19-6.87,0.41-6.87-3.97C1856.3,1330.38,1859.38,1325.06,1863.17,1322.87z"/>
								</g>
								<g>
									<path style="fill:#2B7AED;" d="M1916.65,1307.43c3.79-2.19,6.87-0.41,6.87,3.97c0,4.38-3.08,9.71-6.87,11.9
										s-6.87,0.41-6.87-3.97S1912.86,1309.62,1916.65,1307.43z"/>
								</g>
								<g>
									<path style="fill:#2B7AED;" d="M1970.13,1261.12c3.79-2.19,6.87-0.41,6.87,3.97s-3.08,9.71-6.87,11.9s-6.87,0.41-6.87-3.97
										S1966.33,1263.31,1970.13,1261.12z"/>
								</g>
								<g>
									<path style="fill:#2B7AED;" d="M2023.6,1261.12c3.79-2.19,6.87-0.41,6.87,3.97c0,4.38-3.08,9.71-6.87,11.9
										s-6.87,0.41-6.87-3.97S2019.81,1263.31,2023.6,1261.12z"/>
								</g>
								<g>
									<path style="fill:#2B7AED;" d="M2077.08,1137.62c3.79-2.19,6.87-0.41,6.87,3.97s-3.08,9.71-6.87,11.9
										c-3.79,2.19-6.87,0.41-6.87-3.97C2070.21,1145.14,2073.29,1139.81,2077.08,1137.62z"/>
								</g>
								<g>
									<path style="fill:#2B7AED;" d="M2130.56,1198.93c3.79-2.19,6.87-0.41,6.87,3.97s-3.08,9.71-6.87,11.9
										c-3.79,2.19-6.87,0.41-6.87-3.97C2123.69,1206.45,2126.77,1201.12,2130.56,1198.93z"/>
								</g>
								<g>
									<path style="fill:#2B7AED;" d="M2184.04,1137.62c3.79-2.19,6.87-0.41,6.87,3.97s-3.08,9.71-6.87,11.9
										c-3.79,2.19-6.87,0.41-6.87-3.97S2180.24,1139.81,2184.04,1137.62z"/>
								</g>
								<g>
									<path style="fill:#2B7AED;" d="M2237.51,1106.74c3.79-2.19,6.87-0.41,6.87,3.97s-3.08,9.71-6.87,11.9
										c-3.79,2.19-6.87,0.41-6.87-3.97S2233.72,1108.93,2237.51,1106.74z"/>
								</g>
								<g>
									<path style="fill:#2B7AED;" d="M2290.99,1106.74c3.79-2.19,6.87-0.42,6.87,3.97s-3.08,9.71-6.87,11.9
										c-3.79,2.19-6.87,0.41-6.87-3.97C2284.12,1114.26,2287.19,1108.93,2290.99,1106.74z"/>
								</g>
								<g>
									<path style="fill:#2B7AED;" d="M2344.47,1075.87c3.79-2.19,6.87-0.41,6.87,3.97s-3.08,9.71-6.87,11.9
										c-3.79,2.19-6.87,0.41-6.87-3.97S2340.67,1078.06,2344.47,1075.87z"/>
								</g>
								<g>
									<path style="fill:#2B7AED;" d="M2397.95,1075.87c3.79-2.19,6.87-0.41,6.87,3.97s-3.08,9.71-6.87,11.9s-6.87,0.41-6.87-3.97
										S2394.15,1078.06,2397.95,1075.87z"/>
								</g>
							</g>
							<g>
								<path style="fill:#2B7AED;" d="M1488.84,1641.2c-0.28,0-0.57-0.07-0.82-0.22c-0.79-0.46-1.05-1.46-0.6-2.24l53.86-92.85
									c0.23-0.4,0.62-0.69,1.08-0.78l52.3-11.17l53.12-111.21c0.2-0.41,0.56-0.73,1-0.86c0.45-0.14,0.92-0.08,1.31,0.15
									l52.94,30.56l52.4-15.18l53.13-46.03l53.38-61.62c0.21-0.24,0.48-0.41,0.78-0.5l53.14-15.34l53.2-46.07
									c0.3-0.26,0.68-0.4,1.08-0.4h52.4l53.05-122.51c0.22-0.52,0.7-0.89,1.26-0.97c0.55-0.09,1.12,0.12,1.5,0.55l52.23,60.31
									l52.23-60.31c0.12-0.14,0.26-0.26,0.42-0.35l53.66-30.98c0.25-0.14,0.53-0.22,0.82-0.22h53.03l52.91-30.54
									c0.25-0.14,0.53-0.22,0.82-0.22h53.48c0.91,0,1.65,0.74,1.65,1.65c0,0.91-0.74,1.65-1.65,1.65h-53.04l-52.91,30.54
									c-0.25,0.14-0.53,0.22-0.82,0.22h-53.03l-53.05,30.62l-53.29,61.54c-0.63,0.72-1.86,0.72-2.49,0l-51.76-59.77l-52.43,121.1
									c-0.26,0.6-0.86,0.99-1.51,0.99h-52.87l-53.01,45.91c-0.18,0.16-0.39,0.27-0.62,0.34l-53.01,15.3l-53.23,61.42l-53.57,46.44
									c-0.18,0.15-0.39,0.27-0.62,0.34l-53.42,15.47c-0.43,0.12-0.9,0.06-1.28-0.16l-52-30.02l-52.71,110.34
									c-0.22,0.46-0.64,0.79-1.14,0.9l-52.38,11.19l-53.49,92.21C1489.96,1640.9,1489.41,1641.2,1488.84,1641.2z"/>
							</g>
						</g>
						<g style="opacity:0.3;">
							<g>
								<g>
									<path style="fill:#2B7AED;" d="M1488.84,1631.61c3.79-2.19,6.87-0.41,6.87,3.97c0,4.38-3.08,9.71-6.87,11.9
										s-6.87,0.41-6.87-3.97S1485.05,1633.81,1488.84,1631.61z"/>
								</g>
								<g>
									<path style="fill:#2B7AED;" d="M1542.31,1538.99c3.79-2.19,6.87-0.41,6.87,3.97s-3.08,9.71-6.87,11.9
										c-3.79,2.19-6.87,0.41-6.87-3.97C1535.44,1546.51,1538.52,1541.18,1542.31,1538.99z"/>
								</g>
								<g>
									
										<ellipse transform="matrix(0.5 -0.8661 0.8661 0.5 -531.7354 2149.7927)" style="fill:#2B7AED;" cx="1595.79" cy="1535.36" rx="9.72" ry="5.61"/>
								</g>
								<g>
									<path style="fill:#2B7AED;" d="M1649.27,1415.49c3.79-2.19,6.87-0.41,6.87,3.97c0,4.38-3.08,9.71-6.87,11.9
										c-3.79,2.19-6.87,0.41-6.87-3.97C1642.4,1423,1645.47,1417.68,1649.27,1415.49z"/>
								</g>
								<g>
									<path style="fill:#2B7AED;" d="M1702.81,1446.37c3.79-2.19,6.87-0.41,6.87,3.97c0,4.38-3.08,9.71-6.87,11.9
										c-3.79,2.19-6.87,0.41-6.87-3.97S1699.01,1448.56,1702.81,1446.37z"/>
								</g>
								<g>
									<path style="fill:#2B7AED;" d="M1756.23,1430.93c3.79-2.19,6.87-0.41,6.87,3.97c0,4.38-3.08,9.71-6.87,11.9
										c-3.79,2.19-6.87,0.41-6.87-3.97C1749.36,1438.45,1752.44,1433.12,1756.23,1430.93z"/>
								</g>
								<g>
									<path style="fill:#2B7AED;" d="M1809.69,1384.62c3.79-2.19,6.87-0.41,6.87,3.97s-3.08,9.71-6.87,11.9
										c-3.79,2.19-6.87,0.41-6.87-3.97S1805.9,1386.81,1809.69,1384.62z"/>
								</g>
								<g>
									<path style="fill:#2B7AED;" d="M1863.17,1322.87c3.79-2.19,6.87-0.41,6.87,3.97s-3.08,9.71-6.87,11.9
										c-3.79,2.19-6.87,0.41-6.87-3.97C1856.3,1330.38,1859.38,1325.06,1863.17,1322.87z"/>
								</g>
								<g>
									<path style="fill:#2B7AED;" d="M1916.65,1307.43c3.79-2.19,6.87-0.41,6.87,3.97c0,4.38-3.08,9.71-6.87,11.9
										s-6.87,0.41-6.87-3.97S1912.86,1309.62,1916.65,1307.43z"/>
								</g>
								<g>
									<path style="fill:#2B7AED;" d="M1970.13,1261.12c3.79-2.19,6.87-0.41,6.87,3.97s-3.08,9.71-6.87,11.9s-6.87,0.41-6.87-3.97
										S1966.33,1263.31,1970.13,1261.12z"/>
								</g>
								<g>
									<path style="fill:#2B7AED;" d="M2023.6,1261.12c3.79-2.19,6.87-0.41,6.87,3.97c0,4.38-3.08,9.71-6.87,11.9
										s-6.87,0.41-6.87-3.97S2019.81,1263.31,2023.6,1261.12z"/>
								</g>
								<g>
									<path style="fill:#2B7AED;" d="M2077.08,1137.62c3.79-2.19,6.87-0.41,6.87,3.97s-3.08,9.71-6.87,11.9
										c-3.79,2.19-6.87,0.41-6.87-3.97C2070.21,1145.14,2073.29,1139.81,2077.08,1137.62z"/>
								</g>
								<g>
									<path style="fill:#2B7AED;" d="M2130.56,1198.93c3.79-2.19,6.87-0.41,6.87,3.97s-3.08,9.71-6.87,11.9
										c-3.79,2.19-6.87,0.41-6.87-3.97C2123.69,1206.45,2126.77,1201.12,2130.56,1198.93z"/>
								</g>
								<g>
									<path style="fill:#2B7AED;" d="M2184.04,1137.62c3.79-2.19,6.87-0.41,6.87,3.97s-3.08,9.71-6.87,11.9
										c-3.79,2.19-6.87,0.41-6.87-3.97S2180.24,1139.81,2184.04,1137.62z"/>
								</g>
								<g>
									<path style="fill:#2B7AED;" d="M2237.51,1106.74c3.79-2.19,6.87-0.41,6.87,3.97s-3.08,9.71-6.87,11.9
										c-3.79,2.19-6.87,0.41-6.87-3.97S2233.72,1108.93,2237.51,1106.74z"/>
								</g>
								<g>
									<path style="fill:#2B7AED;" d="M2290.99,1106.74c3.79-2.19,6.87-0.42,6.87,3.97s-3.08,9.71-6.87,11.9
										c-3.79,2.19-6.87,0.41-6.87-3.97C2284.12,1114.26,2287.19,1108.93,2290.99,1106.74z"/>
								</g>
								<g>
									<path style="fill:#2B7AED;" d="M2344.47,1075.87c3.79-2.19,6.87-0.41,6.87,3.97s-3.08,9.71-6.87,11.9
										c-3.79,2.19-6.87,0.41-6.87-3.97S2340.67,1078.06,2344.47,1075.87z"/>
								</g>
								<g>
									<path style="fill:#2B7AED;" d="M2397.95,1075.87c3.79-2.19,6.87-0.41,6.87,3.97s-3.08,9.71-6.87,11.9s-6.87,0.41-6.87-3.97
										S2394.15,1078.06,2397.95,1075.87z"/>
								</g>
							</g>
							<g>
								<path style="fill:#2B7AED;" d="M1488.84,1641.2c-0.28,0-0.57-0.07-0.82-0.22c-0.79-0.46-1.05-1.46-0.6-2.24l53.86-92.85
									c0.23-0.4,0.62-0.69,1.08-0.78l52.3-11.17l53.12-111.21c0.2-0.41,0.56-0.73,1-0.86c0.45-0.14,0.92-0.08,1.31,0.15
									l52.94,30.56l52.4-15.18l53.13-46.03l53.38-61.62c0.21-0.24,0.48-0.41,0.78-0.5l53.14-15.34l53.2-46.07
									c0.3-0.26,0.68-0.4,1.08-0.4h52.4l53.05-122.51c0.22-0.52,0.7-0.89,1.26-0.97c0.55-0.09,1.12,0.12,1.5,0.55l52.23,60.31
									l52.23-60.31c0.12-0.14,0.26-0.26,0.42-0.35l53.66-30.98c0.25-0.14,0.53-0.22,0.82-0.22h53.03l52.91-30.54
									c0.25-0.14,0.53-0.22,0.82-0.22h53.48c0.91,0,1.65,0.74,1.65,1.65c0,0.91-0.74,1.65-1.65,1.65h-53.04l-52.91,30.54
									c-0.25,0.14-0.53,0.22-0.82,0.22h-53.03l-53.05,30.62l-53.29,61.54c-0.63,0.72-1.86,0.72-2.49,0l-51.76-59.77l-52.43,121.1
									c-0.26,0.6-0.86,0.99-1.51,0.99h-52.87l-53.01,45.91c-0.18,0.16-0.39,0.27-0.62,0.34l-53.01,15.3l-53.23,61.42l-53.57,46.44
									c-0.18,0.15-0.39,0.27-0.62,0.34l-53.42,15.47c-0.43,0.12-0.9,0.06-1.28-0.16l-52-30.02l-52.71,110.34
									c-0.22,0.46-0.64,0.79-1.14,0.9l-52.38,11.19l-53.49,92.21C1489.96,1640.9,1489.41,1641.2,1488.84,1641.2z"/>
							</g>
						</g>
					</g>
					<g>
						<path style="fill:#E0E0E0;" d="M1516.85,1402.51l51.78-30.05c2.62-1.51,4.75-0.44,4.75,2.4c0,2.84-2.13,6.37-4.75,7.89
							l-51.78,30.05c-2.62,1.51-4.75,0.44-4.75-2.4C1512.1,1407.56,1514.23,1404.03,1516.85,1402.51z"/>
						<g>
							<path style="fill:#27DEBF;" d="M1488.84,1415.49c3.79-2.19,6.87-0.41,6.87,3.97s-3.08,9.71-6.87,11.9s-6.87,0.41-6.87-3.97
								S1485.05,1417.68,1488.84,1415.49z"/>
							<path style="opacity:0.3;" d="M1488.84,1415.49c3.79-2.19,6.87-0.41,6.87,3.97s-3.08,9.71-6.87,11.9s-6.87,0.41-6.87-3.97
								S1485.05,1417.68,1488.84,1415.49z"/>
						</g>
					</g>
					<g>
						<path style="fill:#E0E0E0;" d="M1516.85,1433.31l51.78-30.05c2.62-1.51,4.75-0.44,4.75,2.4c0,2.84-2.13,6.37-4.75,7.88
							l-51.78,30.05c-2.62,1.51-4.75,0.44-4.75-2.4C1512.1,1438.35,1514.23,1434.82,1516.85,1433.31z"/>
						<g>
							<path style="fill:#27DEBF;" d="M1488.84,1446.36c3.79-2.19,6.87-0.41,6.87,3.97c0,4.38-3.08,9.71-6.87,11.9
								s-6.87,0.41-6.87-3.97S1485.05,1448.56,1488.84,1446.36z"/>
						</g>
					</g>
				</g>
				<g>
					<g>
						<g>
							<path style="fill:#5E9CF7;" d="M1488.84,1857.76c-0.41,0-0.83-0.15-1.14-0.46c-0.66-0.64-0.67-1.68-0.04-2.33l27.14-27.91
								l26.64-3.37l26.9-34.76l26.93,3.7l26.16-23.62l26.71-16.01l27.23-37.74l27.04,8.48l25.98-23.22
								c0.67-0.61,1.71-0.55,2.33,0.13c0.6,0.68,0.55,1.72-0.13,2.33l-27.38,24.47l-26.56-8.32l-26.54,36.54l-26.74,15.99
								l-27.04,24.46l-26.56-3.64l-26.57,34.33l-26.84,3.4l-26.33,27.07C1489.7,1857.6,1489.27,1857.76,1488.84,1857.76z"/>
						</g>
						<g>
							<path style="fill:#455A64;" d="M1499.42,1767.47c0.17-0.18,0.41-0.38,0.68-0.6c0.28-0.23,0.51-0.39,0.73-0.51
								c1.46-0.84,2.81-1.26,4.04-1.22c1.24,0.03,2.31,0.43,3.21,1.22c0.89,0.79,1.6,1.92,2.11,3.39c0.51,1.48,0.76,3.24,0.76,5.28
								c0,2.05-0.26,4.11-0.76,6.16c-0.51,2.06-1.22,4.01-2.11,5.83c-0.9,1.83-1.97,3.47-3.21,4.93c-1.23,1.45-2.58,2.61-4.04,3.45
								c-1.47,0.84-2.82,1.25-4.06,1.22c-1.23-0.03-2.3-0.44-3.21-1.22c-0.9-0.78-1.6-1.92-2.11-3.39
								c-0.51-1.47-0.76-3.23-0.76-5.28c0-1.16,0.08-2.29,0.25-3.39c0.17-1.11,0.39-2.17,0.67-3.21c0.28-1.05,0.58-2.07,0.92-3.07
								c0.33-1,0.67-1.96,1.02-2.87l7.12-20.26c0.13-0.27,0.28-0.6,0.43-1c0.15-0.39,0.42-0.69,0.78-0.9l2.24-1.29
								c0.23-0.14,0.42-0.12,0.57,0.06c0.15,0.18,0.22,0.45,0.22,0.81c0,0.19-0.03,0.37-0.06,0.51c-0.04,0.14-0.08,0.27-0.14,0.38
								L1499.42,1767.47z M1494.4,1784.58c0,1.21,0.15,2.27,0.45,3.18c0.3,0.91,0.73,1.63,1.27,2.16c0.55,0.53,1.22,0.81,2.01,0.86
								c0.8,0.04,1.7-0.23,2.69-0.8c0.99-0.57,1.88-1.34,2.67-2.3c0.8-0.96,1.47-2.03,2.02-3.19c0.55-1.16,0.97-2.37,1.27-3.63
								c0.3-1.25,0.44-2.48,0.44-3.69c0-1.2-0.15-2.26-0.44-3.18c-0.3-0.91-0.73-1.63-1.27-2.16c-0.55-0.53-1.22-0.81-2.02-0.85
								c-0.8-0.05-1.68,0.22-2.67,0.79c-0.99,0.57-1.89,1.34-2.69,2.3s-1.46,2.02-2.01,3.18c-0.55,1.16-0.97,2.37-1.27,3.63
								C1494.56,1782.15,1494.4,1783.38,1494.4,1784.58z"/>
							<path style="fill:#455A64;" d="M1517.61,1774.92c0.13,0.57,0.31,1.11,0.55,1.61c0.23,0.51,0.59,0.87,1.05,1.11
								c0.47,0.23,1.09,0.28,1.86,0.17c0.77-0.13,1.77-0.54,3-1.25c0.81-0.47,1.57-1.06,2.31-1.79c0.73-0.72,1.37-1.56,1.92-2.52
								c0.55-0.96,0.98-2.01,1.3-3.14c0.33-1.13,0.49-2.37,0.49-3.69c0-1.29-0.15-2.29-0.46-3.01c-0.32-0.72-0.75-1.2-1.28-1.43
								c-0.53-0.23-1.17-0.26-1.9-0.08c-0.73,0.19-1.52,0.53-2.38,1.02l-3.25,1.88c-0.29,0.17-0.54,0.15-0.75-0.05
								c-0.21-0.2-0.31-0.51-0.31-0.96v-2.16c0-0.37,0.07-0.74,0.22-1.12c0.14-0.39,0.28-0.73,0.41-1.05l7.04-15.76l-11.26,6.51
								c-0.29,0.17-0.54,0.15-0.75-0.05c-0.21-0.2-0.31-0.51-0.31-0.96v-2.16c0-0.45,0.11-0.89,0.31-1.32
								c0.21-0.45,0.46-0.75,0.75-0.91l15.41-8.9c0.29-0.17,0.53-0.15,0.75,0.05c0.21,0.2,0.31,0.52,0.31,0.96v2.17
								c0,0.37-0.06,0.75-0.19,1.17c-0.14,0.41-0.3,0.85-0.51,1.29l-6.92,15.51c1.3-0.71,2.5-1.09,3.58-1.13
								c1.09-0.04,2.01,0.24,2.78,0.86c0.77,0.62,1.37,1.57,1.8,2.82c0.43,1.26,0.65,2.83,0.65,4.72c0,2.06-0.26,4.04-0.78,5.97
								c-0.53,1.93-1.22,3.7-2.1,5.3c-0.87,1.61-1.9,3.05-3.09,4.35c-1.19,1.29-2.45,2.31-3.78,3.09c-1.75,1-3.25,1.56-4.52,1.67
								c-1.27,0.12-2.31-0.11-3.13-0.66c-0.82-0.55-1.43-1.34-1.84-2.37c-0.4-1.03-0.62-2.2-0.65-3.51c0-0.37,0.08-0.72,0.26-1.09
								c0.17-0.35,0.37-0.61,0.61-0.74l1.79-1.04c0.29-0.17,0.52-0.17,0.69,0C1517.45,1774.4,1517.55,1774.63,1517.61,1774.92z"/>
							<path style="fill:#455A64;" d="M1540.89,1761.48c0.13,0.57,0.32,1.11,0.55,1.62c0.24,0.5,0.59,0.87,1.06,1.11
								c0.47,0.23,1.09,0.28,1.86,0.15c0.77-0.12,1.77-0.53,3-1.25c0.81-0.46,1.58-1.05,2.31-1.77c0.73-0.73,1.37-1.57,1.92-2.53
								s0.99-2.01,1.31-3.13c0.33-1.14,0.49-2.37,0.49-3.69c0-1.29-0.15-2.29-0.47-3.02c-0.31-0.71-0.74-1.2-1.27-1.43
								c-0.53-0.23-1.17-0.26-1.9-0.08c-0.73,0.18-1.53,0.51-2.38,1.02l-3.25,1.88c-0.28,0.16-0.53,0.14-0.74-0.06
								c-0.21-0.2-0.31-0.52-0.31-0.96v-2.17c0-0.36,0.07-0.73,0.22-1.12c0.14-0.39,0.28-0.73,0.41-1.05l7.04-15.75l-11.27,6.51
								c-0.29,0.17-0.53,0.14-0.75-0.05c-0.21-0.21-0.31-0.53-0.31-0.96v-2.17c0-0.44,0.1-0.88,0.31-1.32
								c0.21-0.44,0.46-0.75,0.75-0.91l15.41-8.9c0.29-0.17,0.53-0.15,0.75,0.05c0.21,0.21,0.32,0.52,0.32,0.96v2.17
								c0,0.37-0.07,0.75-0.19,1.16c-0.14,0.42-0.3,0.85-0.51,1.3l-6.92,15.51c1.3-0.72,2.49-1.09,3.57-1.14
								c1.09-0.04,2.01,0.25,2.78,0.87c0.77,0.62,1.37,1.56,1.8,2.82c0.43,1.25,0.65,2.83,0.65,4.72c0,2.04-0.26,4.04-0.78,5.97
								c-0.53,1.93-1.22,3.69-2.1,5.3c-0.87,1.61-1.9,3.05-3.09,4.34c-1.18,1.29-2.44,2.32-3.77,3.09
								c-1.75,1.02-3.26,1.57-4.52,1.67c-1.27,0.12-2.31-0.1-3.14-0.66c-0.82-0.55-1.43-1.34-1.84-2.37
								c-0.4-1.03-0.62-2.21-0.64-3.51c0-0.37,0.08-0.73,0.26-1.09c0.17-0.35,0.37-0.6,0.6-0.75l1.8-1.04
								c0.29-0.17,0.52-0.16,0.69-0.01C1540.72,1760.96,1540.83,1761.19,1540.89,1761.48z"/>
						</g>
						<g>
							<path style="fill:#E0E0E0;" d="M1493.68,1879.02l231.06-133.9c2.62-1.51,4.75-0.44,4.75,2.4c0,2.84-2.13,6.37-4.75,7.89
								l-231.06,133.9c-2.62,1.51-4.75,0.44-4.75-2.4C1488.93,1884.06,1491.06,1880.53,1493.68,1879.02z"/>
						</g>
						<g>
							<path style="fill:#E0E0E0;" d="M1493.68,1724.56l51.78-30.05c2.62-1.51,4.75-0.44,4.75,2.4c0,2.84-2.13,6.37-4.75,7.89
								l-51.78,30.05c-2.62,1.51-4.75,0.44-4.75-2.4C1488.93,1729.6,1491.06,1726.07,1493.68,1724.56z"/>
						</g>
					</g>
					<g>
						<g>
							<path style="fill:#27DEBF;" d="M1488.84,2042.85c-0.41,0-0.83-0.15-1.14-0.46c-0.66-0.64-0.67-1.68-0.04-2.33l27.14-27.9
								l26.81-3.39l27.01-23.6l26.03-7.1l27.14-54.03l27.22,13.33l26.25-23.13l0.44-0.09l26.06-4.94l26.3-45.49
								c0.46-0.8,1.47-1.05,2.25-0.6c0.79,0.46,1.05,1.47,0.6,2.25l-27.06,46.8l-27.09,5.14l-27.22,23.99l-26.27-12.86l-26.33,52.43
								l-27.08,7.38l-26.83,23.67l-26.67,3.38l-26.33,27.07C1489.7,2042.69,1489.27,2042.85,1488.84,2042.85z"/>
						</g>
						<g>
							<path style="fill:#2B7AED;" d="M1488.84,2042.85c-0.41,0-0.83-0.15-1.14-0.46c-0.66-0.64-0.67-1.68-0.04-2.33l27.14-27.9
								l26.81-3.39l27.01-23.6l26.03-7.1l27.14-54.03l27.22,13.33l26.25-23.13l0.44-0.09l26.06-4.94l26.3-45.49
								c0.46-0.8,1.47-1.05,2.25-0.6c0.79,0.46,1.05,1.47,0.6,2.25l-27.06,46.8l-27.09,5.14l-27.22,23.99l-26.27-12.86l-26.33,52.43
								l-27.08,7.38l-26.83,23.67l-26.67,3.38l-26.33,27.07C1489.7,2042.69,1489.27,2042.85,1488.84,2042.85z"/>
						</g>
						<g>
							<path style="fill:#455A64;" d="M1502.5,1977.28c0,0.44-0.1,0.88-0.31,1.32c-0.21,0.44-0.46,0.75-0.75,0.91l-1.61,0.93
								c-0.29,0.17-0.53,0.15-0.75-0.05c-0.21-0.2-0.31-0.52-0.31-0.96v-33.2l-6.34,11.07c-0.24,0.46-0.49,0.73-0.78,0.82
								c-0.29,0.09-0.52,0.03-0.71-0.2l-0.93-1.32c-0.19-0.25-0.26-0.62-0.22-1.09c0.04-0.46,0.18-0.9,0.41-1.31l8.37-14.72
								c0.21-0.36,0.42-0.62,0.63-0.78c0.21-0.15,0.41-0.3,0.62-0.42l1.61-0.93c0.29-0.17,0.53-0.15,0.75,0.05
								c0.21,0.2,0.31,0.52,0.31,0.96V1977.28z"/>
							<path style="fill:#455A64;" d="M1519.6,1946.87c0.78-1.54,1.37-2.98,1.76-4.33c0.39-1.35,0.59-2.93,0.59-4.73
								c0-2.13-0.4-3.68-1.22-4.64c-0.8-0.95-2.08-0.93-3.83,0.08c-0.91,0.53-1.69,1.18-2.33,1.94c-0.64,0.78-1.18,1.64-1.61,2.58
								c-0.42,0.94-0.76,1.95-1.02,3c-0.24,1.04-0.45,2.1-0.61,3.15c-0.08,0.49-0.21,0.91-0.41,1.26c-0.2,0.35-0.4,0.59-0.6,0.71
								l-1.81,1.04c-0.23,0.14-0.43,0.12-0.6-0.04c-0.17-0.17-0.25-0.43-0.25-0.79c0.02-1.5,0.24-3.13,0.66-4.9
								c0.42-1.76,1.02-3.5,1.8-5.19c0.78-1.7,1.74-3.27,2.87-4.74c1.14-1.45,2.44-2.61,3.9-3.45c1.43-0.83,2.7-1.22,3.79-1.17
								c1.1,0.06,2.01,0.44,2.74,1.2c0.73,0.74,1.29,1.78,1.66,3.13c0.38,1.35,0.57,2.91,0.57,4.68c0,1.29-0.07,2.48-0.2,3.6
								c-0.13,1.13-0.34,2.24-0.64,3.36s-0.69,2.25-1.16,3.41c-0.47,1.15-1.04,2.38-1.72,3.7l-8.72,17.57l11.97-6.91
								c0.29-0.17,0.53-0.15,0.75,0.05c0.21,0.2,0.32,0.52,0.32,0.96v2.17c0,0.44-0.11,0.89-0.32,1.32
								c-0.21,0.44-0.46,0.75-0.75,0.91l-16.86,9.73c-0.28,0.17-0.53,0.15-0.74-0.05c-0.21-0.2-0.32-0.51-0.32-0.96v-2.16
								c0-0.45,0.07-0.86,0.21-1.26c0.13-0.4,0.35-0.91,0.66-1.54L1519.6,1946.87z"/>
							<path style="fill:#455A64;" d="M1550.55,1925.03c0.03,1.79,0.04,3.48,0.04,5.07c0,1.59-0.01,3.28-0.04,5.12
								c-0.03,2.34-0.24,4.64-0.65,6.9c-0.4,2.26-1,4.36-1.81,6.31c-0.81,1.97-1.84,3.72-3.07,5.27c-1.24,1.56-2.72,2.84-4.44,3.83
								c-1.72,1-3.2,1.43-4.44,1.3c-1.23-0.13-2.26-0.69-3.07-1.72c-0.82-1.02-1.42-2.42-1.82-4.22c-0.41-1.79-0.62-3.84-0.65-6.16
								c-0.03-1.8-0.04-3.48-0.04-5.07s0.01-3.29,0.04-5.11c0.03-2.35,0.24-4.65,0.65-6.92c0.4-2.26,1-4.36,1.82-6.32
								c0.8-1.95,1.83-3.72,3.07-5.29c1.24-1.59,2.72-2.87,4.44-3.87c1.72-0.99,3.2-1.41,4.44-1.26c1.23,0.14,2.26,0.73,3.07,1.75
								c0.81,1.02,1.41,2.42,1.81,4.22C1550.32,1920.65,1550.53,1922.7,1550.55,1925.03z M1534.28,1944.61
								c0.05,3.78,0.6,6.27,1.67,7.47c1.05,1.2,2.6,1.2,4.63,0.03c2.04-1.17,3.58-2.96,4.63-5.38c1.06-2.42,1.61-5.55,1.66-9.39
								c0.03-1.83,0.04-3.53,0.04-5.12c0-1.59-0.01-3.28-0.04-5.07c-0.05-3.79-0.6-6.29-1.66-7.51c-1.05-1.22-2.6-1.23-4.63-0.06
								c-2.03,1.18-3.58,2.98-4.63,5.42c-1.06,2.44-1.61,5.57-1.67,9.43c-0.03,1.81-0.04,3.52-0.04,5.11
								C1534.24,1941.13,1534.25,1942.81,1534.28,1944.61z"/>
						</g>
						<g>
							<path style="fill:#E0E0E0;" d="M1493.68,2064.1l231.06-133.9c2.62-1.51,4.75-0.44,4.75,2.4c0,2.84-2.13,6.37-4.75,7.89
								l-231.06,133.9c-2.62,1.51-4.75,0.44-4.75-2.4C1488.93,2069.15,1491.06,2065.62,1493.68,2064.1z"/>
						</g>
						<g>
							<path style="fill:#E0E0E0;" d="M1493.68,1909.65l51.78-30.05c2.62-1.51,4.75-0.44,4.75,2.4c0,2.84-2.13,6.37-4.75,7.89
								l-51.78,30.05c-2.62,1.51-4.75,0.44-4.75-2.4C1488.93,1914.69,1491.06,1911.16,1493.68,1909.65z"/>
						</g>
					</g>
					<g>
						<g>
							<path style="fill:#2B7AED;" d="M1809.7,1672.14c-0.48,0-0.96-0.21-1.29-0.62c-0.57-0.71-0.45-1.75,0.26-2.31l26.74-21.34
								l26.93-30.77l27.33-3.96l26.08-5.89l27-31.88l26.57,4.7l26.65-42.2l27.08,0.43l26.2-23.41c0.68-0.6,1.71-0.55,2.33,0.13
								c0.6,0.68,0.55,1.72-0.13,2.32l-27.16,24.27l-26.52-0.43l-26.84,42.51l-26.9-4.75l-26.48,31.28l-27.28,6.15l-26.26,3.81
								l-26.33,30.05l-26.95,21.53C1810.43,1672.02,1810.06,1672.14,1809.7,1672.14z"/>
						</g>
						<g>
							<path style="fill:#455A64;" d="M1820.28,1581.84c0.17-0.18,0.4-0.38,0.68-0.6c0.28-0.23,0.51-0.39,0.73-0.51
								c1.46-0.84,2.81-1.26,4.04-1.22c1.24,0.03,2.31,0.43,3.21,1.22c0.89,0.79,1.6,1.92,2.11,3.39c0.51,1.48,0.76,3.24,0.76,5.28
								c0,2.05-0.26,4.11-0.76,6.16c-0.51,2.06-1.22,4.01-2.11,5.83c-0.9,1.83-1.97,3.47-3.21,4.93c-1.23,1.45-2.58,2.61-4.04,3.45
								c-1.47,0.84-2.82,1.25-4.06,1.22c-1.23-0.03-2.3-0.44-3.21-1.22c-0.9-0.78-1.6-1.92-2.11-3.39
								c-0.51-1.47-0.76-3.23-0.76-5.28c0-1.16,0.08-2.29,0.25-3.39c0.17-1.11,0.39-2.17,0.67-3.21c0.28-1.05,0.58-2.07,0.92-3.07
								c0.33-1,0.67-1.96,1.02-2.87l7.12-20.26c0.13-0.27,0.28-0.6,0.43-1c0.15-0.39,0.42-0.69,0.78-0.9l2.24-1.29
								c0.23-0.13,0.42-0.12,0.57,0.06c0.15,0.18,0.22,0.45,0.22,0.81c0,0.19-0.03,0.37-0.06,0.51c-0.04,0.14-0.08,0.27-0.14,0.38
								L1820.28,1581.84z M1815.26,1598.95c0,1.21,0.15,2.27,0.45,3.18c0.3,0.91,0.73,1.63,1.27,2.16c0.55,0.53,1.22,0.81,2.01,0.86
								c0.8,0.04,1.7-0.23,2.69-0.8c0.99-0.57,1.88-1.34,2.67-2.3c0.8-0.96,1.47-2.03,2.02-3.19c0.55-1.16,0.97-2.37,1.27-3.63
								c0.3-1.25,0.44-2.48,0.44-3.69c0-1.2-0.15-2.26-0.44-3.18c-0.3-0.91-0.73-1.63-1.27-2.16c-0.55-0.53-1.22-0.81-2.02-0.85
								c-0.8-0.05-1.68,0.22-2.67,0.79c-0.99,0.57-1.89,1.34-2.69,2.3c-0.8,0.96-1.46,2.02-2.01,3.18
								c-0.55,1.16-0.97,2.37-1.27,3.63C1815.42,1596.52,1815.26,1597.76,1815.26,1598.95z"/>
							<path style="fill:#455A64;" d="M1847.38,1572.16c0.78-1.54,1.37-2.98,1.77-4.33c0.39-1.35,0.59-2.93,0.59-4.73
								c0-2.13-0.41-3.68-1.22-4.64c-0.81-0.95-2.09-0.93-3.84,0.08c-0.91,0.53-1.68,1.18-2.33,1.94c-0.64,0.78-1.18,1.64-1.6,2.58
								c-0.43,0.94-0.77,1.95-1.02,3c-0.24,1.04-0.45,2.1-0.6,3.15c-0.08,0.49-0.21,0.91-0.4,1.26c-0.21,0.35-0.4,0.59-0.61,0.71
								l-1.8,1.04c-0.24,0.13-0.44,0.12-0.61-0.04c-0.17-0.17-0.25-0.43-0.25-0.79c0.03-1.5,0.24-3.13,0.66-4.9
								c0.42-1.76,1.02-3.5,1.8-5.19c0.78-1.7,1.74-3.27,2.88-4.74c1.13-1.45,2.43-2.61,3.89-3.45c1.44-0.83,2.7-1.22,3.8-1.17
								c1.09,0.06,2.01,0.44,2.74,1.2c0.73,0.74,1.29,1.78,1.66,3.13c0.38,1.35,0.57,2.91,0.57,4.68c0,1.29-0.06,2.48-0.19,3.6
								c-0.13,1.13-0.35,2.24-0.65,3.36c-0.3,1.12-0.68,2.25-1.16,3.41c-0.47,1.15-1.04,2.38-1.72,3.7l-8.72,17.57l11.96-6.91
								c0.3-0.17,0.54-0.15,0.75,0.05c0.21,0.2,0.31,0.52,0.31,0.96v2.17c0,0.44-0.1,0.89-0.31,1.32c-0.21,0.44-0.46,0.75-0.75,0.91
								l-16.86,9.73c-0.28,0.17-0.53,0.15-0.74-0.05c-0.21-0.2-0.31-0.51-0.31-0.96v-2.16c0-0.45,0.06-0.86,0.2-1.26
								c0.13-0.4,0.35-0.91,0.66-1.54L1847.38,1572.16z"/>
							<path style="fill:#455A64;" d="M1874,1536.79c0.29-0.17,0.53-0.14,0.75,0.05c0.21,0.21,0.31,0.53,0.31,0.96v2.17
								c0,0.36-0.04,0.76-0.12,1.21c-0.08,0.45-0.18,0.93-0.31,1.45l-8.69,39.54c-0.1,0.41-0.24,0.83-0.4,1.23
								c-0.17,0.41-0.42,0.69-0.73,0.87l-1.8,1.04c-0.26,0.15-0.48,0.14-0.66-0.04c-0.18-0.17-0.28-0.46-0.28-0.86
								c0-0.08,0.01-0.18,0.02-0.28c0.01-0.12,0.04-0.28,0.1-0.51l8.72-39.62l-12.83,7.41c-0.29,0.17-0.54,0.15-0.75-0.05
								c-0.21-0.21-0.32-0.53-0.32-0.96v-2.17c0-0.44,0.1-0.87,0.32-1.32c0.21-0.44,0.46-0.75,0.75-0.91L1874,1536.79z"/>
						</g>
						<g>
							<path style="fill:#E0E0E0;" d="M1814.54,1693.39l231.06-133.9c2.62-1.51,4.75-0.44,4.75,2.4c0,2.84-2.13,6.37-4.75,7.89
								l-231.06,133.9c-2.62,1.51-4.75,0.44-4.75-2.4C1809.79,1698.43,1811.92,1694.9,1814.54,1693.39z"/>
						</g>
						<g>
							<path style="fill:#E0E0E0;" d="M1814.54,1538.93l51.78-30.05c2.62-1.51,4.75-0.44,4.75,2.4c0,2.84-2.13,6.37-4.75,7.88
								l-51.78,30.05c-2.62,1.51-4.75,0.44-4.75-2.4C1809.79,1543.98,1811.92,1540.45,1814.54,1538.93z"/>
						</g>
					</g>
					<g>
						<g>
							<path style="fill:#27DEBF;" d="M1809.7,1857.22c-0.3,0-0.59-0.08-0.85-0.24c-0.78-0.48-1.02-1.49-0.55-2.26l27.33-44.82
								l27.48,5.08l25.87-7.07l26.75-32.64l26.58-6.7l27.02-48.15l27.62,8.02l25.96-4.92l26.34-23.44c0.67-0.61,1.72-0.55,2.32,0.13
								c0.6,0.68,0.55,1.72-0.14,2.32l-27.02,24.05l-0.44,0.09l-27.19,5.16l-25.86-7.51l-26.45,47.1l-26.9,6.8l-26.73,32.6
								l-0.5,0.14l-27.1,7.41l-0.37-0.06l-25.62-4.74l-26.15,42.88C1810.79,1856.94,1810.25,1857.22,1809.7,1857.22z"/>
						</g>
						<g>
							<path style="fill:#5E9CF7;" d="M1809.7,1857.22c-0.3,0-0.59-0.08-0.85-0.24c-0.78-0.48-1.02-1.49-0.55-2.26l27.33-44.82
								l27.48,5.08l25.87-7.07l26.75-32.64l26.58-6.7l27.02-48.15l27.62,8.02l25.96-4.92l26.34-23.44c0.67-0.61,1.72-0.55,2.32,0.13
								c0.6,0.68,0.55,1.72-0.14,2.32l-27.02,24.05l-0.44,0.09l-27.19,5.16l-25.86-7.51l-26.45,47.1l-26.9,6.8l-26.73,32.6
								l-0.5,0.14l-27.1,7.41l-0.37-0.06l-25.62-4.74l-26.15,42.88C1810.79,1856.94,1810.25,1857.22,1809.7,1857.22z"/>
						</g>
						<g>
							<path style="fill:#455A64;" d="M1822.07,1779.57c-0.13,0.12-0.31,0.25-0.55,0.4c-0.24,0.15-0.4,0.27-0.51,0.33
								c-1.25,0.73-2.47,1.11-3.64,1.16c-1.17,0.06-2.22-0.26-3.13-0.93c-0.91-0.68-1.65-1.74-2.21-3.18
								c-0.57-1.44-0.84-3.31-0.84-5.6c0-2.05,0.26-4.08,0.78-6.11c0.52-2.03,1.23-3.93,2.13-5.72c0.89-1.79,1.94-3.38,3.13-4.79
								c1.18-1.41,2.44-2.5,3.77-3.27c1.51-0.87,2.88-1.3,4.09-1.28c1.22,0.03,2.24,0.42,3.09,1.2c0.85,0.78,1.5,1.9,1.95,3.36
								c0.46,1.47,0.68,3.21,0.68,5.26c0,1-0.1,2.08-0.31,3.22c-0.21,1.14-0.47,2.29-0.78,3.43c-0.32,1.14-0.66,2.27-1.02,3.36
								c-0.37,1.11-0.71,2.1-1.02,3l-7.12,20.26c-0.14,0.28-0.27,0.61-0.43,1c-0.16,0.4-0.42,0.69-0.78,0.9l-2.23,1.29
								c-0.23,0.14-0.42,0.12-0.57-0.06c-0.14-0.17-0.21-0.45-0.21-0.81c0-0.2,0.01-0.37,0.05-0.51c0.04-0.15,0.09-0.27,0.14-0.38
								L1822.07,1779.57z M1827.12,1762.56c0-1.25-0.15-2.32-0.45-3.23c-0.3-0.91-0.72-1.6-1.25-2.08
								c-0.53-0.48-1.18-0.71-1.94-0.72c-0.75,0-1.58,0.26-2.46,0.76c-0.91,0.53-1.74,1.23-2.48,2.1c-0.75,0.87-1.39,1.86-1.92,2.95
								c-0.53,1.08-0.95,2.26-1.25,3.51c-0.3,1.26-0.45,2.51-0.45,3.76c0,1.29,0.15,2.37,0.45,3.26c0.3,0.9,0.71,1.58,1.25,2.06
								c0.53,0.48,1.17,0.71,1.92,0.73c0.74,0.02,1.57-0.24,2.48-0.77c0.88-0.51,1.71-1.2,2.46-2.09c0.76-0.87,1.41-1.86,1.94-2.96
								c0.53-1.09,0.95-2.25,1.25-3.49C1826.97,1765.11,1827.12,1763.84,1827.12,1762.56z"/>
							<path style="fill:#455A64;" d="M1837.29,1775.06c0.13,0.57,0.32,1.11,0.55,1.61c0.23,0.51,0.59,0.87,1.05,1.11
								c0.47,0.23,1.09,0.28,1.86,0.16c0.76-0.12,1.76-0.53,3-1.25c0.8-0.47,1.57-1.06,2.3-1.78c0.73-0.72,1.37-1.56,1.92-2.52
								c0.55-0.96,0.98-2.01,1.3-3.14c0.33-1.13,0.49-2.37,0.49-3.69c0-1.29-0.16-2.29-0.47-3.01c-0.31-0.71-0.74-1.2-1.27-1.43
								c-0.54-0.23-1.17-0.26-1.9-0.08c-0.73,0.18-1.52,0.52-2.38,1.02l-3.25,1.88c-0.28,0.17-0.53,0.15-0.74-0.05
								c-0.21-0.21-0.32-0.52-0.32-0.96v-2.17c0-0.37,0.08-0.74,0.22-1.13c0.15-0.39,0.28-0.73,0.41-1.05l7.05-15.75l-11.27,6.51
								c-0.29,0.17-0.53,0.15-0.75-0.05c-0.21-0.21-0.31-0.52-0.31-0.96v-2.17c0-0.44,0.11-0.88,0.31-1.32
								c0.21-0.44,0.46-0.75,0.75-0.91l15.41-8.9c0.29-0.17,0.53-0.14,0.75,0.05c0.21,0.21,0.31,0.53,0.31,0.96v2.17
								c0,0.36-0.06,0.75-0.19,1.16c-0.13,0.42-0.3,0.85-0.51,1.29l-6.92,15.51c1.31-0.72,2.5-1.09,3.58-1.13
								c1.09-0.04,2.01,0.24,2.78,0.86c0.77,0.62,1.37,1.56,1.81,2.82c0.42,1.26,0.64,2.83,0.64,4.72c0,2.05-0.26,4.04-0.78,5.97
								c-0.52,1.93-1.22,3.7-2.1,5.31c-0.87,1.61-1.9,3.05-3.09,4.34c-1.19,1.29-2.44,2.32-3.77,3.09
								c-1.75,1.01-3.26,1.56-4.53,1.67c-1.27,0.12-2.31-0.11-3.13-0.66c-0.82-0.55-1.43-1.34-1.84-2.37
								c-0.4-1.04-0.62-2.21-0.64-3.51c0-0.37,0.08-0.73,0.25-1.09c0.17-0.35,0.37-0.6,0.61-0.74l1.8-1.03
								c0.29-0.17,0.51-0.17,0.68-0.01C1837.13,1774.54,1837.23,1774.77,1837.29,1775.06z"/>
						</g>
						<g>
							<path style="fill:#E0E0E0;" d="M1814.54,1878.47l231.06-133.9c2.62-1.51,4.75-0.44,4.75,2.4c0,2.84-2.13,6.37-4.75,7.89
								l-231.06,133.9c-2.62,1.51-4.75,0.44-4.75-2.4C1809.79,1883.52,1811.92,1879.99,1814.54,1878.47z"/>
						</g>
						<g>
							<path style="fill:#E0E0E0;" d="M1814.54,1724.02l51.78-30.05c2.62-1.51,4.75-0.44,4.75,2.4c0,2.84-2.13,6.37-4.75,7.89
								l-51.78,30.05c-2.62,1.51-4.75,0.44-4.75-2.4C1809.79,1729.06,1811.92,1725.53,1814.54,1724.02z"/>
						</g>
					</g>
				</g>
				<g>
					<g>
						<g id="XMLID_125_">
							<g id="XMLID_126_">
								<g id="XMLID_127_">
									<path id="XMLID_137_" style="fill:#2B7AED;" d="M2157.3,1371.67c11.4-6.58,21.91-6.92,30.48-2.27l-30.48,82.18V1371.67z"/>
									<path id="XMLID_136_" style="fill:#27DEBF;" d="M2126.82,1404.59c8.56-14.54,19.07-26.34,30.48-32.92v79.91
										L2126.82,1404.59z"/>
									<path id="XMLID_135_" style="fill:#27DEBF;" d="M2107.95,1455.38c3.42-18.17,10.11-35.92,18.87-50.79l30.48,46.99
										L2107.95,1455.38z"/>
									<path style="fill:#5E9CF7;" d="M2126.82,1404.59c-8.76,14.87-15.45,32.62-18.87,50.79l49.35-3.81v-79.91
										C2145.9,1378.25,2135.39,1390.05,2126.82,1404.59z"/>
									<path id="XMLID_134_" style="fill:#2B7AED;" d="M2187.78,1369.4c8.76,4.76,15.46,14.77,18.87,29l-49.35,53.18
										L2187.78,1369.4z"/>
									<path id="XMLID_133_" style="fill:#2B7AED;" d="M2107.95,1504.76c-1.64-6.83-2.55-14.59-2.55-23.21
										c0-8.62,0.91-17.43,2.55-26.16l49.35-3.8L2107.95,1504.76z"/>
									<path id="XMLID_132_" style="fill:#2B7AED;" d="M2206.65,1447.77c-3.42,18.17-10.11,35.92-18.87,50.79l-30.48-46.99
										L2206.65,1447.77z"/>
									<path id="XMLID_131_" style="fill:#2B7AED;" d="M2157.3,1531.49c-11.4,6.58-21.91,6.92-30.48,2.27l30.48-82.18V1531.49z"/>
									<path id="XMLID_130_" style="fill:#2B7AED;" d="M2107.95,1504.76l49.35-53.18l-30.48,82.18
										C2118.06,1529,2111.37,1518.98,2107.95,1504.76z"/>
									<path id="XMLID_129_" style="fill:#2B7AED;" d="M2206.65,1398.4c1.64,6.83,2.55,14.59,2.55,23.21
										c0,8.62-0.91,17.43-2.55,26.16l-49.35,3.81L2206.65,1398.4z"/>
									<path id="XMLID_128_" style="fill:#2B7AED;" d="M2187.78,1498.57c-8.56,14.54-19.07,26.34-30.48,32.92v-79.91
										L2187.78,1498.57z"/>
								</g>
							</g>
						</g>
						<g>
							<path style="fill:#455A64;" d="M2131.41,1572.24l51.78-30.05c2.62-1.51,4.75-0.44,4.75,2.4c0,2.84-2.13,6.37-4.75,7.89
								l-51.78,30.05c-2.62,1.51-4.75,0.44-4.75-2.4C2126.66,1577.29,2128.79,1573.76,2131.41,1572.24z"/>
							<path style="fill:#E0E0E0;" d="M2119.99,1609.81l74.62-43.29c2.62-1.51,4.75-0.44,4.75,2.4c0,2.84-2.13,6.37-4.75,7.89
								l-74.62,43.29c-2.62,1.51-4.75,0.44-4.75-2.4C2115.25,1614.85,2117.37,1611.32,2119.99,1609.81z"/>
							<path style="fill:#E0E0E0;" d="M2119.99,1640.75l74.62-43.29c2.62-1.51,4.75-0.44,4.75,2.4c0,2.84-2.13,6.37-4.75,7.89
								l-74.62,43.29c-2.62,1.51-4.75,0.44-4.75-2.4C2115.25,1645.8,2117.37,1642.26,2119.99,1640.75z"/>
							<path style="fill:#E0E0E0;" d="M2119.99,1671.7l74.62-43.29c2.62-1.51,4.75-0.44,4.75,2.4c0,2.84-2.13,6.37-4.75,7.89
								l-74.62,43.29c-2.62,1.51-4.75,0.44-4.75-2.4C2115.25,1676.74,2117.37,1673.21,2119.99,1671.7z"/>
						</g>
					</g>
					<g>
						<g id="XMLID_112_">
							<g id="XMLID_113_">
								<g id="XMLID_114_">
									<path id="XMLID_124_" style="fill:#2B7AED;" d="M2344.47,1263.21c11.4-6.58,21.91-6.92,30.48-2.27l-30.48,82.18V1263.21z"
										/>
									<path id="XMLID_123_" style="fill:#27DEBF;" d="M2313.99,1296.13c8.56-14.54,19.07-26.34,30.48-32.92v79.91
										L2313.99,1296.13z"/>
									<path id="XMLID_122_" style="fill:#27DEBF;" d="M2295.12,1346.92c3.42-18.17,10.11-35.92,18.87-50.79l30.48,46.99
										L2295.12,1346.92z"/>
									<path id="XMLID_121_" style="fill:#2B7AED;" d="M2374.95,1260.93c8.76,4.76,15.46,14.77,18.87,29l-49.35,53.18
										L2374.95,1260.93z"/>
									<path id="XMLID_120_" style="fill:#27DEBF;" d="M2295.12,1396.29c-1.64-6.83-2.55-14.59-2.55-23.21
										c0-8.62,0.91-17.43,2.55-26.16l49.35-3.8L2295.12,1396.29z"/>
									<path id="XMLID_119_" style="fill:#2B7AED;" d="M2393.82,1339.31c-3.42,18.17-10.11,35.92-18.87,50.79l-30.48-46.99
										L2393.82,1339.31z"/>
									<path id="XMLID_118_" style="fill:#2B7AED;" d="M2344.47,1423.02c-11.4,6.58-21.91,6.92-30.48,2.27l30.48-82.18V1423.02z"
										/>
									<path id="XMLID_117_" style="fill:#27DEBF;" d="M2295.12,1396.29l49.35-53.18l-30.48,82.18
										C2305.23,1420.54,2298.54,1410.52,2295.12,1396.29z"/>
									<path style="fill:#5E9CF7;" d="M2313.99,1296.13c-8.76,14.87-15.46,32.62-18.87,50.79c-1.64,8.73-2.55,17.54-2.55,26.16
										c0,8.62,0.91,16.38,2.55,23.21c3.42,14.23,10.11,24.24,18.87,29l30.48-82.18v-79.91
										C2333.07,1269.79,2322.56,1281.58,2313.99,1296.13z"/>
									<path id="XMLID_116_" style="fill:#2B7AED;" d="M2393.82,1289.94c1.64,6.83,2.55,14.59,2.55,23.21s-0.91,17.43-2.55,26.16
										l-49.35,3.81L2393.82,1289.94z"/>
									<path id="XMLID_115_" style="fill:#2B7AED;" d="M2374.95,1390.1c-8.56,14.54-19.07,26.34-30.48,32.92v-79.91
										L2374.95,1390.1z"/>
								</g>
							</g>
						</g>
						<g>
							<path style="fill:#455A64;" d="M2318.58,1464.18l51.78-30.05c2.62-1.51,4.75-0.44,4.75,2.4c0,2.84-2.13,6.37-4.75,7.89
								l-51.78,30.05c-2.62,1.51-4.75,0.44-4.75-2.4C2313.83,1469.22,2315.96,1465.69,2318.58,1464.18z"/>
							<path style="fill:#E0E0E0;" d="M2307.16,1501.74l74.62-43.29c2.62-1.51,4.75-0.44,4.75,2.4c0,2.84-2.13,6.37-4.75,7.89
								l-74.62,43.29c-2.62,1.51-4.75,0.44-4.75-2.4C2302.41,1506.79,2304.54,1503.26,2307.16,1501.74z"/>
							<path style="fill:#E0E0E0;" d="M2307.16,1532.69l74.62-43.29c2.62-1.51,4.75-0.44,4.75,2.4c0,2.84-2.13,6.37-4.75,7.89
								l-74.62,43.29c-2.62,1.51-4.75,0.44-4.75-2.4C2302.41,1537.73,2304.54,1534.2,2307.16,1532.69z"/>
							<path style="fill:#E0E0E0;" d="M2307.16,1563.63l74.62-43.29c2.62-1.51,4.75-0.44,4.75,2.4c0,2.84-2.13,6.37-4.75,7.89
								l-74.62,43.29c-2.62,1.51-4.75,0.44-4.75-2.4C2302.41,1568.68,2304.54,1565.15,2307.16,1563.63z"/>
						</g>
					</g>
				</g>
			</g>
		</g>
	</g>
</g>
<g id="Magnifying_Glass">
	<g id="Glass">
		<g id="XMLID_762_">
			<g id="XMLID_768_">
				<path id="XMLID_773_" style="fill:#4286F4;" d="M2343.47,2334.67c0.85-25.34-15.91-56.75-37.43-70.16
					c-10.63-6.62-20.42-7.59-27.72-3.84l-0.01-0.02c-44.04,22.1-353.52,220.56-373.31,230.32l-0.25,0.13
					c-3.68,1.98-6.06,6.38-6.28,12.76c-0.43,12.78,8.01,28.6,18.86,35.35c5.43,3.38,10.44,3.84,14.13,1.85l0.28-0.15
					c31.34-17.26,336.78-147.42,399.22-180.91c0,0,0.01-0.01,0.02-0.01c0.01-0.01,0.03-0.01,0.04-0.02l0,0
					C2338.32,2356.05,2343.05,2347.31,2343.47,2334.67z"/>
				<path id="XMLID_770_" style="fill:#2B7AED;" d="M2331.3,2291.87c-6.62-11.34-15.43-21.24-25.26-27.36
					c-10.59-6.6-20.35-7.58-27.65-3.87c-1.47,0.81-1.92,1.07-0.9,0.48c-40.21,20.56-270.53,167.5-348.04,215.26
					c-0.17,0.1-0.35,0.21-0.51,0.32c-1.08,0.67-2.11,1.3-3.13,1.92c-0.31,0.19-0.65,0.4-0.95,0.59c-0.61,0.38-1.18,0.72-1.77,1.08
					c-0.7,0.43-1.41,0.86-2.08,1.27c-0.05,0.03-0.1,0.06-0.16,0.1c-8.2,5-13.73,8.26-15.87,9.32l-0.25,0.13
					c-0.67,0.36-1.24,0.89-1.82,1.4c-2.59,2.34-4.28,6.13-4.46,11.35c-0.05,1.44,0.05,2.93,0.22,4.43c0.07,0.57,0.17,1.14,0.27,1.71
					c0.15,0.9,0.32,1.81,0.54,2.72c0.17,0.72,0.36,1.44,0.57,2.16c0.25,0.85,0.54,1.7,0.84,2.54c0.23,0.63,0.43,1.27,0.69,1.89
					c0.04,0.1,0.1,0.2,0.14,0.3L2331.3,2291.87z"/>
				<path id="XMLID_769_" style="fill:#4286F4;" d="M1917.24,2539.23c-10.8-6.72-19.21-22.48-18.78-35.21
					c0.43-12.72,9.53-17.58,20.33-10.86c10.8,6.73,19.21,22.49,18.78,35.21C1937.14,2541.09,1928.04,2545.95,1917.24,2539.23z"/>
			</g>
			<path id="XMLID_767_" style="fill:#37474F;" d="M1824.76,2547.74c-0.33,9.77,6.13,21.88,14.43,27.05
				c4.13,2.57,7.93,2.93,10.75,1.45l0,0.01l0.04-0.02l0.01,0l74.86-39.85c0.02-0.01,0.03-0.02,0.05-0.03l0.02-0.01l0,0
				c2.8-1.52,4.62-4.88,4.78-9.74c0.33-9.77-6.13-21.88-14.43-27.05c-4.15-2.58-7.97-2.94-10.8-1.44l0,0l-74.85,39.84l0,0.01
				C1826.77,2539.45,1824.92,2542.83,1824.76,2547.74z"/>
			<path id="XMLID_763_" style="fill:#263238;" d="M1829.62,2537.96c-2.85,1.5-4.7,4.88-4.86,9.78c-0.12,3.68,0.72,7.7,2.26,11.55
				l96.54-51.5c-2.33-3.39-5.18-6.3-8.29-8.24c-4.15-2.58-7.97-2.94-10.8-1.44L1829.62,2537.96L1829.62,2537.96z"/>
		</g>
		<g id="XMLID_440_">
			<path id="XMLID_758_" style="fill:#4286F4;" d="M1920.79,2614.19c0-47.97-31.7-95.94-95.09-132.54
				c-126.79-73.2-332.36-73.2-459.15,0c-63.39,36.6-95.09,84.57-95.09,132.54l0,0v88.37c0,47.97,31.7,95.94,95.09,132.54
				c126.79,73.2,332.36,73.2,459.15,0c63.39-36.6,95.09-84.57,95.09-132.54V2614.19L1920.79,2614.19z M1382.25,2508.84
				c56.62-32.69,132.58-50.7,213.87-50.7c81.3,0,157.25,18,213.87,50.7c51.2,29.56,79.39,66.98,79.39,105.36
				c0,38.38-28.2,75.79-79.39,105.35c-56.62,32.69-132.58,50.7-213.87,50.7c-81.29,0-157.25-18-213.87-50.7
				c-51.19-29.56-79.39-66.97-79.39-105.35C1302.86,2575.81,1331.05,2538.4,1382.25,2508.84z"/>
			<path id="XMLID_739_" style="fill:#2B7AED;" d="M1366.53,2746.74c126.79,73.2,332.36,73.2,459.15,0
				c126.79-73.2,126.79-191.89,0-265.09c-126.79-73.2-332.36-73.2-459.15,0C1239.74,2554.85,1239.74,2673.54,1366.53,2746.74z
				 M1302.84,2614.2c0-38.38,28.19-75.8,79.39-105.36c56.62-32.69,132.58-50.7,213.87-50.7c81.3,0,157.25,18,213.87,50.7
				c51.2,29.56,79.39,66.98,79.39,105.36c0,38.38-28.2,75.79-79.39,105.35c-56.63,32.69-132.58,50.7-213.87,50.7
				c-81.3,0-157.25-18-213.87-50.7C1331.03,2689.99,1302.84,2652.57,1302.84,2614.2z"/>
			<g id="XMLID_732_">
				<path id="XMLID_738_" style="fill:#4286F4;" d="M1302.81,2614.19c0,15.07,4.33,29.89,12.68,44.21
					c12.87-22.29,35.54-43.2,66.75-61.16c56.58-32.72,132.56-50.74,213.88-50.74c81.26,0,157.24,18.02,213.82,50.74
					c31.21,17.96,53.88,38.87,66.81,61.16c8.29-14.32,12.62-29.14,12.62-44.21c0-38.37-28.2-75.79-79.44-105.37
					c-56.58-32.65-132.56-50.68-213.82-50.68c-81.32,0-157.3,18.02-213.88,50.68C1331.01,2538.39,1302.81,2575.82,1302.81,2614.19z"
					/>
				<path id="XMLID_734_" style="opacity:0.1;fill:#4286F4;" d="M1302.81,2614.19c0,15.07,4.33,29.89,12.68,44.21
					c12.87-22.29,35.54-43.2,66.75-61.16c56.58-32.72,132.56-50.74,213.88-50.74c81.26,0,157.24,18.02,213.82,50.74
					c31.21,17.96,53.88,38.87,66.81,61.16c8.29-14.32,12.62-29.14,12.62-44.21c0-38.37-28.2-75.79-79.44-105.37
					c-56.58-32.65-132.56-50.68-213.82-50.68c-81.32,0-157.3,18.02-213.88,50.68C1331.01,2538.39,1302.81,2575.82,1302.81,2614.19z"
					/>
			</g>
			<path id="XMLID_726_" style="opacity:0.4;fill:#FFFFFF;" d="M1382.23,2548.85c56.62-32.69,132.58-50.7,213.87-50.7
				c81.3,0,157.25,18,213.87,50.7c42.25,24.39,68.78,54.13,76.78,85.35c-8,31.21-34.54,60.96-76.78,85.35
				c-56.63,32.69-132.58,50.7-213.87,50.7c-81.3,0-157.25-18-213.87-50.7c-42.24-24.39-68.78-54.13-76.78-85.35
				C1313.45,2602.98,1339.98,2573.24,1382.23,2548.85z"/>
			<path id="XMLID_715_" style="opacity:0.1;" d="M1519.61,2796.42v88.29c-56.08-7.79-109.27-24.3-153.03-49.61
				c-63.42-36.61-95.14-84.59-95.14-132.56v-88.35c0-9.67,1.32-19.34,3.89-28.95h0.06c-15.38,57.08,15.01,117.49,91.18,161.51
				C1410.34,2772.05,1463.53,2788.57,1519.61,2796.42z"/>
		</g>
	</g>
</g>
<g id="Character">
	<g id="Character_1_">
		<g id="XMLID_34_">
			<g id="XMLID_45_">
				<path id="XMLID_46_" style="fill:#263238;" d="M3067.03,2256.89c3.84,1.56,4.66,8.96,4.91,23.65
					c0.19,11.12,2.13,30.56-10.96,34.13c-13.09,3.58-32.11,1.17-40.21-9.49c-10.11-13.3-16.89-24.96-31.38-41.23
					c-12.57-14.12-26.21-27.34-30.98-46.85c-4.3-17.63-0.22-25.15,11.85-29.97c16.6-6.64,41.91,16.84,54.72,20.73
					C3036.02,2211.21,3063.19,2255.33,3067.03,2256.89z"/>
			</g>
			<g id="XMLID_43_">
				<path id="XMLID_44_" style="fill:#FFA8A7;" d="M3067.34,2243.3l-0.41,18.02c0,0-19.06,13.97-45.56,0.2
					c-0.75-1.75-4.15-25.88-4.15-25.88L3067.34,2243.3z"/>
			</g>
			<g id="XMLID_41_">
				<path id="XMLID_42_" style="fill:#263238;" d="M2918.76,2357.45c0,0,4.82,15.79,7.3,29.56c1.97,10.94,4.73,29.23,0.73,37.33
					c-4,8.11-19,13.06-42.07,12.37c-14.94-0.45-38.46,9.17-54.6,17.71c-16.68,8.82-51.01,11.71-68.38,9.27
					c-20.47-2.87-41.47-15.25-44.6-23.83c-3.13-8.57,1.48-17.3,50.32-36.83c0.45-0.18,67.74-20.4,91.73-45.7L2918.76,2357.45z"/>
			</g>
			<g id="XMLID_39_">
				<path id="XMLID_40_" style="fill:#FFA8A7;" d="M2919.2,2337.97c0,0-0.37,13.37-0.47,21.02c-0.11,7.64-9.39,18.83-32.73,17.47
					c-16.4-0.96-27.75-5.63-26.8-19.13l0.44-19.48L2919.2,2337.97z"/>
			</g>
			<g id="XMLID_37_">
				<path id="XMLID_38_" style="fill:#37474F;" d="M3084.45,2004.42c-6.92-59.07-19.17-94.33-19.17-94.33s8.26-80.83,13.07-157.53
					c5.2-82.85,10.02-125.51-6.27-245.17c0,0-254.02-22.82-260.95,72.93c-6.93,95.75,2.91,340.12,5.12,382.3
					c2.21,42.18,8.65,79.59,15.82,148.04c7.07,67.56,27.56,227.18,27.56,227.18c30.2,17.21,59.56,0.12,59.56,0.12
					s23.15-191.25,22.27-239.89c-1.08-59.39-16.04-106.47-16.04-106.47s6.86-78.93,12.88-147.58
					c6.03-68.65,11.52-101.57,13.23-131.45l5.82-2.72c0,0,3.2,118.74,5.41,160.93c2.22,42.18,8,82.71,18.43,161.21
					c9.04,68.09,37.28,212.38,37.28,212.38c30.2,17.22,48.86-1.06,48.86-1.06S3091.37,2063.49,3084.45,2004.42z"/>
			</g>
			<g id="XMLID_35_">
				<path id="XMLID_36_" style="fill:#263238;" d="M2951.54,1712.58c0,0,65.63-30.53,98.77-58.64c0,0-31.12,41.83-71.15,59.78
					c0,0-17.4,147.02-17.27,144.1l-4.86-145.33L2951.54,1712.58z"/>
			</g>
		</g>
		<g id="XMLID_1_">
			<polygon id="XMLID_33_" style="fill:#FFA8A7;" points="2906.05,1166.08 2915.94,1253.79 2998.77,1249.61 2989.56,1147.25 			"/>
			<g id="XMLID_18_">
				<path style="fill:#37474F;" d="M3030,1199.66c30.83-1.42,46.49,3.21,60.34,29.8c13.85,26.6,19.27,106.07,24.09,147.05
					c4.82,40.97,6.02,69.89-10.84,74.1c-16.86,4.22-82.52,6.02-82.52,6.02L3030,1199.66z"/>
				<path id="XMLID_32_" style="fill:#455A64;" d="M3082.04,1245.11c-4.47-24.55-36.74-50.34-66.95-45.43
					c-7.02,1.14-13.85,2.3-20.51,3.47c-3.63,14.75-44.06,23.98-82.68,14.89c-11.64,3.06-49.97,10.23-59.66,13.45
					c-27.76,9.22-39.22,36.54-43.54,127.08c0,0,2.22,205.02,1.14,245.86c68.54,28.92,140.49,29.7,180.44,21.91
					c83.17-16.22,93.92-50.32,93.92-50.32l-12.38-93.79C3071.82,1482.23,3092.15,1300.63,3082.04,1245.11z"/>
				<path style="fill:#37474F;" d="M2909.31,1195l0.62,5.52c0,0,23.95,5.98,50.86,0c26.91-5.98,32.34-13.59,32.34-13.59l-0.56-6.26
					c0,0,6.7-2.48,10.22,7.83c3.52,10.31,3.89,12.58,3.89,12.58s3.1,18.84-28.54,28.44c-45.52,13.81-78.78-8.61-78.78-8.61
					l-12.41,2.62c0,0,10.73-24.73,13.98-29.75c3.25-5.02,7.76-4.3,7.76-4.3L2909.31,1195z"/>
				<g id="XMLID_23_">
					<polygon id="XMLID_31_" style="fill:#455A64;" points="2656.46,1100.96 2492.22,1186.67 2573.83,1409.8 2727.1,1323.94 					
						"/>
					<polygon id="XMLID_30_" style="fill:#F5F5F5;" points="2648.92,1122.81 2511.14,1194.71 2583.36,1386.54 2711.94,1314.51 					
						"/>
					<path id="XMLID_29_" style="opacity:0.15;" d="M2619.85,1143.5c0,0-1.19-3.05-2.67-6.82c-1.47-3.77-12.94-1.52-25.61,5.02
						l-24.26,12.53c-12.67,6.54-21.75,14.9-20.28,18.67l2.67,6.82L2619.85,1143.5z"/>
					<g id="XMLID_24_">
						<path id="XMLID_28_" style="fill:#5E9CF7;" d="M2617.19,1116.2c-0.91-2.36-5.9-1.97-11.15,0.86l-9.5,5.13
							c0,0-5.85-14.74-27.7-4.54c-21.85,10.2-16.86,27.29-16.86,27.29s-4.51,2.49-10.08,5.56c-5.57,3.07-9.54,7.5-8.86,9.89
							l1.23,4.34l84.6-44.14C2618.86,1120.58,2618.1,1118.55,2617.19,1116.2z"/>
						<path id="XMLID_27_" style="fill:#27DEBF;" d="M2608.05,1126.11c-7.87,3.87-10.97,5.74-8.7,11.55
							c2.59,6.64,4.99,11.4,4.99,11.4l-37.42,19.58c0,0-3.12-8.44-4.48-11.69c-1.36-3.26-4.1-4.81-10.05-1.7l-2.22-2.34l59.02-30.09
							L2608.05,1126.11z"/>
						<path id="XMLID_26_" style="fill:#2B7AED;" d="M2608.05,1126.11c-7.87,3.87-10.97,5.74-8.7,11.55
							c2.59,6.64,4.99,11.4,4.99,11.4l-37.42,19.58c0,0-3.12-8.44-4.48-11.69c-1.36-3.26-4.1-4.81-10.05-1.7l-2.22-2.34l59.02-30.09
							L2608.05,1126.11z"/>
						<path id="XMLID_25_" style="fill:#5E9CF7;" d="M2621.46,1143.86c0,0-1.19-3.05-2.67-6.82c-1.47-3.77-12.94-1.52-25.61,5.02
							l-24.26,12.53c-12.67,6.54-21.75,14.9-20.28,18.67l2.67,6.82L2621.46,1143.86z"/>
					</g>
				</g>
				<g id="XMLID_20_">
					<g id="XMLID_21_">
						<path id="XMLID_22_" style="fill:#FFA8A7;" d="M2852.24,1231.5c-37.91,3.29-54.07,10.2-82.53,61.53
							c-30.89,55.71-90.27,156.52-97.8,169.25c-10.48,17.71-12.45,44.64-3.41,60.91c8.44,15.19,35.24,22.14,65.62-12.18
							c36.12-40.8,103.34-140.46,103.34-140.46S2894.55,1295.21,2852.24,1231.5z"/>
					</g>
				</g>
				<path id="XMLID_19_" style="fill:#FFA8A7;" d="M2684.21,1534.87c-29.06-3.52-96.95-95.62-116.25-125.7
					c-21.14-32.94-40.83-48.77-58.81-62.06c-30.77-22.73-26.29-57.65-12.86-89.65c4.65-11.08,20.41-3.87,20.41-3.87l5.55,15.19
					l9.62,26.3c6.52,6.05,10.23,8.02,10.66,6.22c0.82-3.39-4.79-17.54-4.65-32.28c0.17-17.74,12.58-6.08,16.29,0.14
					c3.71,6.22,8.04,16.33,13.11,29.3c6.2,15.87,3.64,31.94,11.18,42.76c7.54,10.82,108.82,107.85,108.82,107.85L2684.21,1534.87z"
					/>
				<path style="fill:#37474F;" d="M2859.55,1229.52c-22.97-0.57-50.58,3.1-71.96,30.87c-21.38,27.78-106.95,178.83-106.95,178.83
					l-48.03-43.04c0,0-30.2,17.43-36.93,52.19c0,0,23.19,36.74,43.48,59.01c20.29,22.28,42.94,37.72,61.5,30.88
					c18.56-6.84,37.51-21.55,77.49-77.19c39.97-55.64,83.59-121.32,83.59-121.32S2889.28,1275.6,2859.55,1229.52z"/>
			</g>
			<g id="XMLID_16_">
				<path id="XMLID_17_" style="fill:#F28F8F;" d="M2847.7,1058.71c0,0-20.68,31.38-18.32,34.46c2.36,3.08,17.57,5.86,17.57,5.86
					L2847.7,1058.71z"/>
			</g>
			<g id="XMLID_12_">
				<path id="XMLID_13_" style="fill:#263238;" d="M2857.37,1078.87c-13.58,0-24.64-11.05-24.64-24.64
					c0-13.58,11.05-24.64,24.64-24.64s24.64,11.05,24.64,24.64C2882.01,1067.82,2870.96,1078.87,2857.37,1078.87z M2857.37,1035.07
					c-10.57,0-19.16,8.59-19.16,19.16c0,10.57,8.59,19.16,19.16,19.16c10.57,0,19.16-8.6,19.16-19.16
					C2876.53,1043.66,2867.94,1035.07,2857.37,1035.07z"/>
			</g>
			<g id="XMLID_10_">
				<path id="XMLID_11_" style="fill:#FFA8A7;" d="M2905.11,971.91c-41.85,8.83-53.93,27.22-57.87,93.7
					c-4.12,69.46,2.97,91.29,12.1,100.65c6.16,6.31,40.39,7.45,57.66,2.69c21.61-5.96,70.46-23.27,93.33-58.21
					c26.91-41.11,33.98-96.82,5.17-119.67C2974.96,958.9,2922.15,968.32,2905.11,971.91z"/>
			</g>
			<path style="fill:#F28F8F;" d="M2906.59,1170.9l-1.94-12.8c0,0-20.14,11.59-42.91,9.72
				C2869.73,1171.77,2890.56,1172.89,2906.59,1170.9z"/>
			<polygon id="XMLID_9_" style="fill:#263238;" points="2835.04,1049.08 2909.44,1058.71 2906.44,1063.94 2835.04,1054.67 			"/>
			<g id="XMLID_2_">
				<g id="XMLID_6_">
					<g id="XMLID_7_">
						<path id="XMLID_8_" style="fill:#263238;" d="M2840.1,998.74c3.15,0.45,6.38,0.27,9.45-0.57c-2.74,5.95-0.15,13.52,5.1,17.45
							c5.25,3.92,12.52,4.48,18.76,2.49c-2.26,3.85-3.01,8.57-2.05,12.94c2,9.1,12.26,16.99,21.68,15.64
							c0.44,9.72,0.56,19.23,10.95,23.66c0,0,6.62-25.68,28.25-22.45c21.78,3.25,24.72,31.01,11,47.88
							c-13.64,16.76-26.36,10.48-26.52,10.4c1.27,0.63,1.7,8.82,2.15,10.37c1.38,4.81,3.25,9.6,5.56,14.04
							c4.69,8.99,11.41,16.94,19.58,22.95c11.34,8.35,25.17,14.32,39.27,10.93c12.27-2.95,23.41-11.39,28.61-23.02
							c1.31-2.92,2.35-6.11,4.67-8.32c2.84-2.69,6.96-3.36,10.67-4.61c8.54-2.89,15.68-9.66,19.03-18.03
							c3.35-8.37,2.86-18.19-1.32-26.18c10.27-2.61,18.72-11.34,20.99-21.69c2.27-10.35-1.76-21.82-9.99-28.48
							c12.26-7.51,18.61-23.52,14.81-37.39c-3.26-11.91-13.15-20.37-24.74-23.72c-8.45-2.44-5.2-3.77-7.82-12.05
							c-1.78-5.63-5.15-10.78-9.74-14.52c-7.89-6.45-19.12-8.54-28.8-5.36c-1.88-10.77-10.49-19.57-20.9-22.48
							c-4.73-1.32-9.96-1.82-14.77-0.57c-3.47,0.9-10.61,4.13-11.92,7.45c-4.4-4.33-5.83-10.04-11.21-13.98
							c-5.47-4-12.2-6.34-19-6.32c-11.24,0.04-22.23,6.5-27.72,16.31c-7.54-7.87-18.34-12.76-29.23-12.29
							c-10.88,0.47-21.57,6.63-26.64,16.27c-5.07,9.64-3.86,22.47,3.59,30.43c-6.72,2.8-12.88,7.49-16.16,13.99
							c-3.56,7.04-3.07,15.86,2.28,21.84c2.59,2.89,4.27,4.82,8.17,6.08C2837.43,998.24,2838.76,998.55,2840.1,998.74z"/>
					</g>
				</g>
				<g id="XMLID_3_">
					<g id="XMLID_4_">
						<path id="XMLID_5_" style="fill:#263238;" d="M2903.54,1084.99l0.77-29.06c-8.02-0.21-14.7,6.12-14.91,14.14
							C2889.19,1078.1,2895.52,1084.77,2903.54,1084.99z"/>
					</g>
				</g>
			</g>
		</g>
	</g>
</g>
</svg>
