<svg height="328" viewBox="0 0 529 328" width="529" xmlns="http://www.w3.org/2000/svg" xmlns:xlink="http://www.w3.org/1999/xlink">
    <defs>
        <g id="c" transform="rotate(282.225 327 327)">
            <animateTransform attributeName="transform" dur="50s" from="0 327 327" repeatCount="indefinite" to="360 327 327" type="rotate"></animateTransform>
            <use xlink:href="#a"></use>
        </g>
        <g id="e" transform="rotate(77.775 327 327)">
            <animateTransform attributeName="transform" dur="50s" from="360 327 327" repeatCount="indefinite" to="0 327 327" type="rotate"></animateTransform>
            <use xlink:href="#a"></use>
        </g>
        <g id="l" transform="translate(0 331)">
            <animateTransform attributeName="transform" dur="5s" fill="freeze" from="0 0" repeatCount="1" to="0 331" type="translate"></animateTransform>
            <use xlink:href="#b"></use>
        </g>
        <g id="j" transform="translate(0 608.902)">
            <animateTransform attributeName="transform" dur="10s" from="0 0" repeatCount="indefinite" to="0 662" type="translate"></animateTransform>
            <use xlink:href="#b" y="-331"></use>
        </g>
        <g id="m" transform="translate(0 277.902)">
            <animateTransform attributeName="transform" begin="5s" dur="10s" from="0 0" repeatCount="indefinite" to="0 662" type="translate"></animateTransform>
            <use xlink:href="#b" y="-331"></use>
        </g>
        <g id="b">
            <circle cx="2.5" cy="92.5" fill="#00386C" r="2.5"></circle>
            <circle cx="2.5" cy="82.5" fill="#0295ff" r="2.5"></circle>
            <circle cx="2.5" cy="72.5" fill="#0295ff" r="2.5"></circle>
            <circle cx="2.5" cy="62.5" fill="#FCC79B" r="2.5"></circle>
            <circle cx="2.5" cy="52.5" fill="#00386C" r="2.5"></circle>
            <circle cx="2.5" cy="42.5" fill="#E365A6" r="2.5"></circle>
            <circle cx="2.5" cy="32.5" fill="#0295ff" r="2.5"></circle>
            <circle cx="2.5" cy="22.5" fill="#00386C" r="2.5"></circle>
            <circle cx="2.5" cy="12.5" fill="#B9E5FA" r="2.5"></circle>
            <circle cx="2.5" cy="2.5" fill="#0295ff" r="2.5"></circle>
            <circle cx="2.5" cy="324.5" fill="#00386C" r="2.5"></circle>
            <circle cx="2.5" cy="314.5" fill="#0295ff" r="2.5"></circle>
            <circle cx="2.5" cy="304.5" fill="#0295ff" r="2.5"></circle>
            <circle cx="2.5" cy="294.5" fill="#0295ff" r="2.5"></circle>
            <circle cx="2.5" cy="284.5" fill="#00386C" r="2.5"></circle>
            <circle cx="2.5" cy="274.5" fill="#E365A6" r="2.5"></circle>
            <circle cx="2.5" cy="264.5" fill="#0295ff" r="2.5"></circle>
            <circle cx="2.5" cy="254.5" fill="#00386C" r="2.5"></circle>
            <circle cx="2.5" cy="244.5" fill="#B9E5FA" r="2.5"></circle>
            <circle cx="2.5" cy="234.5" fill="#0295ff" r="2.5"></circle>
            <circle cx="2.5" cy="224.5" fill="#0295ff" r="2.5"></circle>
            <circle cx="2.5" cy="214.5" fill="#FCC79B" r="2.5"></circle>
            <circle cx="2.5" cy="204.5" fill="#0295ff" r="2.5"></circle>
            <circle cx="2.5" cy="194.5" fill="#0295ff" r="2.5"></circle>
            <circle cx="2.5" cy="184.5" fill="#00386C" r="2.5"></circle>
            <circle cx="2.5" cy="174.5" fill="#E365A6" r="2.5"></circle>
            <circle cx="2.5" cy="164.5" fill="#0295ff" r="2.5"></circle>
            <circle cx="2.5" cy="154.5" fill="#0295ff" r="2.5"></circle>
            <circle cx="2.5" cy="144.5" fill="#00386C" r="2.5"></circle>
            <circle cx="2.5" cy="134.5" fill="#0295ff" r="2.5"></circle>
            <circle cx="2.5" cy="124.5" fill="#B9E5FA" r="2.5"></circle>
            <circle cx="2.5" cy="114.5" fill="#5EEBA7" r="2.5"></circle>
            <circle cx="2.5" cy="104.5" fill="#0295ff" r="2.5"></circle>
            <path d="M0 0h20v331H0z" fill="none"></path>
        </g>
        <g id="a">
            <circle cx="652.5" cy="327.5" fill="#0295ff" r="2.5"></circle>
            <circle cx="652.34" cy="337.708" fill="#0295ff" r="2.5" transform="rotate(2 652.34 337.708)"></circle>
            <circle cx="651.859" cy="347.907" fill="#0295ff" r="2.5" transform="rotate(4 651.859 347.907)"></circle>
            <circle cx="651.058" cy="358.085" fill="#FCC79B" r="2.5" transform="rotate(5 651.058 358.085)"></circle>
            <circle cx="649.937" cy="368.233" fill="#B0CEEB" r="2.5" transform="rotate(7 649.937 368.233)"></circle>
            <circle cx="648.499" cy="378.341" fill="#0295ff" r="2.5" transform="rotate(9 648.499 378.341)"></circle>
            <circle cx="646.743" cy="388.399" fill="#0295ff" r="2.5" transform="rotate(11 646.743 388.399)"></circle>
            <circle cx="644.673" cy="398.397" fill="#0295ff" r="2.5" transform="rotate(13 644.673 398.397)"></circle>
            <circle cx="642.29" cy="408.324" fill="#0295ff" r="2.5" transform="rotate(14 642.29 408.324)"></circle>
            <circle cx="639.595" cy="418.172" fill="#FCC79B" r="2.5" transform="rotate(16 639.595 418.172)"></circle>
            <circle cx="636.593" cy="427.931" fill="#0295ff" r="2.5" transform="rotate(18 636.593 427.93)"></circle>
            <circle cx="633.286" cy="437.59" fill="#5EEBA7" r="2.5" transform="rotate(20 633.286 437.59)"></circle>
            <circle cx="629.677" cy="447.14" fill="#E365A6" r="2.5" transform="rotate(22 629.677 447.14)"></circle>
            <circle cx="625.77" cy="456.573" fill="#0295ff" r="2.5" transform="rotate(23 625.77 456.573)"></circle>
            <circle cx="621.569" cy="465.878" fill="#00386C" r="2.5" transform="rotate(25 621.569 465.878)"></circle>
            <circle cx="617.077" cy="475.047" fill="#0295ff" r="2.5" transform="rotate(27 617.077 475.047)"></circle>
            <circle cx="612.3" cy="484.07" fill="#0295ff" r="2.5" transform="rotate(29 612.3 484.07)"></circle>
            <circle cx="607.241" cy="492.938" fill="#E365A6" r="2.5" transform="rotate(31 607.241 492.938)"></circle>
            <circle cx="601.907" cy="501.644" fill="#B0CEEB" r="2.5" transform="rotate(32 601.907 501.644)"></circle>
            <circle cx="596.301" cy="510.177" fill="#0295ff" r="2.5" transform="rotate(34 596.301 510.177)"></circle>
            <circle cx="590.431" cy="518.53" fill="#0295ff" r="2.5" transform="rotate(36 590.43 518.53)"></circle>
            <circle cx="584.3" cy="526.695" fill="#0295ff" r="2.5" transform="rotate(38 584.3 526.695)"></circle>
            <circle cx="577.917" cy="534.663" fill="#E365A6" r="2.5" transform="rotate(40 577.917 534.663)"></circle>
            <circle cx="571.286" cy="542.426" fill="#0295ff" r="2.5" transform="rotate(41 571.286 542.426)"></circle>
            <circle cx="564.415" cy="549.978" fill="#0295ff" r="2.5" transform="rotate(43 564.415 549.978)"></circle>
            <circle cx="557.31" cy="557.31" fill="#5EEBA7" r="2.5" transform="rotate(45 557.31 557.31)"></circle>
            <circle cx="549.978" cy="564.415" fill="#0295ff" r="2.5" transform="rotate(47 549.978 564.415)"></circle>
            <circle cx="542.426" cy="571.286" fill="#0295ff" r="2.5" transform="rotate(49 542.426 571.286)"></circle>
            <circle cx="534.663" cy="577.917" fill="#0295ff" r="2.5" transform="rotate(50 534.663 577.917)"></circle>
            <circle cx="526.695" cy="584.3" fill="#00386C" r="2.5" transform="rotate(52 526.695 584.3)"></circle>
            <circle cx="518.53" cy="590.431" fill="#0295ff" r="2.5" transform="rotate(54 518.53 590.43)"></circle>
            <circle cx="510.177" cy="596.301" fill="#E365A6" r="2.5" transform="rotate(56 510.177 596.301)"></circle>
            <circle cx="501.644" cy="601.907" fill="#0295ff" r="2.5" transform="rotate(58 501.644 601.907)"></circle>
            <circle cx="492.938" cy="607.241" fill="#B0CEEB" r="2.5" transform="rotate(59 492.938 607.241)"></circle>
            <circle cx="484.07" cy="612.3" fill="#0295ff" r="2.5" transform="rotate(61 484.07 612.3)"></circle>
            <circle cx="475.047" cy="617.077" fill="#5EEBA7" r="2.5" transform="rotate(63 475.047 617.077)"></circle>
            <circle cx="465.878" cy="621.569" fill="#00386C" r="2.5" transform="rotate(65 465.878 621.569)"></circle>
            <circle cx="456.573" cy="625.77" fill="#0295ff" r="2.5" transform="rotate(67 456.573 625.77)"></circle>
            <circle cx="447.14" cy="629.677" fill="#0295ff" r="2.5" transform="rotate(68 447.14 629.677)"></circle>
            <circle cx="437.59" cy="633.286" fill="#0295ff" r="2.5" transform="rotate(70 437.59 633.286)"></circle>
            <circle cx="427.931" cy="636.593" fill="#FCC79B" r="2.5" transform="rotate(72 427.93 636.593)"></circle>
            <circle cx="418.172" cy="639.595" fill="#0295ff" r="2.5" transform="rotate(74 418.172 639.595)"></circle>
            <circle cx="408.324" cy="642.29" fill="#0295ff" r="2.5" transform="rotate(76 408.324 642.29)"></circle>
            <circle cx="398.397" cy="644.673" fill="#0295ff" r="2.5" transform="rotate(77 398.397 644.673)"></circle>
            <circle cx="388.399" cy="646.743" fill="#E365A6" r="2.5" transform="rotate(79 388.399 646.743)"></circle>
            <circle cx="378.341" cy="648.499" fill="#0295ff" r="2.5" transform="rotate(81 378.341 648.499)"></circle>
            <circle cx="368.233" cy="649.937" fill="#00386C" r="2.5" transform="rotate(83 368.233 649.937)"></circle>
            <circle cx="358.085" cy="651.058" fill="#5EEBA7" r="2.5" transform="rotate(85 358.085 651.058)"></circle>
            <circle cx="347.907" cy="651.859" fill="#0295ff" r="2.5" transform="rotate(86 347.907 651.859)"></circle>
            <circle cx="337.708" cy="652.34" fill="#0295ff" r="2.5" transform="rotate(88 337.708 652.34)"></circle>
            <circle cx="327.5" cy="652.5" fill="#00386C" r="2.5" transform="rotate(90 327.5 652.5)"></circle>
            <circle cx="317.292" cy="652.34" fill="#0295ff" r="2.5" transform="rotate(92 317.292 652.34)"></circle>
            <circle cx="307.093" cy="651.859" fill="#0295ff" r="2.5" transform="rotate(94 307.093 651.859)"></circle>
            <circle cx="296.915" cy="651.058" fill="#0295ff" r="2.5" transform="rotate(95 296.915 651.058)"></circle>
            <circle cx="286.767" cy="649.937" fill="#0295ff" r="2.5" transform="rotate(97 286.767 649.937)"></circle>
            <circle cx="276.659" cy="648.499" fill="#0295ff" r="2.5" transform="rotate(99 276.659 648.499)"></circle>
            <circle cx="266.601" cy="646.743" fill="#0295ff" r="2.5" transform="rotate(101 266.601 646.743)"></circle>
            <circle cx="256.603" cy="644.673" fill="#FCC79B" r="2.5" transform="rotate(103 256.603 644.673)"></circle>
            <circle cx="246.676" cy="642.29" fill="#00386C" r="2.5" transform="rotate(104 246.676 642.29)"></circle>
            <circle cx="236.828" cy="639.595" fill="#E365A6" r="2.5" transform="rotate(106 236.828 639.595)"></circle>
            <circle cx="227.069" cy="636.593" fill="#0295ff" r="2.5" transform="rotate(108 227.07 636.593)"></circle>
            <circle cx="217.41" cy="633.286" fill="#0295ff" r="2.5" transform="rotate(110 217.41 633.286)"></circle>
            <circle cx="207.86" cy="629.677" fill="#5EEBA7" r="2.5" transform="rotate(112 207.86 629.677)"></circle>
            <circle cx="198.427" cy="625.77" fill="#0295ff" r="2.5" transform="rotate(113 198.427 625.77)"></circle>
            <circle cx="189.122" cy="621.569" fill="#0295ff" r="2.5" transform="rotate(115 189.122 621.569)"></circle>
            <circle cx="179.953" cy="617.077" fill="#0295ff" r="2.5" transform="rotate(117 179.953 617.077)"></circle>
            <circle cx="170.93" cy="612.3" fill="#B0CEEB" r="2.5" transform="rotate(119 170.93 612.3)"></circle>
            <circle cx="162.062" cy="607.241" fill="#0295ff" r="2.5" transform="rotate(121 162.062 607.241)"></circle>
            <circle cx="153.356" cy="601.907" fill="#0295ff" r="2.5" transform="rotate(122 153.356 601.907)"></circle>
            <circle cx="144.823" cy="596.301" fill="#E365A6" r="2.5" transform="rotate(124 144.823 596.301)"></circle>
            <circle cx="136.47" cy="590.431" fill="#FCC79B" r="2.5" transform="rotate(126 136.47 590.43)"></circle>
            <circle cx="128.305" cy="584.3" fill="#E365A6" r="2.5" transform="rotate(128 128.305 584.3)"></circle>
            <circle cx="120.337" cy="577.917" fill="#0295ff" r="2.5" transform="rotate(130 120.337 577.917)"></circle>
            <circle cx="112.574" cy="571.286" fill="#FCC79B" r="2.5" transform="rotate(131 112.574 571.286)"></circle>
            <circle cx="105.022" cy="564.415" fill="#00386C" r="2.5" transform="rotate(133 105.022 564.415)"></circle>
            <circle cx="97.69" cy="557.31" fill="#0295ff" r="2.5" transform="rotate(135 97.69 557.31)"></circle>
            <circle cx="90.585" cy="549.978" fill="#0295ff" r="2.5" transform="rotate(137 90.585 549.978)"></circle>
            <circle cx="83.714" cy="542.426" fill="#5EEBA7" r="2.5" transform="rotate(139 83.714 542.426)"></circle>
            <circle cx="77.083" cy="534.663" fill="#0295ff" r="2.5" transform="rotate(140 77.083 534.663)"></circle>
            <circle cx="70.7" cy="526.695" fill="#0295ff" r="2.5" transform="rotate(142 70.7 526.695)"></circle>
            <circle cx="64.569" cy="518.53" fill="#0295ff" r="2.5" transform="rotate(144 64.57 518.53)"></circle>
            <circle cx="58.699" cy="510.177" fill="#FCC79B" r="2.5" transform="rotate(146 58.699 510.177)"></circle>
            <circle cx="53.093" cy="501.644" fill="#0295ff" r="2.5" transform="rotate(148 53.093 501.644)"></circle>
            <circle cx="47.759" cy="492.938" fill="#0295ff" r="2.5" transform="rotate(149 47.759 492.938)"></circle>
            <circle cx="42.7" cy="484.07" fill="#0295ff" r="2.5" transform="rotate(151 42.7 484.07)"></circle>
            <circle cx="37.923" cy="475.047" fill="#0295ff" r="2.5" transform="rotate(153 37.923 475.047)"></circle>
            <circle cx="33.431" cy="465.878" fill="#0295ff" r="2.5" transform="rotate(155 33.431 465.878)"></circle>
            <circle cx="29.23" cy="456.573" fill="#0295ff" r="2.5" transform="rotate(157 29.23 456.573)"></circle>
            <circle cx="25.323" cy="447.14" fill="#5EEBA7" r="2.5" transform="rotate(158 25.323 447.14)"></circle>
            <circle cx="21.714" cy="437.59" fill="#00386C" r="2.5" transform="rotate(160 21.714 437.59)"></circle>
            <circle cx="18.407" cy="427.931" fill="#E365A6" r="2.5" transform="rotate(162 18.407 427.93)"></circle>
            <circle cx="15.405" cy="418.172" fill="#0295ff" r="2.5" transform="rotate(164 15.405 418.172)"></circle>
            <circle cx="12.71" cy="408.324" fill="#0295ff" r="2.5" transform="rotate(166 12.71 408.324)"></circle>
            <circle cx="10.327" cy="398.397" fill="#0295ff" r="2.5" transform="rotate(167 10.327 398.397)"></circle>
            <circle cx="8.257" cy="388.399" fill="#0295ff" r="2.5" transform="rotate(169 8.257 388.399)"></circle>
            <circle cx="6.501" cy="378.341" fill="#0295ff" r="2.5" transform="rotate(171 6.501 378.341)"></circle>
            <circle cx="5.063" cy="368.233" fill="#0295ff" r="2.5" transform="rotate(173 5.063 368.233)"></circle>
            <circle cx="3.942" cy="358.085" fill="#0295ff" r="2.5" transform="rotate(175 3.942 358.085)"></circle>
            <circle cx="3.141" cy="347.907" fill="#FCC79B" r="2.5" transform="rotate(176 3.141 347.907)"></circle>
            <circle cx="2.66" cy="337.708" fill="#5EEBA7" r="2.5" transform="rotate(178 2.66 337.708)"></circle>
            <circle cx="2.5" cy="327.5" fill="#00386C" r="2.5" transform="rotate(180 2.5 327.5)"></circle>
            <circle cx="2.66" cy="317.292" fill="#0295ff" r="2.5" transform="rotate(-178 2.66 317.292)"></circle>
            <circle cx="3.141" cy="307.093" fill="#E365A6" r="2.5" transform="rotate(-176 3.141 307.093)"></circle>
            <circle cx="3.942" cy="296.915" fill="#0295ff" r="2.5" transform="rotate(-175 3.942 296.915)"></circle>
            <circle cx="5.063" cy="286.767" fill="#FCC79B" r="2.5" transform="rotate(-173 5.063 286.767)"></circle>
            <circle cx="6.501" cy="276.659" fill="#0295ff" r="2.5" transform="rotate(-171 6.501 276.659)"></circle>
            <circle cx="8.257" cy="266.601" fill="#0295ff" r="2.5" transform="rotate(-169 8.257 266.601)"></circle>
            <circle cx="10.327" cy="256.603" fill="#E365A6" r="2.5" transform="rotate(-167 10.327 256.603)"></circle>
            <circle cx="12.71" cy="246.676" fill="#0295ff" r="2.5" transform="rotate(-166 12.71 246.676)"></circle>
            <circle cx="15.405" cy="236.828" fill="#B0CEEB" r="2.5" transform="rotate(-164 15.405 236.828)"></circle>
            <circle cx="18.407" cy="227.069" fill="#0295ff" r="2.5" transform="rotate(-162 18.407 227.07)"></circle>
            <circle cx="21.714" cy="217.41" fill="#0295ff" r="2.5" transform="rotate(-160 21.714 217.41)"></circle>
            <circle cx="25.323" cy="207.86" fill="#0295ff" r="2.5" transform="rotate(-158 25.323 207.86)"></circle>
            <circle cx="29.23" cy="198.427" fill="#E365A6" r="2.5" transform="rotate(-157 29.23 198.427)"></circle>
            <circle cx="33.431" cy="189.122" fill="#0295ff" r="2.5" transform="rotate(-155 33.431 189.122)"></circle>
            <circle cx="37.923" cy="179.953" fill="#0295ff" r="2.5" transform="rotate(-153 37.923 179.953)"></circle>
            <circle cx="42.7" cy="170.93" fill="#5EEBA7" r="2.5" transform="rotate(-151 42.7 170.93)"></circle>
            <circle cx="47.759" cy="162.062" fill="#0295ff" r="2.5" transform="rotate(-149 47.759 162.062)"></circle>
            <circle cx="53.093" cy="153.356" fill="#FCC79B" r="2.5" transform="rotate(-148 53.093 153.356)"></circle>
            <circle cx="58.699" cy="144.823" fill="#0295ff" r="2.5" transform="rotate(-146 58.699 144.823)"></circle>
            <circle cx="64.569" cy="136.47" fill="#0295ff" r="2.5" transform="rotate(-144 64.57 136.47)"></circle>
            <circle cx="70.7" cy="128.305" fill="#00386C" r="2.5" transform="rotate(-142 70.7 128.305)"></circle>
            <circle cx="77.083" cy="120.337" fill="#E365A6" r="2.5" transform="rotate(-140 77.083 120.337)"></circle>
            <circle cx="83.714" cy="112.574" fill="#0295ff" r="2.5" transform="rotate(-139 83.714 112.574)"></circle>
            <circle cx="90.585" cy="105.022" fill="#0295ff" r="2.5" transform="rotate(-137 90.585 105.022)"></circle>
            <circle cx="97.69" cy="97.69" fill="#0295ff" r="2.5" transform="rotate(-135 97.69 97.69)"></circle>
            <circle cx="105.022" cy="90.585" fill="#0295ff" r="2.5" transform="rotate(-133 105.022 90.585)"></circle>
            <circle cx="112.574" cy="83.714" fill="#B0CEEB" r="2.5" transform="rotate(-131 112.574 83.714)"></circle>
            <circle cx="120.337" cy="77.083" fill="#0295ff" r="2.5" transform="rotate(-130 120.337 77.083)"></circle>
            <circle cx="128.305" cy="70.7" fill="#0295ff" r="2.5" transform="rotate(-128 128.305 70.7)"></circle>
            <circle cx="136.47" cy="64.569" fill="#0295ff" r="2.5" transform="rotate(-126 136.47 64.57)"></circle>
            <circle cx="144.823" cy="58.699" fill="#0295ff" r="2.5" transform="rotate(-124 144.823 58.699)"></circle>
            <circle cx="153.356" cy="53.093" fill="#E365A6" r="2.5" transform="rotate(-122 153.356 53.093)"></circle>
            <circle cx="162.062" cy="47.759" fill="#0295ff" r="2.5" transform="rotate(-121 162.062 47.759)"></circle>
            <circle cx="170.93" cy="42.7" fill="#0295ff" r="2.5" transform="rotate(-119 170.93 42.7)"></circle>
            <circle cx="179.953" cy="37.923" fill="#FCC79B" r="2.5" transform="rotate(-117 179.953 37.923)"></circle>
            <circle cx="189.122" cy="33.431" fill="#5EEBA7" r="2.5" transform="rotate(-115 189.122 33.431)"></circle>
            <circle cx="198.427" cy="29.23" fill="#0295ff" r="2.5" transform="rotate(-113 198.427 29.23)"></circle>
            <circle cx="207.86" cy="25.323" fill="#0295ff" r="2.5" transform="rotate(-112 207.86 25.323)"></circle>
            <circle cx="217.41" cy="21.714" fill="#0295ff" r="2.5" transform="rotate(-110 217.41 21.714)"></circle>
            <circle cx="227.069" cy="18.407" fill="#E365A6" r="2.5" transform="rotate(-108 227.07 18.407)"></circle>
            <circle cx="236.828" cy="15.405" fill="#B0CEEB" r="2.5" transform="rotate(-106 236.828 15.405)"></circle>
            <circle cx="246.676" cy="12.71" fill="#0295ff" r="2.5" transform="rotate(-104 246.676 12.71)"></circle>
            <circle cx="256.603" cy="10.327" fill="#0295ff" r="2.5" transform="rotate(-103 256.603 10.327)"></circle>
            <circle cx="266.601" cy="8.257" fill="#E365A6" r="2.5" transform="rotate(-101 266.601 8.257)"></circle>
            <circle cx="276.659" cy="6.501" fill="#00386C" r="2.5" transform="rotate(-99 276.659 6.501)"></circle>
            <circle cx="286.767" cy="5.063" fill="#0295ff" r="2.5" transform="rotate(-97 286.767 5.063)"></circle>
            <circle cx="296.915" cy="3.942" fill="#0295ff" r="2.5" transform="rotate(-95 296.915 3.942)"></circle>
            <circle cx="307.093" cy="3.141" fill="#0295ff" r="2.5" transform="rotate(-94 307.093 3.141)"></circle>
            <circle cx="317.292" cy="2.66" fill="#0295ff" r="2.5" transform="rotate(-92 317.292 2.66)"></circle>
            <circle cx="327.5" cy="2.5" fill="#00386C" r="2.5" transform="rotate(-90 327.5 2.5)"></circle>
            <circle cx="337.708" cy="2.66" fill="#E365A6" r="2.5" transform="rotate(-88 337.708 2.66)"></circle>
            <circle cx="347.907" cy="3.141" fill="#0295ff" r="2.5" transform="rotate(-86 347.907 3.141)"></circle>
            <circle cx="358.085" cy="3.942" fill="#0295ff" r="2.5" transform="rotate(-85 358.085 3.942)"></circle>
            <circle cx="368.233" cy="5.063" fill="#0295ff" r="2.5" transform="rotate(-83 368.233 5.063)"></circle>
            <circle cx="378.341" cy="6.501" fill="#0295ff" r="2.5" transform="rotate(-81 378.341 6.501)"></circle>
            <circle cx="388.399" cy="8.257" fill="#FCC79B" r="2.5" transform="rotate(-79 388.399 8.257)"></circle>
            <circle cx="398.397" cy="10.327" fill="#0295ff" r="2.5" transform="rotate(-77 398.397 10.327)"></circle>
            <circle cx="408.324" cy="12.71" fill="#0295ff" r="2.5" transform="rotate(-76 408.324 12.71)"></circle>
            <circle cx="418.172" cy="15.405" fill="#0295ff" r="2.5" transform="rotate(-74 418.172 15.405)"></circle>
            <circle cx="427.931" cy="18.407" fill="#0295ff" r="2.5" transform="rotate(-72 427.93 18.407)"></circle>
            <circle cx="437.59" cy="21.714" fill="#5EEBA7" r="2.5" transform="rotate(-70 437.59 21.714)"></circle>
            <circle cx="447.14" cy="25.323" fill="#E365A6" r="2.5" transform="rotate(-68 447.14 25.323)"></circle>
            <circle cx="456.573" cy="29.23" fill="#0295ff" r="2.5" transform="rotate(-67 456.573 29.23)"></circle>
            <circle cx="465.878" cy="33.431" fill="#0295ff" r="2.5" transform="rotate(-65 465.878 33.431)"></circle>
            <circle cx="475.047" cy="37.923" fill="#00386C" r="2.5" transform="rotate(-63 475.047 37.923)"></circle>
            <circle cx="484.07" cy="42.7" fill="#0295ff" r="2.5" transform="rotate(-61 484.07 42.7)"></circle>
            <circle cx="492.938" cy="47.759" fill="#FCC79B" r="2.5" transform="rotate(-59 492.938 47.759)"></circle>
            <circle cx="501.644" cy="53.093" fill="#00386C" r="2.5" transform="rotate(-58 501.644 53.093)"></circle>
            <circle cx="510.177" cy="58.699" fill="#5EEBA7" r="2.5" transform="rotate(-56 510.177 58.699)"></circle>
            <circle cx="518.53" cy="64.569" fill="#0295ff" r="2.5" transform="rotate(-54 518.53 64.57)"></circle>
            <circle cx="526.695" cy="70.7" fill="#0295ff" r="2.5" transform="rotate(-52 526.695 70.7)"></circle>
            <circle cx="534.663" cy="77.083" fill="#0295ff" r="2.5" transform="rotate(-50 534.663 77.083)"></circle>
            <circle cx="542.426" cy="83.714" fill="#0295ff" r="2.5" transform="rotate(-49 542.426 83.714)"></circle>
            <circle cx="549.978" cy="90.585" fill="#0295ff" r="2.5" transform="rotate(-47 549.978 90.585)"></circle>
            <circle cx="557.31" cy="97.69" fill="#B0CEEB" r="2.5" transform="rotate(-45 557.31 97.69)"></circle>
            <circle cx="564.415" cy="105.022" fill="#E365A6" r="2.5" transform="rotate(-43 564.415 105.022)"></circle>
            <circle cx="571.286" cy="112.574" fill="#0295ff" r="2.5" transform="rotate(-41 571.286 112.574)"></circle>
            <circle cx="577.917" cy="120.337" fill="#0295ff" r="2.5" transform="rotate(-40 577.917 120.337)"></circle>
            <circle cx="584.3" cy="128.305" fill="#0295ff" r="2.5" transform="rotate(-38 584.3 128.305)"></circle>
            <circle cx="590.431" cy="136.47" fill="#0295ff" r="2.5" transform="rotate(-36 590.43 136.47)"></circle>
            <circle cx="596.301" cy="144.823" fill="#0295ff" r="2.5" transform="rotate(-34 596.301 144.823)"></circle>
            <circle cx="601.907" cy="153.356" fill="#FCC79B" r="2.5" transform="rotate(-32 601.907 153.356)"></circle>
            <circle cx="607.241" cy="162.062" fill="#0295ff" r="2.5" transform="rotate(-31 607.241 162.062)"></circle>
            <circle cx="612.3" cy="170.93" fill="#E365A6" r="2.5" transform="rotate(-29 612.3 170.93)"></circle>
            <circle cx="617.077" cy="179.953" fill="#0295ff" r="2.5" transform="rotate(-27 617.077 179.953)"></circle>
            <circle cx="621.569" cy="189.122" fill="#0295ff" r="2.5" transform="rotate(-25 621.569 189.122)"></circle>
            <circle cx="625.77" cy="198.427" fill="#0295ff" r="2.5" transform="rotate(-23 625.77 198.427)"></circle>
            <circle cx="629.677" cy="207.86" fill="#B0CEEB" r="2.5" transform="rotate(-22 629.677 207.86)"></circle>
            <circle cx="633.286" cy="217.41" fill="#0295ff" r="2.5" transform="rotate(-20 633.286 217.41)"></circle>
            <circle cx="636.593" cy="227.069" fill="#0295ff" r="2.5" transform="rotate(-18 636.593 227.07)"></circle>
            <circle cx="639.595" cy="236.828" fill="#E365A6" r="2.5" transform="rotate(-16 639.595 236.828)"></circle>
            <circle cx="642.29" cy="246.676" fill="#5EEBA7" r="2.5" transform="rotate(-14 642.29 246.676)"></circle>
            <circle cx="644.673" cy="256.603" fill="#00386C" r="2.5" transform="rotate(-13 644.673 256.603)"></circle>
            <circle cx="646.743" cy="266.601" fill="#0295ff" r="2.5" transform="rotate(-11 646.743 266.601)"></circle>
            <circle cx="648.499" cy="276.659" fill="#0295ff" r="2.5" transform="rotate(-9 648.499 276.659)"></circle>
            <circle cx="649.937" cy="286.767" fill="#0295ff" r="2.5" transform="rotate(-7 649.937 286.767)"></circle>
            <circle cx="651.058" cy="296.915" fill="#0295ff" r="2.5" transform="rotate(-5 651.058 296.915)"></circle>
            <circle cx="651.859" cy="307.093" fill="#0295ff" r="2.5" transform="rotate(-4 651.859 307.093)"></circle>
            <circle cx="652.34" cy="317.292" fill="#0295ff" r="2.5" transform="rotate(-2 652.34 317.292)"></circle>
        </g>
        <mask height="155" id="h" maskUnits="userSpaceOnUse" width="213" x="391" y="7">
            <path d="M391 7h213v155H391z" fill="#fff"></path>
        </mask>
        <mask height="155" id="g" maskUnits="userSpaceOnUse" width="213" x="50" y="7">
            <path d="M50 7h213v155H50z" fill="#fff"></path>
        </mask>
        <mask height="155" id="f" maskUnits="userSpaceOnUse" width="213" x="52" y="496">
            <path d="M52 496h213v155H52z" fill="#fff"></path>
        </mask>
        <mask height="155" id="d" maskUnits="userSpaceOnUse" width="213" x="391" y="495">
            <g id="i">
                <image height="107" opacity="0.75" overflow="visible" transform="matrix(1 0 0 1 -9 -9)" width="107" xlink:href="worflow-bg.png"></image>
                <path d="M89 44.5C89 69.077 69.076 89 44.5 89 19.923 89 0 69.077 0 44.5S19.923 0 44.5 0C69.076 0 89 19.923 89 44.5" fill="#FFF"></path>
                <path d="M40.6,20.8c-1.2-2.4,0.3-5.8,2.9-6.3c3-1,6.3,2.4,5.4,5.6c-0.4,1.7-1.7,2.8-3.1,3.4c0,1.2,0,2.3,0,3.5c3.3,0,6.6,0,9.9,0c3.3,0,6.5,2.2,7.9,5.4c1.2,2.6,0.8,5.6,0.8,8.5c1.8,0,3.7,0,5.5,0c0,4.6,0,9.2,0,13.9c-1.8,0-3.7,0-5.5,0c0,3.5,0,6.9,0,10.4c-13.1,0-26.3,0-39.4,0c0-3.5,0-6.9,0-10.4c-1.8,0-3.7,0-5.5,0c0-4.6,0-9.2,0-13.9c1.8,0,3.7,0,5.5,0c0.1-2.9-0.4-6.1,1-8.8c1.4-3,4.5-5,7.7-5c3.3-0.1,6.6,0,9.9,0c0-1.2,0-2.3,0-3.5C42.3,22.9,41.1,22.2,40.6,20.8z M43.7,16.8c-1.3,0.6-1.7,2.7-0.6,3.7c1.2,1.4,3.9,0.3,3.7-1.6C46.9,17.3,45,16.2,43.7,16.8z M27.1,36.2c-0.1,8.9,0,17.7,0,26.6c2.2,0,4.4,0,6.6,0c0-3.1,0-6.2,0-9.2c7.3,0,14.6,0,21.9,0c0,3.1,0,6.2,0,9.2c2.2,0,4.4,0,6.6,0c0-8.9,0-17.8,0-26.6c0-3.6-3-6.9-6.5-6.8c-7.3,0-14.7,0-22,0C30.1,29.3,27,32.5,27.1,36.2z M21.6,43.2c0,3.1,0,6.2,0,9.2c1.1,0,2.2,0,3.3,0c0-3.1,0-6.2,0-9.2C23.8,43.2,22.7,43.2,21.6,43.2z M64.3,43.2c0,3.1,0,6.2,0,9.2c1.1,0,2.2,0,3.3,0c0-3.1,0-6.2,0-9.2C66.5,43.2,65.4,43.2,64.3,43.2z M35.8,55.9c0,2.3,0,4.6,0,6.9c1.5,0,2.9,0,4.4,0c0-2.3,0-4.6,0-6.9C38.7,55.9,37.3,55.9,35.8,55.9z M42.4,55.9c0,2.3,0,4.6,0,6.9c1.5,0,2.9,0,4.4,0c0-2.3,0-4.6,0-6.9C45.3,55.9,43.9,55.9,42.4,55.9z M49,55.9c0,2.3,0,4.6,0,6.9c1.5,0,2.9,0,4.4,0c0-2.3,0-4.6,0-6.9C51.9,55.9,50.4,55.9,49,55.9z" fill="#0295FF"></path>
                <path d="M50,37.1c2.6-1.3,6,0.7,6.3,3.6c0.6,3.5-3.5,6.5-6.5,4.7C46.3,43.9,46.5,38.4,50,37.1z M50.5,39.1c-1.7,0.8-1.7,3.6,0,4.4c1.4,1,3.5-0.1,3.8-1.8C54.7,39.7,52.2,37.9,50.5,39.1z" fill="#0295FF"></path>
                <path d="M36,37.1c2.6-1.3,6,0.7,6.3,3.6c0.6,3.5-3.5,6.5-6.5,4.7C32.3,43.9,32.5,38.4,36,37.1z M36.5,39.1c-1.7,0.8-1.7,3.6,0,4.4c1.4,1,3.5-0.1,3.8-1.8C40.7,39.7,38.2,37.9,36.5,39.1z" fill="#0295FF"></path>
            </g>
            <path d="M391 495h213v155H391z" fill="#fff"></path>
        </mask>
        <mask height="117" id="k" width="20" x="0" y="0">
            <path d="M0 0h20v117H0zm0 206h20v130H0z" fill="#fff"></path>
        </mask>
    </defs><use mask="url(#d)" x="-85" xlink:href="#c" y="-495"></use><use mask="url(#f)" x="-40" xlink:href="#e" y="-495"></use><use mask="url(#g)" x="-40" xlink:href="#e" y="167"></use><use mask="url(#h)" x="-85" xlink:href="#c" y="167"></use><use x="221" xlink:href="#i" y="117"></use><use mask="url(#k)" x="264" xlink:href="#j"></use><use mask="url(#k)" x="264" xlink:href="#l"></use><use mask="url(#k)" x="264" xlink:href="#m"></use>
</svg>